<svg width="15" height="9" viewBox="0 0 15 9" fill="none" xmlns="http://www.w3.org/2000/svg">
<path d="M6.9147 8.5731L0.239632 1.89791C0.0851212 1.74352 -6.7203e-08 1.53743 -5.75973e-08 1.31767C-4.79915e-08 1.09792 0.0851212 0.891822 0.239632 0.737433L0.731092 0.245852C1.05133 -0.0740236 1.57182 -0.0740236 1.89157 0.245852L7.49689 5.85117L13.1084 0.239633C13.2629 0.0852438 13.4689 5.88745e-07 13.6885 5.98345e-07C13.9084 6.07957e-07 14.1144 0.0852438 14.269 0.239633L14.7604 0.731214C14.9149 0.885725 15 1.0917 15 1.31145C15 1.53121 14.9149 1.7373 14.7604 1.89169L8.0792 8.5731C7.9242 8.72786 7.71725 8.81285 7.49726 8.81237C7.2764 8.81285 7.06958 8.72786 6.9147 8.5731Z" fill="#E74623"/>
</svg>
