<svg width="26" height="27" viewBox="0 0 26 27" fill="none" xmlns="http://www.w3.org/2000/svg">
<path d="M21.0705 3.55782C19.0833 2.07522 16.3463 0.719967 13.2414 0.720459C12.5968 0.720951 11.9363 0.779471 11.2641 0.907324C7.42062 1.65035 4.99827 3.18558 3.13456 5.46481C1.1548 7.92894 -0.172861 11.3933 0.456572 15.4856C1.38794 21.7175 7.44472 27.2747 15.0382 26.0418C26.8249 24.1354 29.0598 9.46318 21.0705 3.55782ZM17.0406 7.88222C17.0406 9.48728 14.339 7.44113 14.5957 10.5096C15.5265 10.6493 17.0406 10.0911 17.0406 11.2536V12.4859C17.0406 13.7655 15.5496 13.0441 14.5716 13.2767V19.6246C14.5716 20.4148 14.6886 20.9498 13.7799 20.9498C11.1717 20.9498 11.1244 21.1824 11.1244 19.6246C11.1244 17.6016 11.1948 15.16 11.1244 13.2531C9.86706 13.2531 9.05221 13.4861 9.05221 12.4859C9.05221 10.2775 8.91205 10.5327 11.1013 10.5327C11.3575 8.74229 10.7286 8.57952 11.8468 7.0915C12.0794 6.78957 12.5456 6.3711 13.0118 6.18472C13.5237 5.97573 14.2461 5.97573 14.8519 5.97573C17.2044 5.97573 17.0406 5.76674 17.0406 7.88222Z" fill="#393185"/>
</svg>
