<svg width="15" height="15" viewBox="0 0 15 15" fill="none" xmlns="http://www.w3.org/2000/svg">
<path d="M14.6064 11.5721L11.5703 9.54744C11.1851 9.29257 10.6686 9.37643 10.3838 9.74016L9.49938 10.8772C9.38573 11.0271 9.17913 11.0706 9.01471 10.9792L8.84648 10.8865C8.28881 10.5825 7.59493 10.2041 6.19688 8.80555C4.79884 7.40701 4.41965 6.7126 4.11568 6.15595L4.02344 5.98773C3.93084 5.82334 3.97349 5.61586 4.12341 5.50129L5.25973 4.61719C5.62331 4.33232 5.70729 3.81601 5.45271 3.43061L3.42801 0.394553C3.1671 0.00209141 2.64364 -0.115723 2.23973 0.127083L0.970159 0.889714C0.571253 1.12423 0.278592 1.50404 0.153542 1.94955C-0.303626 3.6153 0.0402969 6.49012 4.27518 10.7255C7.64393 14.094 10.1518 14.9999 11.8756 14.9999C12.2723 15.0016 12.6674 14.95 13.0504 14.8464C13.496 14.7215 13.8759 14.4288 14.1102 14.0298L14.8736 12.761C15.1168 12.357 14.999 11.8332 14.6064 11.5721ZM14.4429 12.5045L13.6813 13.7741C13.513 14.0621 13.2398 14.2738 12.9189 14.365C11.3811 14.7872 8.69451 14.4375 4.62885 10.3718C0.563198 6.30617 0.213533 3.61981 0.635726 2.0818C0.727002 1.76052 0.939021 1.48696 1.22738 1.31841L2.49694 0.556775C2.6722 0.451322 2.89939 0.502437 3.01261 0.672744L4.11246 2.32399L5.03558 3.70853C5.14613 3.87571 5.10981 4.09976 4.9521 4.22347L3.81552 5.10757C3.46963 5.37206 3.37086 5.85061 3.58381 6.23041L3.67406 6.39439C3.99353 6.9803 4.39071 7.70919 5.84074 9.15899C7.29078 10.6088 8.01944 11.006 8.60508 11.3254L8.76929 11.4159C9.14907 11.6288 9.62765 11.5301 9.89214 11.1842L10.7762 10.0476C10.9 9.88999 11.1239 9.8537 11.2912 9.96413L14.327 11.9888C14.4974 12.102 14.5485 12.3293 14.4429 12.5045Z" fill="#F8F8F8"/>
<path d="M8.49995 2.50186C10.8457 2.50447 12.7467 4.40546 12.7493 6.75124C12.7493 6.88929 12.8612 7.00119 12.9993 7.00119C13.1373 7.00119 13.2492 6.88929 13.2492 6.75124C13.2463 4.12947 11.1217 2.00482 8.49995 2.00195C8.3619 2.00195 8.25 2.11385 8.25 2.25191C8.25 2.38996 8.3619 2.50186 8.49995 2.50186Z" fill="#F8F8F8"/>
<path d="M8.49995 4.00186C10.0178 4.00365 11.2478 5.23364 11.2496 6.75146C11.2496 6.88952 11.3615 7.00141 11.4995 7.00141C11.6376 7.00141 11.7495 6.88952 11.7495 6.75146C11.7474 4.95765 10.2937 3.504 8.49995 3.50195C8.3619 3.50195 8.25 3.61385 8.25 3.75191C8.25 3.88996 8.3619 4.00186 8.49995 4.00186Z" fill="#F8F8F8"/>
<path d="M8.49995 5.50088C9.18985 5.5017 9.74893 6.06078 9.74978 6.75071C9.74978 6.88876 9.8617 7.00066 9.99973 7.00066C10.1378 7.00066 10.2497 6.88876 10.2497 6.75071C10.2486 5.78482 9.46585 5.00206 8.49995 5.00098C8.3619 5.00098 8.25 5.11287 8.25 5.25093C8.25 5.38899 8.3619 5.50088 8.49995 5.50088Z" fill="#F8F8F8"/>
</svg>
