<svg width="15" height="13" viewBox="0 0 15 13" fill="none" xmlns="http://www.w3.org/2000/svg">
<path d="M13.1688 0.791992H1.83426C0.822471 0.791992 0 1.61446 0 2.62626V10.373C0 11.3848 0.822471 12.2073 1.83426 12.2073H13.1657C14.1775 12.2073 15 11.3848 15 10.373V2.62936C15.0031 1.61757 14.1806 0.791992 13.1688 0.791992ZM14.1651 10.373C14.1651 10.9223 13.7182 11.3693 13.1688 11.3693H1.83426C1.28492 11.3693 0.837989 10.9223 0.837989 10.373V2.62936C0.837989 2.08001 1.28492 1.63308 1.83426 1.63308H13.1657C13.7151 1.63308 14.162 2.08001 14.162 2.62936V10.373H14.1651Z" fill="#F8F8F8"/>
<path d="M9.46007 6.40371L13.1286 3.11383C13.2993 2.95864 13.3148 2.69483 13.1596 2.52103C13.0044 2.35032 12.7406 2.33481 12.5668 2.48999L7.50786 7.03065L6.5209 6.14921C6.51779 6.1461 6.51469 6.143 6.51469 6.1399C6.49297 6.11817 6.47124 6.09955 6.44641 6.08093L2.43027 2.48689C2.25647 2.3317 1.99265 2.34722 1.83747 2.52103C1.68229 2.69483 1.69781 2.95864 1.87161 3.11383L5.58359 6.43164L1.88713 9.89222C1.71953 10.0505 1.71022 10.3143 1.86851 10.485C1.95231 10.5719 2.06404 10.6185 2.17577 10.6185C2.27819 10.6185 2.38061 10.5812 2.46131 10.5067L6.21364 6.99651L7.23164 7.90588C7.31233 7.97726 7.41165 8.0114 7.51097 8.0114C7.61028 8.0114 7.7127 7.97416 7.7903 7.90278L8.83623 6.96547L12.5668 10.5099C12.6475 10.5874 12.7531 10.6247 12.8555 10.6247C12.9672 10.6247 13.0758 10.5812 13.1596 10.4943C13.3179 10.3267 13.3117 10.0598 13.1441 9.90154L9.46007 6.40371Z" fill="#F8F8F8"/>
</svg>
