<svg width="20" height="20" viewBox="0 0 20 20" fill="none" xmlns="http://www.w3.org/2000/svg">
<path d="M19.9492 5.88005C19.9023 4.81738 19.7304 4.0868 19.4842 3.45374C19.2302 2.78176 18.8394 2.18014 18.3274 1.68002C17.8272 1.1721 17.2215 0.777435 16.5572 0.527447C15.9203 0.281274 15.1934 0.109427 14.1306 0.0625732C13.0597 0.0117516 12.7198 0 10.0039 0C7.28799 0 6.94805 0.0117516 5.8812 0.0586052C4.81831 0.105459 4.08759 0.277459 3.45456 0.523479C2.7823 0.777435 2.18057 1.16814 1.68034 1.68002C1.17233 2.18014 0.777738 2.78573 0.527549 3.44992C0.281329 4.0868 0.109448 4.81341 0.0625854 5.87609C0.0117538 6.9467 0 7.28658 0 10.002C0 12.7173 0.0117538 13.0572 0.0586166 14.1239C0.105479 15.1865 0.277513 15.9171 0.523733 16.5502C0.777738 17.2221 1.17233 17.8238 1.68034 18.3239C2.18057 18.8318 2.78627 19.2265 3.45059 19.4765C4.08759 19.7226 4.81434 19.8945 5.87738 19.9413C6.94408 19.9883 7.28418 19.9999 10.0001 19.9999C12.716 19.9999 13.0559 19.9883 14.1228 19.9413C15.1857 19.8945 15.9164 19.7226 16.5494 19.4765C17.8938 18.9568 18.9567 17.8941 19.4764 16.5502C19.7225 15.9133 19.8945 15.1865 19.9414 14.1239C19.9882 13.0572 20 12.7173 20 10.002C20 7.28658 19.996 6.9467 19.9492 5.88005ZM18.1478 14.0457C18.1047 15.0225 17.9406 15.5499 17.8039 15.9015C17.4677 16.7728 16.7761 17.4643 15.9046 17.8004C15.5529 17.9372 15.0216 18.1012 14.0484 18.1441C12.9933 18.1911 12.6769 18.2027 10.0079 18.2027C7.33882 18.2027 7.01842 18.1911 5.96714 18.1441C4.99019 18.1012 4.46264 17.9372 4.11094 17.8004C3.67727 17.6402 3.28253 17.3862 2.96212 17.0541C2.62996 16.7298 2.37596 16.3391 2.21568 15.9055C2.0789 15.5539 1.91481 15.0225 1.87191 14.0497C1.8249 12.9948 1.8133 12.6783 1.8133 10.0097C1.8133 7.34122 1.8249 7.02087 1.87191 5.96995C1.91481 4.99319 2.0789 4.46575 2.21568 4.11412C2.37596 3.68038 2.62996 3.28586 2.96609 2.96536C3.29031 2.63327 3.68109 2.37931 4.11491 2.21921C4.46661 2.08247 4.99813 1.9184 5.9711 1.87537C7.0262 1.82851 7.34279 1.81676 10.0117 1.81676C12.6847 1.81676 13.0011 1.82851 14.0524 1.87537C15.0293 1.9184 15.5569 2.08247 15.9086 2.21921C16.3423 2.37931 16.737 2.63327 17.0574 2.96536C17.3896 3.28967 17.6436 3.68038 17.8039 4.11412C17.9406 4.46575 18.1047 4.99701 18.1478 5.96995C18.1946 7.02484 18.2064 7.34122 18.2064 10.0097C18.2064 12.6783 18.1946 12.9908 18.1478 14.0457Z" fill="white"/>
<path d="M10.004 4.86462C7.167 4.86462 4.86523 7.16579 4.86523 10.0023C4.86523 12.8389 7.167 15.1401 10.004 15.1401C12.8411 15.1401 15.1427 12.8389 15.1427 10.0023C15.1427 7.16579 12.8411 4.86462 10.004 4.86462ZM10.004 13.3351C8.16348 13.3351 6.67059 11.8426 6.67059 10.0023C6.67059 8.16208 8.16348 6.66963 10.004 6.66963C11.8446 6.66963 13.3373 8.16208 13.3373 10.0023C13.3373 11.8426 11.8446 13.3351 10.004 13.3351Z" fill="white"/>
<path d="M16.5459 4.66036C16.5459 5.32272 16.0088 5.85978 15.3461 5.85978C14.6837 5.85978 14.1465 5.32272 14.1465 4.66036C14.1465 3.99785 14.6837 3.46094 15.3461 3.46094C16.0088 3.46094 16.5459 3.99785 16.5459 4.66036Z" fill="white"/>
</svg>
