<svg width="26" height="27" viewBox="0 0 26 27" fill="none" xmlns="http://www.w3.org/2000/svg">
<path d="M20.8161 3.68551C18.8295 2.2029 16.0925 0.84765 12.9871 0.848633C12.3429 0.848633 11.6824 0.90715 11.0097 1.035C7.16676 1.77852 4.7444 3.31325 2.88069 5.59249C0.900436 8.05711 -0.426732 11.521 0.202701 15.6137C1.13357 21.8451 7.19085 27.4028 14.7844 26.17C26.5705 24.2635 28.8055 9.59086 20.8161 3.68551ZM20.6445 17.0019C20.6445 19.4085 18.6766 21.377 16.27 21.377H9.31371C6.90809 21.377 4.93968 19.4085 4.93968 17.0019V10.0467C4.93968 7.64011 6.90809 5.67215 9.31371 5.67215H16.27C18.6766 5.67215 20.6445 7.64011 20.6445 10.0467V17.0019ZM19.1727 16.3489V10.7007C19.1727 8.74408 17.5726 7.14395 15.6159 7.14395H9.96824C8.01159 7.14395 6.41145 8.74408 6.41145 10.7007V16.3489C6.41145 18.3051 8.01159 19.9052 9.96824 19.9052H15.6159C17.5726 19.9052 19.1727 18.3051 19.1727 16.3489ZM16.9127 13.5278C16.9127 15.7991 15.0667 17.6451 12.7948 17.6451C10.5171 17.6451 8.67204 15.7991 8.67204 13.5278C8.67204 11.2495 10.5171 9.40449 12.7948 9.40449C15.0667 9.40449 16.9127 11.2495 16.9127 13.5278ZM17.8347 9.35778C17.8347 9.86575 17.4207 10.2798 16.9127 10.2798C16.4042 10.2798 15.9956 9.86575 15.9956 9.35778C15.9956 8.8498 16.4042 8.43576 16.9127 8.43576C17.4207 8.43576 17.8347 8.8498 17.8347 9.35778ZM15.3002 13.5278C15.3002 12.1376 14.1791 11.0169 12.7948 11.0169C11.4051 11.0169 10.2835 12.1381 10.2835 13.5278C10.2835 14.912 11.4056 16.0332 12.7948 16.0332C14.1796 16.0332 15.3002 14.9115 15.3002 13.5278Z" fill="#393185"/>
</svg>
