<?xml version="1.0" encoding="UTF-8"?>
<!DOCTYPE svg PUBLIC "-//W3C//DTD SVG 1.1//EN" "http://www.w3.org/Graphics/SVG/1.1/DTD/svg11.dtd">
<!-- Creator: CorelDRAW 2020 (64-Bit) -->
<svg xmlns="http://www.w3.org/2000/svg" xml:space="preserve" width="121.913mm" height="45.591mm" version="1.1" style="shape-rendering:geometricPrecision; text-rendering:geometricPrecision; image-rendering:optimizeQuality; fill-rule:evenodd; clip-rule:evenodd"
viewBox="0 0 12191.3 4559.1"
 xmlns:xlink="http://www.w3.org/1999/xlink"
 xmlns:xodm="http://www.corel.com/coreldraw/odm/2003">
 <defs>
  <style type="text/css">
   <![CDATA[
    .str0 {stroke:#7C7EBB;stroke-width:5.29;stroke-miterlimit:22.9256}
    .str1 {stroke:#8283BE;stroke-width:5.29;stroke-miterlimit:22.9256}
    .str2 {stroke:#8889C1;stroke-width:5.29;stroke-miterlimit:22.9256}
    .str3 {stroke:#8E8FC5;stroke-width:5.29;stroke-miterlimit:22.9256}
    .str4 {stroke:#9494C8;stroke-width:5.29;stroke-miterlimit:22.9256}
    .str5 {stroke:#9A9ACC;stroke-width:5.29;stroke-miterlimit:22.9256}
    .str6 {stroke:#A0A0CF;stroke-width:5.29;stroke-miterlimit:22.9256}
    .str7 {stroke:#A7A6D3;stroke-width:5.29;stroke-miterlimit:22.9256}
    .str8 {stroke:#ADADD6;stroke-width:5.29;stroke-miterlimit:22.9256}
    .str9 {stroke:#B4B3DA;stroke-width:5.29;stroke-miterlimit:22.9256}
    .str10 {stroke:#BAB8DD;stroke-width:5.29;stroke-miterlimit:22.9256}
    .str11 {stroke:#BFBFE0;stroke-width:5.29;stroke-miterlimit:22.9256}
    .str12 {stroke:#C5C5E4;stroke-width:5.29;stroke-miterlimit:22.9256}
    .str13 {stroke:#CCCBE7;stroke-width:5.29;stroke-miterlimit:22.9256}
    .str14 {stroke:#D2D2EA;stroke-width:5.29;stroke-miterlimit:22.9256}
    .str15 {stroke:#D8D8ED;stroke-width:5.29;stroke-miterlimit:22.9256}
    .str16 {stroke:#DFDEF0;stroke-width:5.29;stroke-miterlimit:22.9256}
    .str17 {stroke:#E5E5F3;stroke-width:5.29;stroke-miterlimit:22.9256}
    .str18 {stroke:#EBEBF6;stroke-width:5.29;stroke-miterlimit:22.9256}
    .str19 {stroke:#F1F1F9;stroke-width:5.29;stroke-miterlimit:22.9256}
    .str20 {stroke:#F8F8FC;stroke-width:5.29;stroke-miterlimit:22.9256}
    .str21 {stroke:#FEFEFE;stroke-width:5.29;stroke-miterlimit:22.9256}
    .fil3 {fill:none;fill-rule:nonzero}
    .fil0 {fill:#393185}
    .fil4 {fill:#FEFEFE}
    .fil2 {fill:#393185;fill-rule:nonzero}
    .fil1 {fill:#393185;fill-opacity:0.501961}
   ]]>
  </style>
 </defs>
 <g id="Слой_x0020_1">
  <metadata id="CorelCorpID_0Corel-Layer"/>
  <g id="_1863659469904">
   <path class="fil0" d="M468.87 2984.4c144.56,158.27 409.87,287.34 741.13,384.36l0 -12.25c-331.98,-92.66 -598.26,-217.78 -741.13,-372.08l0 -0.03z"/>
   <path class="fil0" d="M514.09 2973.9c136.39,151.97 384.72,274.98 696.12,367.42l0 -12.35c-312.16,-88 -561.4,-206.96 -696.12,-355.07z"/>
   <path class="fil1" d="M455.38 2973.87c143.33,160.58 414.63,287.1 754.73,378.46l0 -13.71c-340.88,-86.44 -613.28,-208.38 -754.73,-364.75z"/>
   <path class="fil0" d="M218.93 158.33c-478.8,104.18 281.22,1307.71 710.16,1885.58 35.06,47.25 71.91,95.89 110.36,145.69l0 -104.64c-510.28,-675.61 -1236.1,-1784.87 -820.52,-1926.63 92.46,-4.67 167.89,10.87 297.39,70.09 160.36,73.34 629.92,468.09 815.07,609.84l0 -36.08c-113.92,-81.9 -517.67,-434.48 -625.76,-495.63 -204.83,-115.88 -352.46,-167.82 -486.7,-148.23l0 0.01zm2364.45 3686.5c265.68,230.76 530.45,429.44 776.14,568.45 204.82,115.89 352.45,167.83 486.7,148.22 312.66,-68.02 97.03,-604.86 -209.71,-1130.14l-61.54 0c325.89,529.3 543.48,1037.3 271.25,1130.14 -92.5,4.69 -167.9,-10.85 -297.42,-70.09 -267.75,-122.47 -583.56,-360.78 -902.41,-646.58l-63.01 0z"/>
   <path class="fil2" d="M2103.07 937.65l-8.34 -1.68 8.34 1.68zm-69.98 2508.08c119.96,-101.66 244.96,-171.64 359.96,-211.64 126.62,-43.31 251.65,-54.98 373.25,-41.67l0 -55.01c-236.63,-18.31 -461.58,43.34 -653.23,179.99l-78.33 61.68c-209.99,-179.97 -456.62,-263.29 -726.6,-241.67l0 55.01c121.61,-13.31 246.63,-1.64 373.31,41.67 86.66,29.97 173.3,76.65 263.3,139.99l88.33 66.65 0 5 0.01 0zm739.9 -488.32l0 -5c-1.69,-3.33 -1.69,-6.67 -1.69,-8.28 -1.67,-5 -1.67,-8.33 -3.28,-11.67 -3.33,-10 -10,-18.33 -20,-25 -10,-8.33 -26.67,-13.34 -46.7,-13.34l-28.29 0 0 -53.31c0,-3.33 1.67,-6.67 1.67,-8.33 1.67,-3.34 4.95,-5 9.95,-5l15 0c10,0 21.67,3.33 30.03,8.33 8.34,5 15,19.98 16.67,44.98l11.67 0 0 -66.65 -136.69 0 0 13.34 15.01 0c5,0 8.33,1.66 8.33,5 1.67,1.66 1.67,5 1.67,8.33l0 144.97c0,1.69 0,5 -1.67,8.33 0,1.67 -3.33,3.33 -8.33,3.33l-15.01 0 0 13.37 73.29 0 15.03 0 6.67 0c1.67,-1.7 5,-1.7 8.31,-1.7 11.69,-3.33 23.36,-8.33 33.36,-16.67 8.28,-6.66 13.28,-18.33 14.98,-35l0.02 -0.03zm0 -1226.52l0 -63.31c-223.29,-48.35 -438.31,-1.67 -648.24,121.62l-86.65 56.69 -88.34 -56.69c-210,-123.29 -424.99,-169.97 -646.63,-121.62l0 63.31c226.63,-43.3 438.3,11.67 646.63,126.67l85 51.64 0 1.67 3.34 -1.67 0 1.67 0 -1.67 86.65 -51.64c208.28,-115 419.92,-169.97 648.24,-126.67zm-791.59 -794.93l-1.67 0c-131.64,10.02 -258.3,54.98 -366.63,134.97l-29.98 23.34 11.68 13.34c26.63,30.02 54.97,58.3 86.66,79.99l28.3 18.33 13.33 -30c8.34,-18.35 20.02,-36.65 30.02,-53.32 63.32,-103.33 138.3,-164.96 218.28,-184.98l10.01 -1.68 0 0.01zm383.3 269.97l28.36 -18.33c31.63,-21.68 61.63,-49.97 86.66,-79.99l11.68 -13.34 -30.03 -23.34c-54.97,-39.97 -113.34,-71.65 -174.98,-93.27l-181.64 -40.02 113.32 61.63c36.64,30.03 71.65,71.65 103.29,123.34 11.67,16.67 21.66,34.97 30.01,53.32l13.33 30zm-348.29 71.65l0 -313.27 -1.65 0c-88.35,6.66 -174.98,64.97 -246.64,176.63 -10.01,16.63 -20.01,33.31 -28.36,51.66l-11.67 24.99 0 1.67c63.31,21.67 143.35,44.97 226.67,54.98l61.64 3.33 0.01 0.01zm30.03 1.67l24.95 0c83.32,-5 226.65,-33.3 274.96,-59.98l0 -1.67 -11.67 -24.99c-10,-18.35 -18.28,-35.03 -28.3,-49.97 -71.69,-113.34 -158.34,-171.66 -246.67,-178.33l-13.29 0 0 314.94 0.02 0zm719.86 321.66c-9.95,-100 -41.65,-198.32 -93.27,-291.66 -38.36,-69.97 -86.66,-130.02 -141.68,-181.66l-18.34 -16.66 -18.3 23.34c-24.99,28.3 -53.34,53.3 -81.69,74.98l-34.98 23.34 0 1.66c39.98,98.33 64.97,211.61 73.32,329.96l3.32 28.35 33.36 -5.01c91.66,-8.34 184.99,-3.33 278.26,13.34l0 0.02zm-1458.14 0c93.32,-16.66 186.65,-21.67 276.63,-13.33l36.64 5.01 1.67 -28.35c8.34,-118.35 33.35,-231.65 73.31,-329.96l0 -1.66 -34.97 -23.34c-28.35,-21.68 -56.64,-46.7 -81.66,-74.98l-18.34 -23.35 -18.34 16.67c-54.97,51.64 -103.33,111.67 -141.63,181.66 -51.69,93.33 -81.66,191.66 -93.33,291.66l0.02 -0.03zm708.25 139.97l0 -431.62 -24.99 -1.66c-106.68,-6.66 -191.66,-35.01 -274.99,-63.3l-1.65 1.67c-38.3,93.27 -63.32,199.93 -73.31,311.6l-1.68 38.35 36.7 6.63c91.66,18.33 183.31,51.68 271.64,98.32l68.29 40.03 -0.01 -0.02zm30.03 6.66l79.99 -46.68c89.99,-46.64 179.98,-79.99 271.63,-98.32l36.63 -6.64 -1.66 -38.34c-10.01,-111.67 -34.97,-218.33 -73.32,-311.61l-1.66 -1.66c-76.66,29.96 -154.96,49.97 -238.28,59.96l-73.32 5 0 438.29 -0.01 0zm299.92 538.29l21.68 -16.66c113.34,-98.34 174.98,-186.65 148.3,-233.3 -33.31,-60.03 -201.62,-31.68 -403.26,63.31l-31.68 15.01 50.02 26.68c73.31,43.3 139.96,88.28 198.26,133.29l16.67 11.67 0.01 0zm-611.58 0l16.66 -11.67c58.32,-45.01 124.96,-89.99 198.33,-133.29l51.65 -26.68 -31.69 -15.01c-203.27,-94.99 -371.58,-123.34 -404.94,-63.31 -25,46.65 36.68,134.96 149.98,233.3l20 16.66 0.01 0zm306.66 198.32l73.32 -40.02c64.96,-36.63 124.94,-76.65 179.96,-116.66l23.35 -18.29 -23.35 -18.33c-55.01,-40.01 -114.99,-79.99 -181.64,-118.32l-71.64 -38.31 -75.03 38.31c-64.98,38.34 -124.96,78.32 -178.33,118.32l-24.95 18.33 24.95 18.29c53.36,40.03 113.34,80.05 178.33,116.66l75.03 40.02zm399.93 129.98c38.35,-1.68 64.97,-11.67 74.97,-31.7 26.69,-46.63 -34.96,-136.62 -148.3,-233.29l-21.68 -16.67 -16.66 13.33c-58.3,45.02 -124.95,88.34 -198.26,130.02l-50.03 28.3 31.68 15c123.29,58.37 234.95,93.33 311.6,95.01l16.68 0zm-799.92 0l16.67 0c74.98,-1.68 186.66,-36.64 311.61,-95.01l31.69 -15 -51.65 -28.3c-73.36,-41.68 -140.01,-85 -198.33,-130.02l-16.66 -13.33 -20 16.67c-113.3,96.67 -174.98,186.66 -149.97,233.29 11.67,20.01 38.35,30.02 76.66,31.7l-0.02 0zm813.24 41.68c-96.66,-1.66 -239.94,-45.01 -396.63,-121.68l-16.62 -8.32 -18.34 8.32c-159.97,78.33 -306.67,121.68 -403.32,121.68 -54.97,0 -91.66,-13.33 -108.29,-43.36 -31.68,-56.64 34.98,-161.63 158.31,-271.63l36.64 -31.64 -36.64 -31.68c-123.33,-110 -189.99,-213.33 -158.31,-271.64 44.98,-79.99 261.65,-44.97 511.61,78.32l18.34 8.34 16.62 -8.34c250,-123.27 468.28,-158.3 511.65,-78.32 31.62,58.31 -33.36,161.64 -158.32,271.64l-36.68 31.68 36.68 31.64c124.96,110 189.94,214.99 158.32,271.63 -16.68,30.03 -56.7,45.03 -115.02,43.36zm-416.58 243.29c293.25,-163.3 531.6,-209.97 733.19,-173.3l0 -933.25c-218.27,-39.97 -449.94,18.34 -651.55,135.01l-81.65 53.32 -83.34 -53.32c-201.66,-116.65 -433.34,-174.97 -651.63,-135.01l0 933.25c201.67,-35.03 441.64,10 734.96,173.3l0.02 0zm-681.64 15.03l0 -76.68c0,-3.33 0,-5 1.67,-6.67 0,-1.66 1.67,-3.33 1.67,-3.33l1.67 0 15 0c16.66,0 28.35,3.33 35.02,13.33 5,8.29 9.99,19.95 9.99,29.98 0,13.34 -3.31,20 -8.32,26.7 -5,6.64 -10.01,9.97 -15,13.31 -1.67,0 -3.34,1.69 -6.68,1.69 -1.66,1.67 -1.66,1.67 -5,1.67l-6.67 0 -23.34 0 -0.01 0zm1328.18 83.31c-5,0 -8.26,-1.66 -9.95,-3.33 0,-3.33 -1.64,-6.67 -1.64,-8.33l0 -76.65 28.28 0 6.67 0c1.67,1.64 3.34,1.64 5,1.64 8.34,3.36 13.34,6.66 20.01,13.36 6.66,6.64 8.33,16.67 8.33,29.95 0,11.67 -1.67,21.67 -8.33,26.7 -6.67,6.66 -13.34,11.66 -20.01,15l-5 0c-1.66,1.66 -1.66,1.66 -3.33,1.66l-5 0 -15 0 -0.03 0zm-1303.18 16.67l0 -13.33 -13.33 0c-6.66,0 -10,-1.67 -10,-3.34 -1.67,-3.33 -1.67,-6.66 -1.67,-10l0 -59.98 26.69 0c20,0 33.35,-3.33 43.36,-10 9.95,-8.33 16.61,-15 19.94,-25 1.68,-3.34 1.68,-6.67 3.34,-11.67l0 -10c0,-23.29 -6.67,-38.31 -21.66,-46.65 -14.96,-6.67 -33.31,-11.67 -56.65,-11.67l-66.64 0 0 15.01 13.34 0c6.66,0 8.33,0 10,3.33 1.65,1.67 1.65,6.67 1.65,10l0 146.63c0,3.34 0,6.67 -1.65,10 -1.67,1.7 -3.34,3.34 -8.34,3.34l-15 0 0 13.36 76.65 0 -0.03 -0.03zm1189.9 15l0 -15 -15.01 0c-5,0 -8.33,-1.66 -10,-3.33l0 -8.34 0 -149.96 0 -6.67c1.67,-1.69 3.34,-1.69 6.67,-1.69l3.33 0c1.68,0 3.34,0 3.34,1.69 3.33,0 6.68,1.67 10.01,3.28 1.66,3.39 4.99,5.06 6.66,8.36 3.33,3.31 5.01,6.64 6.67,11.64 3.33,5.01 3.33,10.01 5,16.67 1.61,6.67 1.61,13.34 1.61,21.67l11.67 0 0 -74.98 -138.3 0 0 74.98 10.01 0c0,-10 1.66,-18.33 3.34,-25 1.65,-6.67 3.33,-13.34 6.65,-18.34 5,-9.94 11.67,-16.61 18.34,-18.28l4.96 -1.69 5 0c1.66,0 3.33,0 4.99,1.69 1.68,0 1.68,3.28 1.68,6.67l0 149.96c0,3.31 0,5.01 -1.68,8.34 0,1.67 -3.33,3.33 -9.99,3.33l-13.28 0 0 15 78.32 0 0.01 0zm-1026.59 26.62l0 -13.31 -13.33 0c-6.66,0 -10.01,-1.66 -10.01,-5 -1.66,-1.69 -1.66,-4.97 -1.66,-8.31l0 -70 8.34 0c10,0 16.66,3.33 18.34,10 1.66,3.33 3.32,6.66 5,11.67 0,5 1.66,10 1.66,16.66l10.01 0 0 -91.67 -10.01 0c0,5 -1.66,11.66 -1.66,16.66 -1.68,5.01 -3.34,10.03 -5,11.67 -3.34,6.7 -8.34,10.03 -18.34,10.03l-8.34 0 0 -63.37c0,-3.33 0,-5 1.66,-8.33 0,-3.34 5.01,-3.34 10.01,-3.34l26.7 0 4.99 0c1.67,0 5,1.67 8.33,3.34 5.01,3.33 10,10 13.33,18.33 5,6.67 6.68,20.01 10.01,35.04l10.01 0 0 -71.65 -138.36 0 0 14.94 15 0c5.01,0 10.01,0 10.01,3.34 1.66,1.67 1.66,5 1.66,8.33l0 148.35c0,3.34 -1.66,6.62 -1.66,8.29 -1.67,3.33 -5,5 -10.01,5l-15 0 0 13.33 78.32 0 0 0zm626.61 3.36l0 -74.98c0,-3.33 0,-5 1.67,-6.69 1.66,-1.65 1.66,-1.65 3.33,-1.65 0,-1.66 0,-1.66 1.66,-1.66l13.34 0c16.67,0 28.35,5 35.03,13.33 6.67,8.34 8.27,18.31 8.27,28.37 0,13.3 -1.6,21.61 -6.61,28.28 -4.99,5 -10.01,8.33 -15,11.67 -1.66,0 -3.33,0 -5.01,1.67l-4.99 0c-3.34,1.66 -5,1.66 -8.33,1.66l-23.35 0 -0.01 0zm189.99 33.34l0 -13.34 -15.02 0c-4.99,0 -8.32,-1.66 -10,-5 -1.67,-1.64 -1.67,-5 -1.67,-8.33l0 -69.98 75.04 0 0 69.98c0,3.33 0,6.69 -1.67,8.33 0,3.34 -5,5 -10,5l-15 0 0 13.34 78.32 0 0 -13.34 -13.34 0c-5.01,0 -10,-1.66 -10,-5 -1.67,-1.64 -1.67,-5 -1.67,-8.33l0 -143.3c0,-5 0,-6.67 1.67,-10 0,-1.67 4.99,-3.33 10,-3.33l13.34 0 0 -13.34 -78.32 0 0 13.34 15 0c6.66,0 10,1.66 10,3.33 1.67,3.33 1.67,5 1.67,10l0 58.32 -75.04 0 0 -58.32c0,-5 0,-6.67 1.67,-10 1.68,-1.67 5.01,-3.33 10,-3.33l15.02 0 0 -13.34 -78.33 0 0 13.34 13.34 0c6.66,0 9.99,1.66 9.99,3.33 1.67,3.33 1.67,5 1.67,10l0 143.3c0,3.33 0,6.69 -1.67,8.33 0,3.34 -3.33,5 -9.99,5l-13.34 0 0 13.34 78.33 0zm-619.94 10l0 -13.33 -13.34 0c-4.99,0 -8.32,-1.67 -10,-5 -1.66,-1.67 -1.67,-5.01 -1.67,-8.34l0 -153.3c0,-3.33 0.01,-5 1.67,-6.67 1.68,-1.66 3.34,-3.33 6.67,-3.33 1.68,0 1.68,0 3.33,1.67l3.35 0c3.33,1.66 6.66,3.33 8.32,5 3.35,3.33 5.02,5 8.34,8.33 1.67,3.34 3.33,6.67 6.68,11.67 1.66,5 3.32,11.62 4.99,16.62 0,6.66 1.67,13.33 1.67,23.33l11.67 0 0 -78.31 -140.02 0 0 78.31 11.67 0c0,-10 1.67,-18.33 3.33,-26.67 0,-6.69 3.33,-13.31 6.68,-18.31 4.99,-9.97 11.67,-16.67 18.33,-19.97l5.01 -1.67 3.33 0c3.33,0 4.99,1.67 6.66,1.67 1.67,1.64 1.67,3.3 1.67,8.3l0 153.3c0,3.34 0,6.7 -1.67,8.37 0,3.33 -5,5 -9.99,5l-13.34 0 0 13.33 76.65 0 0.01 0zm456.64 54.98l0 -13.33 -15 0c-5.01,0 -8.34,-1.67 -10.01,-5 0,-3.34 -1.67,-5 -1.67,-8.34l0 -58.29 26.69 0c20,0 35.03,-3.36 43.3,-11.69 10.01,-6.67 16.67,-15 20.01,-23.34 1.67,-3.33 3.33,-6.61 3.33,-11.61 0,-3.34 1.67,-6.67 1.67,-10 0,-21.67 -8.34,-36.7 -23.33,-43.37 -14.96,-8.33 -33.31,-11.67 -54.98,-11.67l-68.31 0 0 13.34 15 0c5,0 8.34,1.66 8.34,3.33 1.6,3.34 1.6,6.67 1.6,8.34l0 144.99c0,3.31 0,4.97 -1.6,8.33 0,3.34 -3.34,5 -8.34,5l-15 0 0 13.31 78.32 0 -0.02 0zm-344.97 0l0 -13.33 -13.33 0c-6.67,0 -10.01,-1.67 -10.01,-5 -1.66,-3.34 -1.66,-5 -1.66,-8.34l0 -41.64 23.34 -31.67 41.63 73.31 3.33 3.31 0 3.33c0,1.7 0,3.34 -1.65,3.34 0,1.69 -1.68,1.69 -1.68,1.69l-1.67 1.67 -18.33 0 0 13.3 80.04 0 0 -13.3 -3.34 0c-4.99,0 -9.99,-3.36 -14.99,-5 -5.01,-3.36 -8.35,-8.34 -11.67,-13.31l-53.32 -91.71 34.98 -46.62 3.33 -3.36c0,-1.64 1.66,-3.33 1.66,-3.33 3.35,-3.33 6.68,-5 11.67,-8.34 3.35,-1.64 8.34,-3.33 15.02,-3.33l3.33 0 0 -13.33 -68.32 0 0 13.33 13.28 0 1.67 1.69c1.68,0 3.34,0 5.01,1.64l0 3.34 0 5c0,0 -1.67,3.33 -3.33,5l-58.32 76.65 -1.66 0 0 -79.96c0,-3.36 1.66,-6.69 1.66,-10.03 0,-1.64 3.35,-3.33 10.01,-3.33l13.33 0 0 -13.33 -76.65 0 0 13.33 13.28 0c5,0 10.01,1.69 10.01,3.33 1.66,3.34 1.66,6.67 1.66,10.03l0 148.3c0,3.31 0,4.98 -1.66,8.34 0,3.33 -5.01,5 -10.01,5l-13.28 0 0 13.3 76.65 0 -0.01 0.03z"/>
   <path class="fil3 str0" d="M166.39 6.44c-92.09,0 -166.74,74.65 -166.74,166.74 0,92.09 74.65,166.75 166.74,166.75 92.09,0 166.75,-74.66 166.75,-166.75 0,-92.09 -74.66,-166.74 -166.75,-166.74z"/>
   <path class="fil3 str1" d="M166.39 14.28c-87.74,0 -158.89,71.15 -158.89,158.89 0,87.75 71.15,158.89 158.89,158.89 87.75,0 158.89,-71.14 158.89,-158.89 0,-87.74 -71.14,-158.89 -158.89,-158.89l0 0z"/>
   <path class="fil3 str2" d="M166.39 22.13c-83.41,0 -151.03,67.62 -151.03,151.03 0,83.41 67.62,151.03 151.03,151.03 83.41,0 151.03,-67.62 151.03,-151.03 0,-83.41 -67.62,-151.03 -151.03,-151.03z"/>
   <path class="fil3 str3" d="M166.44 30.01c-79.07,0 -143.18,64.11 -143.18,143.17 0,79.07 64.11,143.17 143.18,143.17 79.06,0 143.17,-64.1 143.17,-143.17 0,-79.06 -64.11,-143.17 -143.17,-143.17z"/>
   <path class="fil3 str4" d="M166.43 37.86c-74.72,0 -135.31,60.58 -135.31,135.31 0,74.72 60.58,135.32 135.31,135.32 74.72,0 135.31,-60.58 135.31,-135.32 0,-74.72 -60.58,-135.31 -135.31,-135.31z"/>
   <path class="fil3 str5" d="M166.48 45.74c-70.38,0 -127.45,57.07 -127.45,127.46 0,70.37 57.06,127.45 127.45,127.45 70.37,0 127.45,-57.07 127.45,-127.45 0,-70.38 -57.06,-127.46 -127.45,-127.46z"/>
   <path class="fil3 str6" d="M166.46 53.58c-66.04,0 -119.58,53.54 -119.58,119.59 0,66.04 53.54,119.58 119.58,119.58 66.05,0 119.58,-53.54 119.58,-119.58 0,-66.05 -53.53,-119.59 -119.58,-119.59z"/>
   <path class="fil3 str7" d="M166.51 61.43c-61.7,0 -111.72,50.03 -111.72,111.73 0,61.69 50.02,111.72 111.72,111.72 61.7,0 111.72,-50.03 111.72,-111.72 0,-61.7 -50.02,-111.73 -111.72,-111.73l0 0z"/>
   <path class="fil3 str8" d="M166.25 69.31c-57.35,0 -103.87,46.52 -103.87,103.87 0,57.35 46.52,103.86 103.87,103.86 57.35,0 103.86,-46.51 103.86,-103.86 0,-57.35 -46.51,-103.87 -103.86,-103.87z"/>
   <path class="fil3 str9" d="M166.3 77.16c-53.02,0 -96.01,42.99 -96.01,96.01 0,53.02 42.99,96 96.01,96 53.02,0 96,-42.98 96,-96 0,-53.02 -42.98,-96.01 -96,-96.01z"/>
   <path class="fil3 str10" d="M166.29 85.04c-48.67,0 -88.14,39.48 -88.14,88.15 0,48.67 39.47,88.15 88.14,88.15 48.68,0 88.15,-39.48 88.15,-88.15 0,-48.67 -39.47,-88.15 -88.15,-88.15z"/>
   <path class="fil3 str11" d="M166.33 92.92c-44.34,0 -80.28,35.94 -80.28,80.28 0,44.34 35.94,80.28 80.28,80.28 44.34,0 80.27,-35.94 80.27,-80.28 0,-44.34 -35.93,-80.28 -80.27,-80.28z"/>
   <path class="fil3 str12" d="M166.31 100.77c-39.99,0 -72.4,32.42 -72.4,72.41 0,39.99 32.42,72.4 72.4,72.4 40,0 72.41,-32.42 72.41,-72.4 0,-40 -32.43,-72.41 -72.41,-72.41z"/>
   <path class="fil3 str13" d="M166.36 108.62c-35.66,0 -64.55,28.9 -64.55,64.55 0,35.66 28.9,64.54 64.55,64.54 35.66,0 64.55,-28.89 64.55,-64.54 0,-35.67 -28.9,-64.55 -64.55,-64.55z"/>
   <path class="fil3 str14" d="M166.36 116.49c-31.32,0 -56.69,25.37 -56.69,56.69 0,31.32 25.37,56.69 56.69,56.69 31.31,0 56.68,-25.37 56.68,-56.69 0,-31.32 -25.37,-56.69 -56.68,-56.69z"/>
   <path class="fil3 str15" d="M166.4 124.34c-26.97,0 -48.83,21.86 -48.83,48.83 0,26.97 21.86,48.83 48.83,48.83 26.97,0 48.83,-21.86 48.83,-48.83 0,-26.97 -21.86,-48.83 -48.83,-48.83z"/>
   <path class="fil3 str16" d="M166.4 132.19c-22.63,0 -40.97,18.33 -40.97,40.97 0,22.63 18.33,40.97 40.97,40.97 22.63,0 40.97,-18.33 40.97,-40.97 0,-22.62 -18.33,-40.97 -40.97,-40.97z"/>
   <path class="fil3 str17" d="M166.45 140.07c-18.28,0 -33.11,14.82 -33.11,33.11 0,18.28 14.81,33.12 33.11,33.12 18.28,0 33.11,-14.82 33.11,-33.12 0,-18.28 -14.82,-33.11 -33.11,-33.11z"/>
   <path class="fil3 str18" d="M166.43 147.92c-13.95,0 -25.24,11.29 -25.24,25.24 0,13.95 11.29,25.24 25.24,25.24 13.95,0 25.24,-11.29 25.24,-25.24 0,-13.95 -11.29,-25.24 -25.24,-25.24z"/>
   <path class="fil3 str19" d="M166.48 155.8c-9.6,0 -17.38,7.78 -17.38,17.38 0,9.6 7.78,17.38 17.38,17.38 9.6,0 17.38,-7.78 17.38,-17.38 0,-9.6 -7.78,-17.38 -17.38,-17.38z"/>
   <path class="fil3 str20" d="M166.48 163.65c-5.27,0 -9.53,4.25 -9.53,9.52 0,5.27 4.26,9.53 9.53,9.53 5.27,0 9.52,-4.26 9.52,-9.53 0,-5.27 -4.25,-9.52 -9.52,-9.52z"/>
   <path class="fil4 str21" d="M166.27 171.53c-0.93,0 -1.67,0.74 -1.67,1.66 0,0.93 0.74,1.67 1.67,1.67 0.92,0 1.66,-0.74 1.66,-1.67 0,-0.92 -0.74,-1.66 -1.66,-1.66z"/>
   <path class="fil2" d="M3175.53 2169.09l-109.46 0 111.55 -528.91 216.06 0c38.55,0 68.9,4.55 91.23,13.54 22.43,8.99 40.16,23.88 53.18,44.69 13.02,20.81 19.58,45.68 19.58,74.49 0,26.72 -5.21,52.69 -15.61,77.93 -10.43,25.36 -23.18,45.55 -38.31,60.7 -15.11,15.14 -31.38,26.59 -48.85,34.48 -17.35,7.75 -40.77,13.66 -70.37,17.85 -17.12,2.33 -49.35,3.56 -96.45,3.56l-70.03 0 -42.52 201.67zm61.09 -290.31l33.71 0c57.76,0 96.34,-3.58 115.65,-10.72 19.34,-7.13 34.61,-18.58 45.75,-34.35 11.03,-15.76 16.61,-33.12 16.61,-51.95 0,-12.69 -2.85,-23.02 -8.57,-31.16 -5.69,-8.12 -13.6,-14.03 -23.89,-17.72 -10.29,-3.7 -33.23,-5.54 -68.79,-5.54l-78.48 0 -31.99 151.44zm325.49 290.31l111.58 -528.91 394.15 0 -18.58 88.65 -284.98 0 -26.14 119.66 276.15 0 -18.6 88.66 -277.02 0 -31.49 143.31 309.27 0 -18.6 88.64 -415.74 0 0 -0.01zm881.3 -189.85l110.07 16.61c-21.43,59.22 -53.79,104.53 -96.81,135.81 -42.89,31.39 -93.32,47.03 -151.08,47.03 -64.95,0 -115.78,-19.45 -152.34,-58.48 -36.57,-39.03 -54.91,-95.66 -54.91,-169.9 0,-60.2 12.25,-115.23 36.81,-165.22 24.52,-49.99 58.5,-88.28 102.13,-114.74 43.52,-26.48 90.88,-39.76 142.05,-39.76 57.65,0 104.14,15.38 139.73,46.04 35.56,30.78 56.38,72.51 62.7,125.57l-104.88 10.1c-5.79,-30.92 -16.96,-53.19 -33.47,-67.1 -16.45,-13.91 -38.41,-20.8 -65.93,-20.8 -30.11,0 -58.26,9.1 -84.4,27.46 -26.17,18.35 -46.99,47.03 -62.6,86.07 -15.75,38.9 -23.55,77.81 -23.55,116.7 0,42.48 10.16,75.35 30.51,98.49 20.29,23.15 45.72,34.73 75.96,34.73 28.28,0 54.05,-9.11 77.47,-27.45 23.55,-18.23 41.03,-45.32 52.57,-81.15l-0.03 -0.01zm264.16 -339.08l423.18 0 -111.44 528.92 -109.44 0 92.82 -440.27 -204.5 0 -92.73 440.27 -109.46 0 111.57 -528.92zm488.37 0l123.09 0 68.29 269.26 183.83 -269.26 120.22 0 -325.22 446.19c-27.78,37.19 -51.46,61.68 -70.78,73.37 -19.47,11.7 -42.41,17.48 -68.92,17.48 -28.89,0 -52.2,-2.71 -70.27,-8.01l13.38 -83.84c16.46,3.07 30.51,4.67 42.15,4.67 13.87,0 28.6,-2.7 44.24,-8.23 15.61,-5.55 35.08,-27.35 58.39,-65.38l-118.37 -376.25 -0.03 0zm642.33 88.66l-23.55 112.28 88.88 0c55.06,0 96.44,4.55 124.22,13.66 27.75,9.23 49.08,25.99 64.08,50.35 14.84,24.5 22.28,53.06 22.28,85.69 0,51.72 -18.34,94.45 -54.9,127.94 -36.7,33.6 -90.62,50.35 -161.87,50.35l-260.7 0 111.58 -528.91 382.5 0 -20.32 88.65 -272.17 0 -0.03 -0.01zm-73.87 353.84l109.83 0c31.99,0 55.9,-2.1 71.75,-6.29 15.88,-4.3 29.77,-13.41 41.65,-27.33 12.04,-14.03 17.96,-30.66 17.96,-49.86 0,-16.86 -4.68,-31.16 -13.99,-42.84 -9.42,-11.7 -21.67,-19.34 -36.94,-22.78 -15.24,-3.57 -38.28,-5.29 -69.16,-5.29l-88.87 0 -32.26 154.39 0.03 0zm551.47 -442.5l365.15 0 -111.41 528.92 -109.46 0 92.87 -440.27 -146.42 0 -59.11 279.84c-7.2,33.25 -16.72,63.29 -28.52,90.01 -11.78,26.84 -27.02,46.66 -45.86,59.46 -18.83,12.67 -43.76,19.08 -74.87,19.08 -20.83,0 -45.25,-2.71 -73.11,-8.12l19.32 -90.01c19.21,2.83 30.61,4.32 34.23,4.32 30.11,0 50.2,-26 60.22,-78.07 0.51,-2.95 0.98,-5.9 1.75,-8.99l75.22 -356.18 0 0.01zm476.73 0l101.75 0 -69.17 327.99 288.19 -327.99 102.02 0 -110.07 528.92 -103 0 69.9 -331.57 -290.18 331.57 -101.02 0 111.58 -528.92zm534.84 0l108.08 0 -47.33 224.57c20.8,0 36.94,-4.31 48.45,-12.81 11.4,-8.61 29.26,-33.37 53.41,-74.6 25.7,-43.58 45.51,-73.5 59.38,-89.99 13.99,-16.5 29.76,-28.57 47.36,-35.96 17.59,-7.51 44.26,-11.21 79.82,-11.21l29.37 0 -24.02 79.3 -17.73 0c-13.39,0 -23.68,2.22 -30.88,6.52 -7.06,4.31 -15.21,14.9 -24.52,31.77 -28.9,52.58 -51.81,88.03 -69.03,106.38 -17.23,18.21 -35.96,29.92 -56.28,34.96 36.33,11.7 60.62,43.47 73.13,95.3 0.74,2.83 1.24,5.66 1.48,8.5l48.1 166.2 -112.55 0 -44.98 -163.62c-0.5,-1.97 -4.74,-13.54 -12.41,-34.73 -10.05,-20.43 -31.38,-30.9 -63.84,-31.39l-48.47 229.74 -108.09 0 111.58 -528.91 -0.03 -0.02zm694.14 412.21l-211.22 0 -64.43 116.71 -113.56 0 300.6 -528.92 123.82 0 86.04 528.92 -103.87 0 -17.36 -116.71 -0.02 0zm-13.13 -88.66l-31.61 -212.73 -117.51 212.73 149.12 0zm356.5 -323.55l365.15 0 -111.41 528.92 -109.46 0 92.84 -440.27 -146.39 0 -59.11 279.84c-7.2,33.25 -16.72,63.29 -28.52,90.01 -11.78,26.84 -27.04,46.66 -45.85,59.46 -18.84,12.67 -43.77,19.08 -74.88,19.08 -20.82,0 -45.24,-2.71 -73.13,-8.12l19.34 -90.01c19.21,2.83 30.61,4.32 34.21,4.32 30.14,0 50.22,-26 60.25,-78.07 0.47,-2.95 0.97,-5.9 1.74,-8.99l75.22 -356.18 0 0.01zm993.62 0l108.56 0 -110.68 528.92 -109.43 0 111.55 -528.92zm-518.37 0l107.81 0 -41.64 200.94 86.89 0c56.67,0 99.3,5.05 127.82,15.02 28.63,9.96 49.82,26.72 63.58,50.23 13.76,23.63 20.69,52.07 20.69,85.57 0,54.41 -18.95,97.5 -57.02,129.39 -37.94,31.91 -90.99,47.78 -159.15,47.78l-260.56 0 111.58 -528.91 0 -0.02zm16.11 442.5l109.43 0c55.91,0 91.87,-8.86 107.48,-26.73 15.74,-17.85 23.54,-36.82 23.54,-56.75 0,-16.5 -4.57,-30.53 -13.62,-42.23 -9.08,-11.57 -21.09,-19.32 -35.96,-23.02 -15,-3.82 -38.81,-5.66 -71.41,-5.66l-87.5 0 -31.99 154.39 0.03 0zm1108.39 -442.5l-23.92 79.06 -17.85 0c-14.85,0 -26.28,2.95 -34.35,8.99 -6.06,4.91 -13.12,14.63 -21.06,29.3 -22.41,40.99 -39.16,68.81 -50.19,83.6 -23.92,32.26 -48.97,51.71 -75.12,58.23 36.44,11.45 60.49,43.22 72.37,95.05 0.77,3.32 1.51,6.16 2.25,8.25l24.66 77.82 42.14 0 -50.56 234.9 -89 0 31.48 -146.26 -23.41 0 -44.64 -163.74c-2.35,-8.61 -6.69,-20.19 -12.75,-34.61 -8.81,-20.42 -29.5,-30.9 -61.99,-31.39l-49.45 229.74 -109.44 0 113.64 -528.91 109.46 0 -48.21 224.56c25.4,0 46.23,-8.86 62.6,-26.72 6.54,-7.01 19.45,-27.22 38.66,-60.69 21.7,-37.31 36.19,-61.06 43.76,-71.41 19.95,-27.22 40.64,-45.43 62.1,-54.54 17.49,-7.51 44.13,-11.2 79.59,-11.2l29.26 0 -0.03 -0.03zm-6391.39 825.25l-18.84 88.66 -285.83 0 -30.38 141.83 107.45 0 -14.5 67.2 -107.34 0 -49.58 231.25 -107.45 0 49.32 -231.25 -60.49 0 14.5 -67.2 60.62 0 49.34 -230.49 393.18 0zm578.48 0l108.59 0 -110.71 528.91 -109.45 0 111.57 -528.91zm-518.37 0l107.82 0 -41.62 200.93 86.86 0c56.67,0 99.3,5.06 127.82,15.03 28.63,9.95 49.82,26.73 63.58,50.22 13.76,23.63 20.69,52.07 20.69,85.57 0,54.42 -18.97,97.52 -57.02,129.4 -37.91,31.91 -90.99,47.79 -159.14,47.79l-260.57 0 111.58 -528.92 0 -0.02zm16.11 442.5l109.43 0c55.91,0 91.87,-8.86 107.48,-26.72 15.74,-17.86 23.55,-36.83 23.55,-56.76 0,-16.51 -4.58,-30.53 -13.66,-42.22 -9.02,-11.59 -21.03,-19.35 -35.93,-23.02 -15,-3.84 -38.81,-5.67 -71.38,-5.67l-87.53 0 -31.98 154.39 0.02 0zm763.3 -442.5l365.15 0 -111.42 528.91 -109.45 0 92.84 -440.27 -146.4 0 -59.1 279.86c-7.2,33.23 -16.73,63.28 -28.53,90.01 -11.77,26.83 -27.01,46.64 -45.85,59.45 -18.84,12.67 -43.76,19.07 -74.88,19.07 -20.82,0 -45.24,-2.69 -73.1,-8.12l19.31 -90.01c19.21,2.83 30.62,4.31 34.22,4.31 30.13,0 50.19,-25.98 60.24,-78.05 0.5,-2.96 0.98,-5.9 1.75,-8.99l75.22 -356.18 0 0.01zm993.61 0l108.59 0 -110.7 528.91 -109.43 0 111.54 -528.91zm-518.37 0l107.85 0 -41.67 200.93 86.88 0c56.68,0 99.3,5.06 127.82,15.03 28.63,9.95 49.83,26.73 63.58,50.22 13.76,23.63 20.69,52.07 20.69,85.57 0,54.42 -18.97,97.52 -57.01,129.4 -37.92,31.91 -90.99,47.79 -159.15,47.79l-260.56 0 111.57 -528.92 0 -0.02zm16.12 442.5l109.43 0c55.9,0 91.86,-8.86 107.47,-26.72 15.74,-17.86 23.55,-36.83 23.55,-56.76 0,-16.51 -4.58,-30.53 -13.63,-42.22 -9.05,-11.59 -21.06,-19.35 -35.95,-23.02 -15.01,-3.84 -38.82,-5.67 -71.41,-5.67l-87.5 0 -31.99 154.39 0.03 0zm923.92 86.44l-104.11 0 -19.69 -441.88 -84.43 441.88 -98.79 0 111.44 -528.92 156.18 0 16.36 363.55 167.45 -363.55 157.53 0 -97.05 528.92 -99.29 0 92.6 -438.81 -198.2 438.81 0 0zm424.68 -528.92l101.76 0 -69.16 327.99 288.18 -327.99 102.03 0 -110.07 528.92 -103 0 69.9 -331.58 -290.17 331.58 -101.04 0 111.57 -528.92zm441.88 288.84l202.29 0 -20.08 99.72 -202.29 0 20.08 -99.72zm460 240.08l-109.46 0 92.84 -440.27 -156.31 0 17.86 -88.65 419.44 0 -17.83 88.65 -153.7 0 -92.84 440.27zm222.59 0l111.58 -528.91 394.17 0 -18.6 88.65 -284.95 0 -26.17 119.66 276.17 0 -18.6 88.66 -277.02 0 -31.48 143.3 309.24 0 -18.6 88.66 -415.74 0 0 -0.02zm585.58 0l-142.29 0 235 -266.67 -132.37 -262.24 114.27 0 52.2 96.65c1.72,3.57 13.6,27.34 35.83,71.41 1.35,2.34 2.96,5.41 4.68,9.48 29.13,-34.98 53.69,-63.53 73.5,-85.83l82.95 -91.72 139.3 0 -243.31 277.86 131.02 251.06 -123.45 0 -40.91 -77.1c-21.19,-40.75 -35.32,-69.93 -42.28,-87.66 -9.28,13.79 -33.2,42.12 -71.86,85.22l-72.28 79.54 0 0zm773.22 -236.38l-206.64 0 -49.82 236.38 -109.46 0 111.55 -528.91 109.32 0 -42.99 203.89 206.74 0 43.02 -203.89 109.33 0 -111.44 528.91 -109.46 0 49.85 -236.38zm282.73 -292.54l101.76 0 -69.14 327.99 288.19 -327.99 102.02 0 -110.07 528.92 -103.02 0 69.93 -331.58 -290.2 331.58 -101.02 0 111.55 -528.92zm534.88 0l108.08 0 -47.36 224.57c20.83,0 36.97,-4.31 48.48,-12.81 11.4,-8.62 29.26,-33.39 53.42,-74.61 25.66,-43.58 45.48,-73.49 59.37,-89.99 13.99,-16.5 29.74,-28.57 47.36,-35.96 17.59,-7.51 44.24,-11.2 79.82,-11.2l29.37 0 -24.02 79.29 -17.73 0c-13.39,0 -23.68,2.22 -30.88,6.52 -7.06,4.31 -15.21,14.9 -24.52,31.77 -28.9,52.58 -51.81,88.04 -69.03,106.38 -17.23,18.2 -35.96,29.92 -56.28,34.95 36.33,11.7 60.62,43.47 73.13,95.3 0.74,2.84 1.22,5.67 1.48,8.5l48.1 166.21 -112.55 0 -44.98 -163.62c-0.53,-1.96 -4.73,-13.55 -12.43,-34.74 -10.03,-20.43 -31.36,-30.88 -63.82,-31.38l-48.47 229.74 -108.09 0 111.58 -528.91 -0.03 -0.01zm694.14 412.21l-211.22 0 -64.45 116.71 -113.54 0 300.6 -528.92 123.82 0 86.02 528.92 -103.85 0 -17.36 -116.71 -0.02 0zm-13.13 -88.66l-31.64 -212.74 -117.48 212.74 149.12 0zm356.5 -323.55l365.15 0 -111.41 528.92 -109.46 0 92.84 -440.28 -146.39 0 -59.11 279.84c-7.2,33.25 -16.75,63.28 -28.52,90.01 -11.78,26.85 -27.04,46.67 -45.88,59.45 -18.81,12.67 -43.74,19.07 -74.85,19.07 -20.82,0 -45.24,-2.69 -73.13,-8.09l19.34 -90.01c19.21,2.83 30.61,4.31 34.21,4.31 30.14,0 50.19,-26.01 60.25,-78.08 0.47,-2.94 0.97,-5.9 1.72,-8.97l75.24 -356.19 0 0.02zm993.61 0l108.56 0 -110.68 528.92 -109.43 0 111.55 -528.92zm-518.36 0l107.82 0 -41.65 200.94 86.89 0c56.67,0 99.3,5.03 127.78,15 28.66,9.98 49.85,26.73 63.61,50.25 13.76,23.62 20.69,52.07 20.69,85.56 0,54.4 -18.97,97.5 -57.02,129.38 -37.94,31.91 -90.98,47.79 -159.14,47.79l-260.56 0 111.58 -528.91 0 -0.01zm16.08 442.48l109.46 0c55.91,0 91.87,-8.84 107.48,-26.72 15.74,-17.84 23.54,-36.81 23.54,-56.76 0,-16.48 -4.6,-30.53 -13.62,-42.22 -9.08,-11.57 -21.09,-19.32 -35.96,-23.02 -15,-3.81 -38.81,-5.67 -71.41,-5.67l-87.5 0 -31.99 154.39 0 0zm1108.41 -442.48l-23.94 79.05 -17.83 0c-14.87,0 -26.3,2.95 -34.35,8.99 -6.06,4.92 -13.15,14.63 -21.06,29.3 -22.41,41 -39.16,68.81 -50.19,83.6 -23.92,32.25 -48.97,51.7 -75.11,58.24 36.43,11.43 60.48,43.2 72.36,95.03 0.74,3.34 1.51,6.17 2.25,8.26l24.66 77.81 42.15 0 -50.59 234.93 -88.98 0 31.48 -146.27 -23.44 0 -44.61 -163.75c-2.35,-8.62 -6.69,-20.18 -12.78,-34.6 -8.78,-20.43 -29.5,-30.91 -61.96,-31.41l-49.45 229.76 -109.46 0 113.66 -528.92 109.46 0 -48.21 224.57c25.4,0 46.23,-8.86 62.58,-26.72 6.56,-7.01 19.45,-27.23 38.68,-60.7 21.7,-37.31 36.2,-61.06 43.76,-71.41 19.93,-27.21 40.64,-45.43 62.1,-54.54 17.46,-7.5 44.13,-11.2 79.59,-11.2l29.26 0 -0.03 -0.02zm-9012.51 825.25l108.09 0 -47.36 224.58c20.82,0 36.93,-4.31 48.47,-12.81 11.4,-8.62 29.26,-33.39 53.42,-74.61 25.66,-43.58 45.51,-73.5 59.37,-89.98 14.02,-16.51 29.77,-28.58 47.36,-35.99 17.6,-7.48 44.24,-11.19 79.83,-11.19l29.39 0 -24.05 79.3 -17.73 0c-13.38,0 -23.65,2.22 -30.87,6.53 -7.04,4.29 -15.24,14.9 -24.53,31.75 -28.87,52.6 -51.81,88.06 -69.03,106.39 -17.23,18.21 -35.96,29.93 -56.28,34.95 36.33,11.7 60.62,43.47 73.13,95.31 0.74,2.83 1.25,5.66 1.48,8.49l48.11 166.21 -112.56 0 -44.98 -163.62c-0.5,-1.98 -4.73,-13.54 -12.41,-34.74 -10.02,-20.42 -31.35,-30.9 -63.84,-31.38l-48.47 229.74 -108.06 0 111.55 -528.93 -0.03 0zm340.39 528.9l111.55 -528.9 109.33 0 -111.45 528.9 -109.43 0zm442.75 0l-109.45 0 92.84 -440.26 -156.29 0 17.83 -88.64 419.47 0 -17.86 88.64 -153.69 0 -92.85 440.26zm543.54 -116.7l-211.19 0 -64.48 116.7 -113.53 0 300.59 -528.9 123.82 0 86.05 528.9 -103.9 0 -17.36 -116.7 0 0zm-13.12 -88.64l-31.62 -212.75 -117.5 212.75 149.12 0zm294.74 -323.56l423.2 0 -111.44 528.9 -109.46 0 92.84 -440.26 -204.52 0 -92.71 440.26 -109.46 0 111.55 -528.9zm512.08 528.9l-142.32 0 235.03 -266.64 -132.4 -262.26 114.3 0 52.17 96.65c1.72,3.58 13.63,27.34 35.83,71.42 1.37,2.32 2.96,5.39 4.71,9.47 29.13,-34.98 53.66,-63.53 73.5,-85.83l82.92 -91.71 139.33 0 -243.31 277.87 130.99 251.03 -123.42 0 -40.91 -77.07c-21.19,-40.77 -35.35,-69.93 -42.28,-87.68 -9.29,13.81 -33.23,42.12 -71.89,85.22l-72.25 79.53 0 0zm755.83 -116.7l-211.19 0 -64.45 116.7 -113.53 0 300.56 -528.9 123.83 0 86.04 528.9 -103.88 0 -17.35 -116.7 -0.03 0zm-13.1 -88.64l-31.64 -212.75 -117.5 212.75 149.14 0zm567.56 -31.03l-206.61 0 -49.85 236.37 -109.43 0 111.55 -528.9 109.32 0 -43.02 203.89 206.75 0 43.02 -203.89 109.32 0 -111.41 528.9 -109.46 0 49.82 -236.37zm519.74 119.67l-211.22 0 -64.45 116.7 -113.52 0 300.55 -528.9 123.83 0 86.04 528.9 -103.87 0 -17.36 -116.7 0 0zm-13.15 -88.67l-31.59 -212.72 -117.5 212.72 149.09 0z"/>
  </g>
 </g>
</svg>
