<svg width="557" height="320" viewBox="0 0 557 320" fill="none" xmlns="http://www.w3.org/2000/svg">
<path fill-rule="evenodd" clip-rule="evenodd" d="M126.868 237.21C135.288 230.193 144.034 225.358 152.165 222.611C160.999 219.539 169.705 218.779 178.213 219.683V215.921C161.676 214.596 145.983 218.902 132.506 228.362L127.008 232.568C112.378 220.123 95.0887 214.397 76.1076 215.922L76.1093 219.681C84.7162 218.778 93.4161 219.539 102.255 222.611C108.359 224.661 114.485 227.837 120.731 232.287L126.868 236.942V237.21L126.868 237.21ZM114.337 217.215V216.276H113.369C112.957 216.276 112.696 216.197 112.667 216.009C112.564 215.801 112.563 215.632 112.563 215.424L112.564 212.555L114.183 210.348L117.15 215.368L117.306 215.629C117.306 215.724 117.35 215.779 117.35 215.922C117.35 216.009 117.306 216.096 117.254 216.132C117.22 216.194 117.097 216.228 117.069 216.228C117.038 216.275 116.985 216.275 116.936 216.275H115.759V217.214H121.319V216.275H121.038C120.683 216.275 120.327 216.132 120.063 215.953C119.718 215.724 119.46 215.424 119.227 215.002L115.525 208.65L117.929 205.43L118.162 205.236C118.174 205.109 118.298 205.057 118.326 204.977C118.558 204.807 118.792 204.612 119.055 204.48C119.367 204.3 119.718 204.249 120.128 204.249H120.395V203.297H115.581V204.249H116.54L116.7 204.3C116.809 204.335 116.895 204.337 116.936 204.373C117.037 204.479 117.037 204.567 117.037 204.683C117.037 204.807 117.037 204.835 116.985 204.977C116.937 205.055 116.895 205.208 116.764 205.376L112.667 210.684H112.564V205.108C112.564 204.881 112.615 204.682 112.667 204.48C112.729 204.335 112.957 204.249 113.368 204.249H114.337V203.297H108.902V204.249H109.903C110.261 204.249 110.521 204.336 110.586 204.48C110.654 204.666 110.711 204.882 110.711 205.108V215.423C110.711 215.629 110.654 215.802 110.586 216.009C110.521 216.194 110.26 216.275 109.903 216.275H108.902V217.214H114.337L114.337 217.215ZM138.444 217.198V216.276H137.425C137.025 216.276 136.802 216.197 136.683 216.009C136.68 215.801 136.623 215.632 136.623 215.424V211.36H138.463C139.827 211.36 140.87 211.095 141.537 210.589C142.205 210.084 142.687 209.523 142.956 208.977C143.026 208.698 143.133 208.427 143.16 208.146C143.163 207.885 143.202 207.688 143.202 207.46C143.202 205.924 142.687 204.93 141.582 204.374C140.551 203.865 139.27 203.597 137.736 203.597L132.999 203.594V204.516H133.981C134.365 204.516 134.601 204.612 134.666 204.807C134.767 204.977 134.766 205.177 134.766 205.387L134.767 215.424C134.767 215.629 134.725 215.802 134.666 216.009C134.603 216.194 134.364 216.275 133.981 216.275H132.999V217.198H138.444V217.198ZM106.52 213.442V212.466H105.548C105.164 212.466 104.922 212.369 104.834 212.19C104.753 212.021 104.753 211.795 104.753 211.585V200.989C104.753 200.742 104.786 200.574 104.886 200.473C104.924 200.345 105.047 200.297 105.276 200.297C105.391 200.297 105.446 200.297 105.526 200.345C105.59 200.345 105.702 200.345 105.791 200.378C106.008 200.471 106.238 200.573 106.39 200.743C106.604 200.902 106.776 201.07 106.944 201.301C107.083 201.527 107.234 201.767 107.41 202.129C107.597 202.434 107.684 202.873 107.785 203.299C107.814 203.735 107.861 204.25 107.861 204.835H108.741V199.473H98.9421V204.835H99.7349C99.7349 204.149 99.8217 203.565 99.9426 203.024C100.008 202.543 100.195 202.097 100.385 201.715C100.78 201.036 101.29 200.574 101.744 200.378L102.035 200.297H102.311C102.489 200.297 102.676 200.345 102.745 200.433C102.865 200.508 102.913 200.656 102.913 200.99L102.915 211.585C102.915 211.795 102.866 212.022 102.745 212.19C102.697 212.367 102.439 212.468 102.034 212.468L101.081 212.466V213.442H106.52L106.52 213.442ZM149.867 212.698V211.79H148.902C148.455 211.79 148.215 211.668 148.13 211.521C148.062 211.36 148.061 211.131 148.061 210.919L148.062 205.992H153.322V210.919C153.322 211.131 153.282 211.319 153.173 211.521C153.155 211.668 152.879 211.79 152.429 211.79H151.487V212.698H156.929V211.79H155.982C155.574 211.79 155.312 211.668 155.262 211.521C155.207 211.315 155.195 211.131 155.195 210.919V200.902C155.195 200.655 155.207 200.473 155.262 200.297C155.337 200.099 155.573 200.007 155.982 200.007L156.929 200.006V199.104H151.487V200.006H152.432C152.88 200.006 153.154 200.099 153.173 200.297C153.284 200.472 153.322 200.656 153.322 200.902V205.056H148.062V200.902C148.062 200.655 148.061 200.473 148.13 200.297C148.215 200.099 148.455 200.007 148.837 200.007L149.867 200.006V199.104H144.367V200.006H145.38C145.773 200.006 146.007 200.099 146.107 200.297C146.165 200.472 146.183 200.657 146.183 200.902L146.186 210.92C146.186 211.131 146.164 211.319 146.052 211.521C146.009 211.668 145.77 211.79 145.38 211.79H144.367V212.699H149.867V212.698ZM136.623 210.381V205.175C136.623 204.978 136.623 204.836 136.683 204.751C136.806 204.667 136.852 204.612 136.903 204.612C136.955 204.568 136.955 204.516 137.024 204.516H137.969C139.212 204.516 139.991 204.836 140.448 205.432C140.898 206.02 141.067 206.742 141.067 207.461C141.068 208.327 140.935 208.926 140.593 209.345C140.265 209.753 139.918 209.969 139.516 210.152C139.385 210.221 139.246 210.251 139.143 210.31C139.022 210.349 138.877 210.35 138.772 210.35C138.601 210.381 138.444 210.383 138.195 210.383L136.623 210.381L136.623 210.381ZM92.7319 210.221V209.256H91.7403C91.3399 209.256 91.125 209.117 91.0848 208.978C90.9845 208.788 90.9234 208.592 90.9234 208.329L90.9247 203.472H91.5311C92.251 203.472 92.7006 203.7 92.8812 204.151C93.0128 204.432 93.0978 204.683 93.147 205.022C93.2127 205.375 93.2544 205.698 93.2544 206.177L94.0341 206.174V199.793H93.2576C93.2576 200.198 93.21 200.605 93.147 200.991C93.0633 201.3 92.9813 201.607 92.8812 201.802C92.6454 202.267 92.2495 202.503 91.5297 202.503L90.9246 202.502V198.12C90.9246 197.838 90.9844 197.691 91.0847 197.481C91.1249 197.261 91.3861 197.214 91.7402 197.214H93.6863C93.7668 197.214 93.8938 197.261 93.958 197.261C94.1403 197.32 94.3597 197.413 94.5927 197.543C94.899 197.758 95.2409 198.169 95.5545 198.734C95.8279 199.263 96.0278 200.16 96.1772 201.24H96.9406V196.178H87.2833V197.214H88.2842C88.6725 197.214 88.9532 197.261 89.0072 197.481C89.0877 197.619 89.0877 197.838 89.0877 198.12V208.327C89.0877 208.571 89.0427 208.79 89.0072 208.978C88.8997 209.117 88.6725 209.256 88.2825 209.256H87.2833V210.221H92.7316H92.7319ZM164.554 208.327V207.357H163.616C163.214 207.357 162.924 207.258 162.867 207.076C162.865 206.903 162.803 206.742 162.803 206.482L162.805 196.158C162.805 195.917 162.863 195.76 162.867 195.674C162.992 195.548 163.112 195.486 163.347 195.486C163.434 195.486 163.483 195.486 163.539 195.498C163.64 195.548 163.741 195.55 163.841 195.606C164.054 195.674 164.255 195.769 164.464 195.917C164.657 196.059 164.812 196.254 164.957 196.449C165.169 196.663 165.289 196.94 165.424 197.261C165.604 197.586 165.71 197.981 165.79 198.391C165.865 198.852 165.89 199.37 165.89 199.927H166.724V194.685H156.968V199.927H157.778C157.778 199.259 157.833 198.635 157.976 198.169C158.067 197.691 158.217 197.261 158.411 196.887C158.829 196.178 159.279 195.769 159.769 195.606L160.076 195.486H160.361C160.566 195.486 160.685 195.498 160.811 195.606C160.908 195.689 160.906 195.879 160.906 196.159L160.908 206.481C160.908 206.738 160.906 206.904 160.811 207.076C160.768 207.258 160.497 207.357 160.075 207.357H159.167V208.327H164.554V208.327ZM81.3142 207.324V206.334H80.3313C79.9281 206.334 79.6771 206.32 79.6458 206.116C79.5773 205.924 79.5175 205.698 79.5175 205.479L79.5188 201.34H81.3723C82.7853 201.34 83.7889 201.071 84.4579 200.574C85.121 200.066 85.566 199.527 85.8633 198.917C85.9321 198.633 86.0037 198.364 86.068 198.12C86.1054 197.823 86.1054 197.588 86.1054 197.348C86.1054 195.769 85.566 194.766 84.5133 194.181C83.4558 193.627 82.1744 193.352 80.6377 193.352H75.8687V194.34H76.8544C77.2786 194.34 77.4625 194.413 77.5639 194.618C77.6267 194.766 77.6641 195.021 77.6641 195.244V205.477C77.6641 205.698 77.6641 205.925 77.5639 206.116C77.4653 206.317 77.2787 206.335 76.9083 206.335L75.8687 206.334V207.324H81.3142V207.324ZM173.298 207.074L174.248 207.046H174.748C174.914 207.003 175.122 207.003 175.316 206.947C176.173 206.776 176.935 206.382 177.655 205.841C178.346 205.298 178.684 204.374 178.684 203.146C178.684 202.912 178.624 202.673 178.624 202.435C178.553 202.162 178.503 201.897 178.423 201.668C178.163 200.989 177.655 200.433 176.966 199.875C176.261 199.313 175.171 199.032 173.676 199.032L171.788 199.031V195.255C171.788 195.026 171.823 194.865 171.867 194.686C171.957 194.479 172.201 194.413 172.607 194.413L173.542 194.409C174.348 194.409 175.083 194.618 175.701 194.952C176.338 195.255 176.745 196.293 176.866 198.028H177.685V193.488H168.108V194.409H169.14C169.539 194.409 169.75 194.481 169.784 194.686C169.858 194.865 169.858 195.028 169.858 195.255V205.298C169.858 205.511 169.858 205.697 169.784 205.885C169.751 206.02 169.484 206.177 169.137 206.177L168.108 206.174V207.074H173.299L173.298 207.074ZM172.607 206.174C172.202 206.174 171.956 206.02 171.867 205.885C171.826 205.698 171.787 205.511 171.787 205.301L171.788 200.006H173.709C173.83 200.006 173.973 200.007 174.133 200.068C174.335 200.099 174.444 200.159 174.58 200.198C175.083 200.346 175.516 200.656 175.982 201.07C176.394 201.527 176.566 202.212 176.566 203.146C176.568 203.994 176.393 204.612 175.93 205.057C175.492 205.511 175.017 205.841 174.58 205.992C174.348 206.02 174.166 206.072 174.133 206.072C174.08 206.116 174.045 206.116 173.973 206.116C173.835 206.116 173.776 206.116 173.632 206.177L172.607 206.174H172.607ZM79.5189 200.377V195.019C79.5189 194.822 79.5773 194.686 79.6057 194.618C79.6773 194.454 79.7551 194.413 79.7862 194.413C79.8267 194.348 79.8789 194.348 79.9265 194.34H80.9139C82.1506 194.34 82.9167 194.639 83.332 195.244C83.789 195.878 84.0339 196.625 84.0339 197.348C84.0339 198.247 83.8382 198.797 83.4917 199.264C83.1705 199.67 82.821 199.975 82.4061 200.099C82.3059 200.198 82.1745 200.222 82.0373 200.297C81.91 200.346 81.816 200.346 81.6667 200.346C81.4831 200.346 81.3143 200.378 81.1412 200.378L79.5191 200.377L79.5189 200.377ZM127.226 199.37C147.786 188.026 164.524 184.809 178.596 187.269L178.598 122.638C163.347 119.8 147.117 123.845 132.997 131.98L127.227 135.649L121.408 131.978C107.348 123.845 91.1252 119.802 75.8153 122.639V187.335C89.9438 184.861 106.676 188.026 127.227 199.37H127.226ZM156.444 182.474C149.675 182.343 139.609 179.349 128.684 174.012L127.459 173.416L126.25 174.012C114.991 179.493 104.729 182.493 97.9176 182.458C94.1703 182.458 91.5299 181.499 90.4457 179.493C88.2279 175.496 92.789 168.266 101.498 160.582L104.044 158.439L101.501 156.271C92.7903 148.586 88.2277 141.404 90.4456 137.416C93.5266 131.799 108.746 134.332 126.248 142.82L127.459 143.46L128.687 142.82C146.166 134.331 161.45 131.801 164.464 137.416C166.675 141.401 162.161 148.587 153.455 156.271L150.882 158.439L153.455 160.582C162.161 168.266 166.674 175.497 164.524 179.493C163.371 181.594 160.5 182.55 156.444 182.474H156.444ZM99.4633 179.564C99.8487 179.573 100.247 179.568 100.666 179.545C105.903 179.412 113.732 177.066 122.483 173.042L124.657 172.01L121.073 170.017C115.984 167.119 111.293 164.048 107.182 160.928L106.069 160.034L104.577 161.246C96.6299 167.934 92.3737 174.146 94.1389 177.344C94.8991 178.761 96.7643 179.514 99.4632 179.564L99.4633 179.564ZM155.509 179.564C158.163 179.511 160.022 178.761 160.811 177.344C162.603 174.144 158.282 167.936 150.353 161.246L148.902 160.034L147.729 160.926C143.625 164.046 138.901 167.119 133.822 170.017L130.266 172.01L132.469 173.042C141.173 177.065 149.023 179.413 154.328 179.545C154.738 179.568 155.131 179.573 155.509 179.564H155.509ZM127.459 170.553L132.578 167.837C137.203 165.241 141.437 162.488 145.187 159.726L146.881 158.439L145.189 157.161C141.44 154.4 137.202 151.67 132.575 149.005L127.459 146.326L122.308 149.002C117.713 151.67 113.452 154.4 109.713 157.164L108.058 158.439L109.716 159.725C113.452 162.486 117.711 165.241 122.307 167.837L127.459 170.553L127.459 170.553ZM106.069 156.821L107.182 155.948C111.295 152.852 115.983 149.745 121.073 146.796L124.658 144.876L122.486 143.834C108.265 137.29 96.4496 135.283 94.1392 139.529C92.3365 142.735 96.6301 148.874 104.577 155.635L106.069 156.821H106.069ZM148.902 156.821L150.382 155.633C158.282 148.872 162.603 142.737 160.811 139.529C158.469 135.282 146.658 137.291 132.467 143.835L130.266 144.876L133.822 146.795C138.901 149.743 143.624 152.853 147.728 155.95L148.902 156.821ZM127.327 130.811V130.638L133.312 127.151C147.907 119.178 162.744 115.285 178.684 118.38V113.914C163.116 110.615 148.061 113.852 133.371 122.373L127.226 126.267L121.073 122.372C106.392 113.852 91.3372 110.617 75.7598 113.916V118.379C91.6537 115.285 106.517 119.178 121.073 127.153L127.09 130.638V130.765L127.226 130.74L127.327 130.812L127.327 130.811ZM127.873 119.448L133.469 116.209C139.721 112.956 146.052 110.696 152.429 109.421L155.033 109.015L154.898 106.297C154.226 98.6216 152.498 91.1744 149.805 84.7252L149.71 84.5817C144.297 86.7246 138.773 88.0036 132.997 88.7002L127.873 89.1247V119.448ZM125.727 118.982V89.1247L123.939 89.0301C116.495 88.4888 110.586 86.5324 104.729 84.5817L104.662 84.7237C101.886 91.1743 100.195 98.6215 99.5321 106.298L99.3692 109.015L101.984 109.421C108.41 110.696 114.741 112.956 120.991 116.212L125.727 118.982L125.727 118.982ZM76.1704 109.33C82.7164 108.132 89.1671 107.838 95.5652 108.44L98.034 108.784L98.1519 106.746C98.7776 98.6216 100.546 90.7544 103.37 83.8779L103.373 83.7771L100.901 82.1211C98.8792 80.6141 96.9722 78.9133 95.1516 76.908L93.9312 75.3628L92.6454 76.4749C88.7666 80.0742 85.381 84.2817 82.6849 89.1262C79.0199 95.5414 76.9081 102.434 76.1703 109.33L76.1704 109.33ZM178.214 109.33C177.519 102.433 175.392 95.5413 171.787 89.1261C169.036 84.2816 165.638 80.0772 161.8 76.4748L160.499 75.3627L159.229 76.9079C157.492 78.9132 155.521 80.614 153.508 82.1223L151.027 83.777L151.097 83.8762C153.905 90.7527 155.621 98.6215 156.227 106.748L156.386 108.784L158.829 108.411C165.232 107.838 171.735 108.132 178.214 109.33V109.33ZM127.873 87.0438L129.555 86.9876C135.43 86.6269 145.497 84.7561 148.802 82.8176L148.902 82.7656L148.062 80.9497C147.393 79.7341 146.715 78.5954 146.052 77.5011C141.068 69.6752 134.934 65.6143 128.817 65.1513L127.873 65.2178V87.0438H127.873ZM125.727 86.955V65.1513H125.648C119.461 65.6128 113.368 69.6765 108.408 77.4329C107.685 78.5954 107.008 79.7341 106.39 80.9526L105.548 82.7656L105.59 82.8176C110.028 84.3805 115.581 85.9852 121.405 86.6862L125.727 86.9552V86.955ZM104.255 81.9065L105.197 79.8775C105.826 78.5954 106.569 77.3337 107.285 76.176C111.714 69.0271 117.038 64.7181 122.552 63.2939L123.284 63.1504H123.21C113.998 63.8469 105.112 67.0544 97.4753 72.5262L95.3545 74.1455L96.1773 75.0919C98.0339 77.2494 100.043 79.1084 102.255 80.6404L104.255 81.9063V81.9065ZM150.137 81.9065L152.168 80.6407C154.332 79.1069 156.386 77.251 158.217 75.0935L159.052 74.1456L156.929 72.5246C153.115 69.7905 148.978 67.624 144.65 66.0474L131.882 63.297L139.914 67.5838C142.487 69.7281 144.923 72.5943 147.117 76.176C147.907 77.3337 148.591 78.5954 149.247 79.8775L150.137 81.9065H150.137ZM131.834 63.2867L131.212 63.1505H131.174L131.834 63.2867Z" fill="#13547C"/>
<path fill-rule="evenodd" clip-rule="evenodd" d="M216.446 246.676C168.865 249.572 121.736 244.667 75.7409 220.215C58.0043 209.348 44.4433 196.767 38.394 180.948C35.346 170.087 39.3837 160.773 50.2626 151.565C44.7657 153.471 33.5167 162.604 31.9892 172.661C29.2812 190.49 47.0114 207.469 61.775 217.823C77.1557 228.611 100.004 237.187 127.661 243.747C151.49 249.399 195.9 251.196 216.446 246.676H216.446Z" fill="#7292B4"/>
<path fill-rule="evenodd" clip-rule="evenodd" d="M66.6148 150.496C65.5873 148.726 64.5595 146.955 63.532 145.185C55.0368 146.913 49.3467 151.678 44.4461 157.299C33.1974 170.375 36.7274 181.919 45.1125 193.429C43.1673 186.232 40.1153 178.762 43.1434 172.037C47.7206 161.873 56.1748 154.906 66.6147 150.496H66.6148Z" fill="#BAE5FA"/>
<path fill-rule="evenodd" clip-rule="evenodd" d="M45.9427 8.19831C44.7021 8.19831 43.5791 8.70114 42.7663 9.51391C36.0199 6.24777 23.2624 -0.165135 14.1324 0.00325187C6.55011 0.143329 -0.798241 8.12233 0.0700412 17.3016C2.58297 43.8664 18.7451 70.0989 31.7011 90.7656C43.8609 110.162 57.5997 128.871 71.162 146.977C71.162 144.624 71.162 142.272 71.162 139.92C59.024 122.582 45.1915 106.314 34.7478 87.9061C22.6913 66.6565 9.22285 45.3798 4.14416 21.482C2.58493 14.1445 5.62533 2.5679 14.2438 2.58506C28.9044 2.61459 39.8611 10.5741 41.5256 11.4174C41.5287 11.4143 41.324 11.5527 41.2929 12.8481C41.214 16.1129 44.2615 17.3028 45.7752 17.3028C47.289 17.3028 47.5209 16.7138 47.8699 16.4783L91.9189 50.8935V47.3786L50.2208 14.0634L50.2202 14.064C50.3592 13.6308 50.4344 13.1696 50.4344 12.6903C50.4344 10.2094 48.4235 8.19844 45.9425 8.19844L45.9427 8.19831Z" fill="#777FBC"/>
<path fill-rule="evenodd" clip-rule="evenodd" d="M187.979 141.045V148.083L200.06 162.938H206.469L187.979 141.045Z" fill="#B1B3DA"/>
<path fill-rule="evenodd" clip-rule="evenodd" d="M182.121 129.304C181.744 128.651 181.367 127.999 180.99 127.347C201.396 126.877 226.765 128.305 242.207 129.435C289.581 132.9 317.263 142.735 333.079 149.615C306.4 141.684 276.472 134.215 243.79 131.881C233.802 131.168 221.899 129.304 182.12 129.304L182.121 129.304Z" fill="#7595B7"/>
<path fill-rule="evenodd" clip-rule="evenodd" d="M407.626 150.543C402.411 150.543 397.195 150.543 391.98 150.543C352.843 129.613 299.634 121.541 238.377 123.062C302.211 117.608 360.3 124.633 407.626 150.543H407.626Z" fill="#B1B3DA"/>
<path fill-rule="evenodd" clip-rule="evenodd" d="M419.698 236.654C418.058 236.654 416.418 236.654 414.777 236.654C365.975 266.967 303.16 265.1 272.851 266.514C236.337 268.217 182.892 265.024 136.189 254.296C110.91 248.489 88.242 241.057 70.0918 229.772C102.026 255.069 174.173 270.933 273.517 270.883C335.619 270.852 394.926 262.18 419.698 236.654Z" fill="#13547C"/>
<path fill-rule="evenodd" clip-rule="evenodd" d="M419.714 229.473C414.101 229.473 408.489 229.473 402.877 229.473C378.435 248.928 322.493 260.998 271.557 261.924C266.801 253.392 262.045 244.86 257.289 236.328C255.984 236.328 254.679 236.328 253.374 236.328C257.996 245.154 262.617 253.98 267.239 262.806C219.577 264.03 178.161 261.034 143.27 254.543C113.955 249.089 86.6136 240.246 63.1855 225.427C84.1148 239.338 109.814 249.982 142.833 256.372C167.572 261.159 211.797 265.92 258.684 265.92C301.721 265.92 387.177 259.563 419.714 229.473H419.714Z" fill="#B1B3DA"/>
<path fill-rule="evenodd" clip-rule="evenodd" d="M269.156 315.699C278.11 318.14 284.691 298.668 271.54 270.883C272.819 270.882 274.099 270.881 275.378 270.88C280.316 280.556 284.575 291.303 284.044 302.734C283.459 315.335 277.641 320.966 269.444 319.866C250.65 317.344 222.42 302.286 181.16 265.547C183.044 265.779 184.928 266.01 186.812 266.242C216.906 292.567 243.191 308.621 269.156 315.699L269.156 315.699Z" fill="#B1B3DA"/>
<path d="M227.359 166.59L226.296 170.324C226.144 170.857 226.063 171.234 226.063 171.45C226.063 171.759 226.161 171.988 226.364 172.144C226.563 172.301 227.016 172.386 227.719 172.398L227.587 172.741H221L221.11 172.398C221.669 172.39 222.067 172.339 222.295 172.233C222.528 172.132 222.719 171.962 222.875 171.73C222.986 171.577 223.159 171.107 223.383 170.32L225.843 161.789C226.017 161.213 226.106 160.803 226.106 160.557C226.106 160.307 225.996 160.1 225.775 159.931C225.555 159.757 225.157 159.668 224.577 159.655L224.687 159.312H230.056C231.533 159.312 232.592 159.499 233.239 159.871C234.238 160.451 234.738 161.328 234.738 162.492C234.738 163.618 234.238 164.604 233.243 165.464C232.244 166.323 230.902 166.751 229.213 166.751C228.705 166.751 228.087 166.696 227.359 166.59ZM227.579 165.815C228.002 165.87 228.362 165.896 228.642 165.896C229.548 165.896 230.259 165.481 230.775 164.647C231.296 163.817 231.554 162.949 231.554 162.043C231.554 161.429 231.389 160.951 231.05 160.612C230.716 160.269 230.25 160.104 229.662 160.104C229.535 160.104 229.378 160.113 229.196 160.125L227.579 165.819V165.815Z" fill="#13547C"/>
<path d="M241.728 160.062L240.238 165.269H240.7C241.915 165.269 242.8 165.112 243.358 164.795C243.917 164.482 244.387 163.919 244.777 163.118H245.124L243.608 168.326H243.261C243.32 167.979 243.35 167.695 243.35 167.479C243.35 167.115 243.244 166.823 243.032 166.586C242.816 166.357 242.541 166.192 242.194 166.095C241.97 166.031 241.508 165.997 240.801 165.997H240.035L238.744 170.506C238.629 170.904 238.574 171.196 238.574 171.391C238.574 171.543 238.646 171.666 238.79 171.755C239.006 171.886 239.404 171.954 239.993 171.954C241.127 171.954 242.194 171.713 243.197 171.234C244.197 170.756 245.098 170.028 245.894 169.054H246.301L244.891 172.741H233.469L233.592 172.398C234.235 172.398 234.705 172.271 234.997 172.013C235.293 171.755 235.556 171.192 235.797 170.32L238.291 161.654C238.43 161.171 238.498 160.79 238.498 160.511C238.498 160.257 238.405 160.066 238.223 159.931C238.041 159.795 237.618 159.706 236.957 159.655L237.038 159.312H247.939L247.054 162.674H246.707C246.682 162.018 246.58 161.548 246.394 161.281C246.11 160.858 245.738 160.549 245.272 160.354C244.806 160.159 244.053 160.062 243.003 160.062H241.724H241.728Z" fill="#13547C"/>
<path d="M262.374 159.008L261.375 163.263H261.028C260.982 162.099 260.694 161.231 260.156 160.655C259.618 160.084 258.92 159.796 258.06 159.796C257.133 159.796 256.206 160.19 255.288 160.969C254.369 161.748 253.586 162.941 252.951 164.55C252.434 165.85 252.176 167.141 252.176 168.411C252.176 169.55 252.459 170.418 253.027 171.015C253.594 171.612 254.373 171.912 255.359 171.912C256.16 171.912 256.888 171.739 257.544 171.4C258.204 171.057 258.865 170.498 259.538 169.724H260.008C259.182 170.951 258.348 171.811 257.51 172.302C256.668 172.797 255.639 173.043 254.424 173.043C252.794 173.043 251.482 172.552 250.487 171.574C249.492 170.592 248.992 169.313 248.992 167.734C248.992 166.256 249.39 164.847 250.182 163.505C250.973 162.162 252.112 161.074 253.603 160.245C255.093 159.419 256.57 159 258.044 159C258.602 159 259.297 159.114 260.131 159.347C260.554 159.461 260.85 159.521 261.02 159.521C261.354 159.521 261.689 159.347 262.032 159H262.379L262.374 159.008Z" fill="#13547C"/>
<path d="M264.19 159.312H278.838L278.741 159.655C277.852 159.689 277.264 159.948 276.967 160.426C276.671 160.904 276.358 161.713 276.036 162.852L273.961 170.032C273.75 170.777 273.644 171.289 273.644 171.56C273.644 172.068 274.148 172.352 275.147 172.403L275.049 172.746H268.462L268.572 172.403C269.33 172.403 269.842 172.242 270.117 171.929C270.393 171.615 270.702 170.883 271.04 169.723L273.813 160.062H268.877L266.079 169.888C265.837 170.756 265.714 171.323 265.714 171.598C265.714 172.102 266.197 172.369 267.162 172.403L267.052 172.746H260.566L260.676 172.403C261.341 172.39 261.824 172.246 262.12 171.979C262.416 171.704 262.726 171.014 263.043 169.896L265.24 162.259C265.49 161.412 265.613 160.849 265.613 160.574C265.613 159.964 265.105 159.664 264.089 159.664L264.199 159.321L264.19 159.312Z" fill="#13547C"/>
<path d="M288.969 159.313H293.681L293.584 159.656C293.004 159.677 292.479 159.855 292.005 160.198C291.531 160.541 291.014 161.176 290.46 162.099L285.29 170.625C284.782 171.45 284.3 172.06 283.838 172.454C283.377 172.848 282.704 173.047 281.81 173.047C281.044 173.047 280.413 172.86 279.909 172.488C279.41 172.115 279.16 171.658 279.16 171.116C279.16 170.739 279.287 170.43 279.533 170.189C279.782 169.948 280.096 169.829 280.481 169.829C281.281 169.829 281.747 170.367 281.87 171.438C281.937 171.958 282.158 172.217 282.539 172.217C282.801 172.217 283.038 172.128 283.254 171.95C283.47 171.772 283.796 171.374 284.24 170.769L281.582 161.955C281.298 160.998 281.023 160.38 280.76 160.1C280.502 159.825 280.096 159.673 279.554 159.656L279.664 159.313H286.069L285.959 159.656C284.88 159.656 284.338 160.003 284.338 160.697C284.338 160.922 284.422 161.307 284.588 161.861L286.268 167.424L289.714 161.739C290.104 161.095 290.299 160.629 290.299 160.342C290.299 159.884 289.825 159.652 288.868 159.652L288.965 159.309L288.969 159.313Z" fill="#13547C"/>
<path d="M294.212 159.655L294.309 159.312H304.711L303.669 162.941H303.284C303.305 162.657 303.314 162.454 303.314 162.327C303.314 161.582 303.077 161.019 302.607 160.638C302.133 160.257 301.252 160.062 299.965 160.062H298.958L297.404 165.494C298.361 165.506 299.144 165.553 299.745 165.621C300.346 165.697 300.922 165.879 301.464 166.184C302.01 166.488 302.416 166.861 302.683 167.31C302.95 167.754 303.081 168.254 303.081 168.791C303.081 169.638 302.789 170.396 302.205 171.069C301.62 171.738 300.939 172.187 300.16 172.411C299.385 172.636 298.411 172.75 297.251 172.75H290.943L291.053 172.407C291.621 172.373 292.036 172.199 292.302 171.882C292.569 171.564 292.861 170.845 293.179 169.723L295.38 162.085C295.609 161.311 295.723 160.811 295.723 160.574C295.723 160.29 295.63 160.083 295.439 159.948C295.253 159.812 294.847 159.719 294.216 159.664L294.212 159.655ZM295.545 171.895C295.837 171.958 296.113 171.992 296.371 171.992C297.522 171.992 298.403 171.603 299.021 170.832C299.635 170.057 299.944 169.206 299.944 168.271C299.944 167.881 299.834 167.517 299.622 167.183C299.406 166.844 299.131 166.624 298.788 166.51C298.449 166.399 297.908 166.34 297.167 166.34L295.549 171.895H295.545Z" fill="#13547C"/>
<path d="M319.938 159.313L319.841 159.656C319.015 159.681 318.448 159.914 318.143 160.346C317.838 160.782 317.546 161.489 317.258 162.476L315.057 170.134C314.871 170.778 314.777 171.226 314.777 171.493C314.777 172.035 315.281 172.336 316.289 172.399L316.179 172.742H309.672L309.782 172.399C310.26 172.399 310.641 172.323 310.916 172.175C311.192 172.027 311.412 171.785 311.577 171.459C311.742 171.133 311.966 170.447 312.258 169.414L314.959 160.062H310.73L309.439 164.728C308.914 166.641 308.436 168.208 307.999 169.427C307.559 170.646 307.055 171.531 306.48 172.082C305.9 172.632 305.277 172.907 304.613 172.907C304.189 172.907 303.829 172.772 303.529 172.501C303.228 172.226 303.08 171.895 303.08 171.497C303.08 171.15 303.199 170.841 303.436 170.583C303.669 170.325 303.969 170.189 304.333 170.189C304.723 170.189 305.061 170.405 305.345 170.841C305.531 171.133 305.696 171.281 305.849 171.281C306.255 171.281 306.619 170.892 306.945 170.109C307.276 169.33 307.809 167.662 308.55 165.105C309.291 162.548 309.663 161.024 309.663 160.541C309.663 159.948 309.185 159.648 308.232 159.648H307.864L307.974 159.305H319.93L319.938 159.313Z" fill="#13547C"/>
<path d="M329.16 159.313H335.646L335.536 159.656C335.083 159.665 334.727 159.732 334.469 159.864C334.21 159.995 333.99 160.215 333.804 160.52C333.622 160.829 333.393 161.447 333.118 162.382L330.917 170.092C330.709 170.816 330.608 171.294 330.608 171.535C330.608 172.09 331.107 172.378 332.115 172.395L332.017 172.738H325.489L325.599 172.395C326.264 172.395 326.755 172.238 327.068 171.929C327.382 171.616 327.708 170.875 328.046 169.702L329.956 163.064L322.843 170.714C322.742 171.07 322.695 171.349 322.695 171.552C322.695 172.115 323.203 172.395 324.224 172.395L324.126 172.738H317.619L317.729 172.395C318.36 172.395 318.843 172.226 319.173 171.887C319.507 171.548 319.821 170.858 320.121 169.812L322.323 162.145C322.572 161.269 322.704 160.723 322.704 160.503C322.704 160.291 322.623 160.101 322.462 159.935C322.301 159.77 321.878 159.677 321.188 159.648L321.298 159.305H327.847L327.737 159.648C327.026 159.648 326.514 159.825 326.196 160.19C325.879 160.549 325.557 161.299 325.227 162.442L323.351 168.983L330.468 161.333C330.557 161.002 330.599 160.744 330.599 160.566C330.599 159.957 330.091 159.652 329.071 159.652L329.168 159.309L329.16 159.313Z" fill="#13547C"/>
<path d="M340.141 165.675C341.026 165.603 341.754 165.37 342.33 164.985C342.906 164.595 343.494 163.744 344.1 162.427C344.523 161.5 344.866 160.844 345.133 160.459C345.399 160.074 345.73 159.765 346.127 159.527C346.525 159.29 346.97 159.172 347.461 159.172C348.003 159.172 348.422 159.312 348.727 159.587C349.032 159.862 349.184 160.222 349.184 160.662C349.184 160.988 349.07 161.272 348.841 161.517C348.613 161.763 348.304 161.89 347.918 161.89C347.732 161.89 347.58 161.856 347.453 161.792C347.326 161.729 347.118 161.577 346.834 161.339C346.53 161.085 346.288 160.958 346.106 160.958C345.895 160.958 345.721 161.047 345.577 161.225C345.433 161.403 345.226 161.801 344.946 162.427C344.493 163.439 344.087 164.18 343.723 164.65C343.363 165.12 342.918 165.493 342.402 165.772C342.885 165.958 343.249 166.259 343.494 166.682C343.74 167.101 344.104 168.079 344.578 169.625C344.963 170.878 345.268 171.635 345.501 171.911C345.73 172.186 346.14 172.351 346.724 172.41L346.614 172.753H342.533L340.971 167.753C340.793 167.186 340.632 166.83 340.493 166.686C340.353 166.543 340.158 166.475 339.913 166.475L338.884 170.052C338.647 170.878 338.524 171.411 338.524 171.652C338.524 172.105 338.922 172.355 339.714 172.41L339.616 172.753H333.414L333.524 172.41C334.079 172.351 334.46 172.279 334.667 172.199C334.875 172.114 335.074 171.932 335.264 171.644C335.459 171.36 335.671 170.818 335.903 170.014L338.156 162.152C338.389 161.348 338.503 160.806 338.503 160.522C338.503 159.972 337.999 159.688 336.996 159.667L337.106 159.324H343.346L343.236 159.667C342.622 159.777 342.178 160.019 341.907 160.383C341.631 160.743 341.331 161.522 340.988 162.707L340.133 165.687L340.141 165.675Z" fill="#13547C"/>
<path d="M356.25 168.41H352.088L351.233 169.452L350.277 170.582C350.09 170.832 349.955 171.056 349.87 171.259C349.802 171.412 349.773 171.568 349.773 171.721C349.773 171.878 349.853 172.03 350.023 172.165C350.192 172.305 350.476 172.381 350.865 172.402V172.745H346.826L346.928 172.402C347.283 172.343 347.605 172.216 347.885 172.021C348.257 171.755 348.791 171.2 349.489 170.366L359.07 159.012H359.518L359.078 170.002C359.057 170.578 359.048 170.925 359.048 171.044C359.048 171.501 359.137 171.831 359.315 172.038C359.497 172.246 359.798 172.364 360.217 172.398L360.12 172.741H354.277L354.387 172.398C354.967 172.343 355.302 172.297 355.386 172.259C355.573 172.165 355.742 171.966 355.894 171.67C356.047 171.378 356.14 170.861 356.174 170.125L356.254 168.402L356.25 168.41ZM356.25 167.602L356.517 163.22L352.779 167.602H356.254H356.25Z" fill="#13547C"/>
<path d="M367.634 165.49H372.579L373.659 161.722C373.803 161.205 373.875 160.812 373.875 160.541C373.875 160.278 373.786 160.075 373.608 159.931C373.43 159.791 372.998 159.702 372.312 159.656L372.423 159.313H379.12L379.01 159.656C378.354 159.656 377.854 159.795 377.516 160.079C377.177 160.359 376.885 160.913 376.648 161.739L374.167 170.354C374.002 170.917 373.917 171.323 373.917 171.565C373.917 171.81 374.006 171.992 374.184 172.124C374.417 172.297 374.836 172.386 375.45 172.399L375.348 172.742H368.782L368.93 172.399C369.565 172.399 370.039 172.272 370.335 172.022C370.636 171.772 370.915 171.213 371.169 170.337L372.321 166.341H367.397L366.246 170.354C366.081 170.904 365.996 171.311 365.996 171.577C365.996 171.815 366.098 172.009 366.301 172.157C366.5 172.306 366.902 172.386 367.499 172.399L367.402 172.742H360.92L361.034 172.399C361.669 172.399 362.135 172.272 362.431 172.022C362.728 171.772 363.003 171.213 363.253 170.337L365.729 161.717C365.877 161.222 365.945 160.828 365.945 160.545C365.945 160.27 365.86 160.071 365.683 159.927C365.505 159.787 365.086 159.698 364.421 159.652L364.531 159.309H371.114L370.966 159.652C370.357 159.652 369.895 159.783 369.582 160.045C369.269 160.308 368.985 160.871 368.727 161.73L367.622 165.485L367.634 165.49Z" fill="#13547C"/>
<path d="M392.167 159.008L391.168 163.263H390.821C390.775 162.099 390.487 161.231 389.949 160.655C389.411 160.084 388.713 159.796 387.853 159.796C386.926 159.796 385.999 160.19 385.08 160.969C384.162 161.748 383.379 162.941 382.744 164.55C382.227 165.85 381.969 167.141 381.969 168.411C381.969 169.55 382.252 170.418 382.82 171.015C383.387 171.612 384.166 171.912 385.152 171.912C385.953 171.912 386.681 171.739 387.337 171.4C387.997 171.057 388.658 170.498 389.331 169.724H389.801C388.975 170.951 388.141 171.811 387.303 172.302C386.461 172.797 385.432 173.043 384.217 173.043C382.587 173.043 381.27 172.552 380.28 171.574C379.285 170.592 378.785 169.313 378.785 167.734C378.785 166.256 379.183 164.847 379.975 163.505C380.766 162.162 381.905 161.074 383.396 160.245C384.886 159.419 386.363 159 387.837 159C388.395 159 389.09 159.114 389.924 159.347C390.347 159.461 390.643 159.521 390.813 159.521C391.147 159.521 391.482 159.347 391.825 159H392.172L392.167 159.008Z" fill="#13547C"/>
<path d="M397.053 165.675C397.938 165.603 398.666 165.37 399.242 164.985C399.817 164.595 400.406 163.744 401.011 162.427C401.435 161.5 401.782 160.844 402.044 160.459C402.311 160.074 402.641 159.765 403.039 159.527C403.437 159.29 403.882 159.172 404.373 159.172C404.915 159.172 405.334 159.312 405.639 159.587C405.943 159.862 406.096 160.222 406.096 160.662C406.096 160.988 405.982 161.272 405.753 161.517C405.524 161.763 405.215 161.89 404.83 161.89C404.644 161.89 404.491 161.856 404.364 161.792C404.233 161.729 404.03 161.577 403.746 161.339C403.441 161.085 403.2 160.958 403.018 160.958C402.806 160.958 402.629 161.047 402.489 161.225C402.345 161.403 402.133 161.801 401.858 162.427C401.405 163.439 400.999 164.18 400.635 164.65C400.275 165.12 399.83 165.493 399.314 165.772C399.796 165.958 400.16 166.259 400.406 166.682C400.652 167.101 401.016 168.079 401.49 169.625C401.875 170.878 402.18 171.635 402.413 171.911C402.641 172.186 403.052 172.351 403.636 172.41L403.526 172.753H399.445L397.883 167.753C397.701 167.186 397.544 166.83 397.404 166.686C397.265 166.543 397.07 166.475 396.824 166.475L395.8 170.052C395.563 170.878 395.44 171.411 395.44 171.652C395.44 172.105 395.838 172.355 396.63 172.41L396.532 172.753H390.33L390.44 172.41C390.995 172.351 391.376 172.279 391.583 172.199C391.791 172.114 391.99 171.932 392.18 171.644C392.375 171.36 392.587 170.818 392.819 170.014L395.072 162.152C395.305 161.348 395.419 160.806 395.419 160.522C395.419 159.972 394.915 159.688 393.912 159.667L394.022 159.324H400.262L400.152 159.667C399.538 159.777 399.094 160.019 398.823 160.383C398.547 160.743 398.243 161.522 397.904 162.707L397.049 165.687L397.053 165.675Z" fill="#13547C"/>
<path d="M413.157 168.41H408.995L408.14 169.452L407.179 170.582C406.993 170.832 406.857 171.056 406.772 171.259C406.705 171.412 406.675 171.568 406.675 171.721C406.675 171.878 406.756 172.03 406.925 172.165C407.094 172.305 407.378 172.381 407.767 172.402V172.745H403.729L403.83 172.402C404.186 172.343 404.507 172.216 404.787 172.021C405.159 171.755 405.693 171.2 406.391 170.366L415.972 159.012H416.421L415.98 170.002C415.959 170.578 415.951 170.925 415.951 171.044C415.951 171.501 416.04 171.831 416.218 172.038C416.4 172.246 416.7 172.364 417.119 172.398L417.022 172.741H411.18L411.29 172.398C411.87 172.343 412.204 172.297 412.289 172.259C412.475 172.165 412.644 171.966 412.797 171.67C412.949 171.378 413.042 170.861 413.076 170.125L413.157 168.402V168.41ZM413.157 167.602L413.423 163.22L409.685 167.602H413.161H413.157Z" fill="#13547C"/>
<path d="M434.211 159.312L434.101 159.655C433.449 159.744 433.022 159.85 432.831 159.981C432.636 160.108 432.459 160.274 432.289 160.464C432.12 160.659 431.9 161.23 431.625 162.183L429.292 170.273C429.106 170.921 429.008 171.357 429.008 171.581C429.008 172.111 429.508 172.386 430.503 172.398L430.393 172.741H424.377L424.538 172.398C425.122 172.288 425.52 172.047 425.736 171.679C425.947 171.31 426.117 170.912 426.244 170.485L427.408 166.421L427.188 166.412C426.781 166.412 426.455 166.493 426.214 166.654C425.969 166.814 425.676 167.119 425.334 167.564L421.384 172.741H417.18L417.29 172.398C417.794 172.365 418.213 172.178 418.543 171.84C418.877 171.497 419.186 171.124 419.479 170.713C420.575 169.168 421.43 168.068 422.044 167.416C422.658 166.764 423.492 166.319 424.555 166.074C422.561 165.659 421.566 164.651 421.566 163.059C421.566 162.132 421.989 161.277 422.827 160.494C423.666 159.71 425.02 159.321 426.887 159.321H434.216L434.211 159.312ZM429.19 160.24C428.822 160.134 428.488 160.079 428.183 160.079C427.154 160.079 426.337 160.434 425.736 161.137C425.135 161.844 424.83 162.649 424.83 163.538C424.83 164.063 424.957 164.499 425.202 164.85C425.452 165.206 425.736 165.434 426.053 165.54C426.371 165.65 426.891 165.709 427.607 165.731L429.19 160.235V160.24Z" fill="#13547C"/>
<path d="M283.877 186.453H288.483L289.486 182.943C289.622 182.46 289.69 182.092 289.69 181.842C289.69 181.597 289.609 181.406 289.44 181.275C289.275 181.148 288.873 181.063 288.233 181.017L288.339 180.695H294.579L294.478 181.017C293.868 181.017 293.403 181.148 293.089 181.41C292.772 181.673 292.505 182.189 292.281 182.96L289.969 190.983C289.812 191.507 289.736 191.884 289.736 192.113C289.736 192.341 289.817 192.511 289.986 192.634C290.202 192.794 290.596 192.879 291.163 192.892L291.07 193.214H284.957L285.096 192.892C285.689 192.892 286.129 192.778 286.409 192.54C286.692 192.308 286.951 191.787 287.183 190.97L288.259 187.244H283.674L282.598 190.983C282.442 191.495 282.366 191.872 282.366 192.121C282.366 192.341 282.459 192.524 282.649 192.663C282.836 192.803 283.208 192.875 283.767 192.892L283.674 193.214H277.637L277.743 192.892C278.335 192.892 278.767 192.778 279.042 192.54C279.317 192.308 279.576 191.787 279.809 190.97L282.116 182.943C282.251 182.482 282.319 182.117 282.319 181.851C282.319 181.597 282.239 181.406 282.073 181.275C281.908 181.148 281.515 181.063 280.901 181.017L281.002 180.695H287.133L286.993 181.017C286.421 181.017 285.994 181.139 285.706 181.385C285.414 181.631 285.147 182.156 284.906 182.956L283.877 186.453Z" fill="#13547C"/>
<path d="M300.722 189.169H296.844L296.048 190.138L295.155 191.192C294.981 191.425 294.854 191.633 294.774 191.823C294.71 191.963 294.681 192.111 294.681 192.255C294.681 192.403 294.757 192.543 294.914 192.67C295.07 192.797 295.333 192.873 295.701 192.89V193.212H291.938L292.031 192.89C292.365 192.835 292.661 192.716 292.92 192.534C293.267 192.285 293.762 191.772 294.414 190.993L303.338 180.414H303.758L303.347 190.65C303.33 191.184 303.317 191.51 303.317 191.624C303.317 192.048 303.398 192.357 303.567 192.551C303.736 192.742 304.016 192.856 304.405 192.886L304.312 193.208H298.868L298.969 192.886C299.511 192.835 299.82 192.793 299.901 192.759C300.074 192.67 300.235 192.488 300.375 192.213C300.519 191.937 300.604 191.459 300.633 190.773L300.709 189.169H300.722ZM300.722 188.415L300.968 184.334L297.483 188.415H300.722Z" fill="#13547C"/>
<path d="M315.523 180.699H319.913L319.82 181.021C319.278 181.042 318.791 181.207 318.351 181.524C317.91 181.842 317.428 182.435 316.911 183.294L312.094 191.236C311.624 192.002 311.171 192.574 310.743 192.942C310.311 193.311 309.685 193.497 308.855 193.497C308.144 193.497 307.555 193.323 307.085 192.976C306.62 192.629 306.387 192.201 306.387 191.698C306.387 191.346 306.505 191.058 306.734 190.834C306.967 190.61 307.259 190.5 307.619 190.5C308.368 190.5 308.796 190.999 308.914 191.998C308.978 192.481 309.185 192.726 309.536 192.726C309.782 192.726 310.002 192.646 310.205 192.477C310.404 192.312 310.713 191.943 311.124 191.376L308.647 183.167C308.381 182.278 308.127 181.702 307.885 181.44C307.644 181.181 307.267 181.042 306.759 181.025L306.861 180.703H312.826L312.724 181.025C311.717 181.025 311.213 181.351 311.213 181.999C311.213 182.206 311.293 182.566 311.446 183.082L313.008 188.264L316.217 182.968C316.581 182.371 316.763 181.935 316.763 181.664C316.763 181.237 316.319 181.021 315.43 181.021L315.523 180.699Z" fill="#13547C"/>
<path d="M327.225 180.699H333.44L333.347 181.021C332.89 181.033 332.534 181.101 332.284 181.22C332.034 181.338 331.814 181.558 331.62 181.88C331.425 182.202 331.217 182.744 331.001 183.506L328.91 190.762C328.724 191.418 328.626 191.871 328.626 192.125C328.626 192.417 328.724 192.612 328.914 192.718C329.109 192.824 329.482 192.879 330.036 192.892L329.935 193.213H323.855L323.957 192.892C324.66 192.879 325.134 192.726 325.388 192.443C325.637 192.155 325.908 191.507 326.201 190.504L327.119 187.329C325.523 188.069 324.135 188.442 322.958 188.442C322.238 188.442 321.599 188.264 321.04 187.904C320.477 187.545 320.193 187.02 320.193 186.313C320.193 185.987 320.282 185.517 320.451 184.899L320.981 183.057C321.158 182.443 321.252 182.024 321.252 181.791C321.252 181.308 320.832 181.054 319.994 181.025L320.096 180.703H326.006L325.904 181.025C325.214 181.076 324.74 181.241 324.477 181.524C324.219 181.808 323.931 182.481 323.627 183.548L323.279 184.755C323.08 185.47 322.979 185.982 322.979 186.304C322.979 187.003 323.466 187.35 324.439 187.35C325.138 187.35 326.116 187.062 327.361 186.478L328.25 183.396C328.457 182.651 328.563 182.155 328.563 181.918C328.563 181.618 328.457 181.406 328.245 181.27C328.034 181.131 327.661 181.054 327.119 181.029L327.221 180.707L327.225 180.699Z" fill="#13547C"/>
<path d="M337.563 186.453H342.169L343.172 182.943C343.307 182.46 343.375 182.092 343.375 181.842C343.375 181.597 343.295 181.406 343.125 181.275C342.96 181.148 342.558 181.063 341.919 181.017L342.025 180.695H348.265L348.163 181.017C347.554 181.017 347.088 181.148 346.775 181.41C346.457 181.673 346.191 182.189 345.966 182.96L343.655 190.983C343.498 191.507 343.422 191.884 343.422 192.113C343.422 192.341 343.502 192.511 343.672 192.634C343.887 192.794 344.281 192.879 344.849 192.892L344.755 193.214H338.642L338.782 192.892C339.375 192.892 339.815 192.778 340.094 192.54C340.378 192.308 340.636 191.787 340.869 190.97L341.944 187.244H337.359L336.284 190.983C336.127 191.495 336.051 191.872 336.051 192.121C336.051 192.341 336.144 192.524 336.335 192.663C336.521 192.803 336.894 192.875 337.452 192.892L337.359 193.214H331.322L331.428 192.892C332.021 192.892 332.453 192.778 332.728 192.54C333.003 192.308 333.261 191.787 333.494 190.97L335.801 182.943C335.937 182.482 336.005 182.117 336.005 181.851C336.005 181.597 335.924 181.406 335.759 181.275C335.594 181.148 335.2 181.063 334.586 181.017L334.688 180.695H340.818L340.678 181.017C340.107 181.017 339.679 181.139 339.391 181.385C339.099 181.631 338.833 182.156 338.591 182.956L337.563 186.453Z" fill="#13547C"/>
<path d="M352.056 193.491C351.044 193.491 350.222 193.288 349.6 192.873C348.978 192.462 348.508 191.899 348.195 191.188C347.881 190.473 347.725 189.783 347.725 189.105C347.725 187.742 348.118 186.37 348.902 184.986C349.685 183.602 350.747 182.492 352.077 181.663C353.41 180.829 354.727 180.414 356.027 180.414C356.789 180.414 357.508 180.604 358.194 180.985C358.88 181.366 359.409 181.895 359.79 182.577C360.171 183.259 360.362 183.944 360.362 184.639C360.362 186.193 359.866 187.75 358.867 189.313C357.872 190.875 356.751 192.009 355.51 192.708C354.57 193.229 353.419 193.491 352.06 193.491H352.056ZM355.73 181.15C355.239 181.15 354.824 181.239 354.477 181.413C354.134 181.586 353.779 181.883 353.406 182.293C353.034 182.704 352.657 183.293 352.271 184.059C351.886 184.825 351.522 185.867 351.188 187.183C350.849 188.5 350.68 189.601 350.68 190.477C350.68 191.23 350.845 191.794 351.171 192.183C351.501 192.568 351.92 192.759 352.432 192.759C353.118 192.759 353.694 192.534 354.172 192.086C355.121 191.192 355.891 189.884 356.492 188.161C357.089 186.434 357.39 184.901 357.39 183.555C357.39 182.713 357.233 182.103 356.911 181.722C356.594 181.345 356.2 181.155 355.726 181.155L355.73 181.15Z" fill="#13547C"/>
<path d="M361.16 188.117H366.554L365.987 190.039H360.551L361.16 188.117Z" fill="#13547C"/>
<path d="M369.806 180.699H379.933L378.985 184.056H378.663C378.676 183.878 378.684 183.722 378.684 183.586C378.684 182.947 378.489 182.452 378.091 182.096C377.698 181.745 377.029 181.541 376.093 181.491L373.379 190.936C373.223 191.461 373.147 191.85 373.147 192.104C373.147 192.337 373.244 192.523 373.434 192.663C373.629 192.803 374.019 192.875 374.603 192.892L374.523 193.213H368.295L368.409 192.892C369.044 192.892 369.51 192.773 369.798 192.532C370.09 192.295 370.357 191.757 370.594 190.923L373.307 181.491C372.359 181.52 371.567 181.728 370.932 182.121C370.297 182.507 369.713 183.154 369.184 184.06H368.824L369.811 180.703L369.806 180.699Z" fill="#13547C"/>
<path d="M385.513 181.397L384.124 186.248H384.556C385.686 186.248 386.512 186.1 387.033 185.808C387.553 185.516 387.994 184.995 388.353 184.25H388.675L387.261 189.102H386.939C386.994 188.78 387.02 188.513 387.02 188.314C387.02 187.976 386.922 187.701 386.724 187.485C386.525 187.273 386.266 187.116 385.945 187.027C385.737 186.968 385.305 186.934 384.645 186.934H383.929L382.727 191.134C382.621 191.506 382.57 191.777 382.57 191.959C382.57 192.099 382.638 192.214 382.774 192.298C382.973 192.421 383.345 192.484 383.895 192.484C384.954 192.484 385.949 192.26 386.88 191.816C387.812 191.367 388.65 190.694 389.391 189.788H389.772L388.459 193.221H377.82L377.935 192.899C378.532 192.899 378.972 192.781 379.247 192.539C379.522 192.302 379.768 191.773 379.992 190.96L382.312 182.887C382.443 182.438 382.507 182.083 382.507 181.824C382.507 181.587 382.422 181.409 382.249 181.282C382.079 181.155 381.686 181.071 381.067 181.028L381.144 180.707H391.296L390.474 183.84H390.153C390.127 183.226 390.034 182.794 389.861 182.54C389.598 182.146 389.251 181.858 388.815 181.676C388.383 181.498 387.68 181.405 386.702 181.405H385.513V181.397Z" fill="#13547C"/>
<path d="M396.756 187.418L394.8 182.884C394.453 182.075 394.173 181.572 393.957 181.377C393.746 181.182 393.411 181.064 392.95 181.017V180.695H398.483L398.377 181.017C397.988 181.047 397.725 181.127 397.59 181.254C397.454 181.377 397.387 181.542 397.387 181.749C397.387 181.991 397.492 182.372 397.713 182.892L398.835 185.505L400.397 184.091C401.265 183.303 401.815 182.715 402.061 182.321C402.204 182.092 402.272 181.885 402.272 181.703C402.272 181.534 402.196 181.381 402.044 181.246C401.891 181.11 401.65 181.034 401.315 181.013L401.425 180.691H405.549L405.464 181.013C405.155 181.068 404.872 181.186 404.613 181.36C404.198 181.635 403.5 182.219 402.526 183.108L399.139 186.199L401.032 190.589C401.472 191.601 401.802 192.211 402.018 192.431C402.238 192.647 402.564 192.799 402.996 192.888L402.903 193.21H397.336L397.446 192.888C397.84 192.879 398.119 192.803 398.301 192.651C398.483 192.498 398.572 192.312 398.572 192.088C398.572 191.783 398.398 191.233 398.051 190.441L397.039 188.091L394.711 190.238C393.974 190.919 393.547 191.368 393.424 191.576C393.305 191.783 393.242 191.978 393.242 192.164C393.242 192.35 393.331 192.515 393.5 192.659C393.674 192.799 393.962 192.879 394.355 192.892L394.245 193.214H389.885L389.978 192.892C390.308 192.824 390.588 192.719 390.825 192.566C391.396 192.219 392.107 191.66 392.95 190.885L396.752 187.418H396.756Z" fill="#13547C"/>
<path d="M409.344 186.453H413.95L414.953 182.943C415.089 182.46 415.156 182.092 415.156 181.842C415.156 181.597 415.076 181.406 414.907 181.275C414.742 181.148 414.339 181.063 413.7 181.017L413.806 180.695H420.046L419.945 181.017C419.335 181.017 418.869 181.148 418.556 181.41C418.239 181.673 417.972 182.189 417.747 182.96L415.436 190.983C415.279 191.507 415.203 191.884 415.203 192.113C415.203 192.341 415.283 192.511 415.453 192.634C415.669 192.794 416.062 192.879 416.63 192.892L416.537 193.214H410.423L410.563 192.892C411.156 192.892 411.596 192.778 411.875 192.54C412.159 192.308 412.417 191.787 412.65 190.97L413.726 187.244H409.141L408.065 190.983C407.909 191.495 407.832 191.872 407.832 192.121C407.832 192.341 407.926 192.524 408.116 192.663C408.302 192.803 408.675 192.875 409.234 192.892L409.141 193.214H403.104L403.209 192.892C403.802 192.892 404.234 192.778 404.513 192.54C404.788 192.308 405.047 191.787 405.28 190.97L407.587 182.943C407.722 182.482 407.79 182.117 407.79 181.851C407.79 181.597 407.71 181.406 407.545 181.275C407.379 181.148 406.986 181.063 406.372 181.017L406.473 180.695H412.604L412.464 181.017C411.892 181.017 411.465 181.139 411.173 181.385C410.881 181.631 410.614 182.156 410.377 182.956L409.348 186.453H409.344Z" fill="#13547C"/>
<path d="M428.623 180.7H434.665L434.563 181.021C434.144 181.03 433.81 181.089 433.568 181.216C433.327 181.339 433.119 181.542 432.95 181.83C432.781 182.118 432.565 182.694 432.311 183.566L430.258 190.746C430.063 191.419 429.97 191.863 429.97 192.088C429.97 192.604 430.435 192.871 431.371 192.888L431.278 193.21H425.198L425.3 192.888C425.922 192.888 426.375 192.744 426.667 192.452C426.96 192.16 427.264 191.47 427.578 190.377L429.356 184.192L422.73 191.322C422.637 191.652 422.591 191.914 422.591 192.101C422.591 192.625 423.065 192.888 424.013 192.888L423.92 193.21H417.857L417.959 192.888C418.547 192.888 418.996 192.731 419.301 192.418C419.61 192.105 419.906 191.457 420.186 190.483L422.235 183.341C422.468 182.528 422.591 182.016 422.591 181.813C422.591 181.614 422.514 181.44 422.366 181.284C422.218 181.131 421.82 181.042 421.181 181.017L421.282 180.695H427.383L427.281 181.017C426.621 181.017 426.143 181.182 425.846 181.521C425.55 181.855 425.249 182.554 424.944 183.616L423.196 189.709L429.826 182.579C429.906 182.27 429.949 182.033 429.949 181.864C429.949 181.296 429.474 181.013 428.526 181.013L428.619 180.691L428.623 180.7Z" fill="#13547C"/>
<path d="M442.776 180.699H448.987L448.894 181.021C448.436 181.033 448.081 181.101 447.831 181.22C447.581 181.338 447.361 181.558 447.166 181.88C446.972 182.202 446.764 182.744 446.548 183.506L444.457 190.762C444.271 191.418 444.173 191.871 444.173 192.125C444.173 192.417 444.271 192.612 444.461 192.718C444.656 192.824 445.028 192.879 445.583 192.892L445.481 193.213H439.402L439.504 192.892C440.206 192.879 440.681 192.726 440.935 192.443C441.184 192.155 441.455 191.507 441.747 190.504L442.666 187.329C441.07 188.069 439.681 188.442 438.505 188.442C437.785 188.442 437.146 188.264 436.587 187.904C436.024 187.545 435.74 187.02 435.74 186.313C435.74 185.987 435.829 185.517 435.998 184.899L436.527 183.057C436.705 182.443 436.798 182.024 436.798 181.791C436.798 181.308 436.379 181.054 435.541 181.025L435.643 180.703H441.553L441.451 181.025C440.761 181.076 440.287 181.241 440.024 181.524C439.766 181.808 439.478 182.481 439.173 183.548L438.826 184.755C438.627 185.47 438.526 185.982 438.526 186.304C438.526 187.003 439.013 187.35 439.986 187.35C440.685 187.35 441.663 187.062 442.907 186.478L443.796 183.396C444.004 182.651 444.11 182.155 444.11 181.918C444.11 181.618 444.004 181.406 443.788 181.27C443.576 181.131 443.204 181.054 442.666 181.029L442.768 180.707L442.776 180.699Z" fill="#13547C"/>
<path d="M454.63 181.397L453.241 186.248H453.673C454.803 186.248 455.629 186.1 456.15 185.808C456.67 185.516 457.111 184.995 457.471 184.25H457.792L456.378 189.102H456.057C456.116 188.78 456.137 188.513 456.137 188.314C456.137 187.976 456.04 187.701 455.841 187.485C455.642 187.273 455.379 187.116 455.062 187.027C454.854 186.968 454.422 186.934 453.762 186.934H453.047L451.844 191.134C451.738 191.506 451.688 191.777 451.688 191.959C451.688 192.099 451.755 192.214 451.891 192.298C452.09 192.421 452.462 192.484 453.013 192.484C454.071 192.484 455.066 192.26 455.997 191.816C456.929 191.367 457.767 190.694 458.508 189.788H458.889L457.576 193.221H446.938L447.052 192.899C447.649 192.899 448.089 192.781 448.364 192.539C448.639 192.302 448.885 191.773 449.114 190.96L451.434 182.887C451.565 182.438 451.628 182.083 451.628 181.824C451.628 181.587 451.544 181.409 451.37 181.282C451.201 181.155 450.807 181.071 450.189 181.028L450.265 180.707H460.417L459.592 183.84H459.27C459.244 183.226 459.151 182.794 458.978 182.54C458.715 182.146 458.368 181.858 457.932 181.676C457.5 181.498 456.797 181.405 455.82 181.405H454.63V181.397Z" fill="#13547C"/>
<path d="M473.863 180.414L472.931 184.377H472.61C472.563 183.293 472.296 182.484 471.797 181.947C471.297 181.413 470.645 181.146 469.845 181.146C468.981 181.146 468.118 181.511 467.263 182.239C466.407 182.967 465.679 184.076 465.082 185.575C464.6 186.786 464.358 187.988 464.358 189.169C464.358 190.227 464.621 191.036 465.15 191.595C465.679 192.154 466.403 192.433 467.322 192.433C468.067 192.433 468.749 192.272 469.358 191.955C469.972 191.633 470.59 191.116 471.217 190.393H471.653C470.882 191.536 470.108 192.336 469.324 192.797C468.537 193.259 467.584 193.487 466.45 193.487C464.93 193.487 463.706 193.03 462.783 192.12C461.856 191.205 461.391 190.012 461.391 188.542C461.391 187.167 461.763 185.854 462.5 184.601C463.236 183.348 464.299 182.336 465.688 181.566C467.076 180.795 468.452 180.41 469.824 180.41C470.345 180.41 470.992 180.516 471.767 180.736C472.165 180.842 472.44 180.897 472.593 180.897C472.902 180.897 473.215 180.736 473.533 180.414H473.854H473.863Z" fill="#13547C"/>
<path d="M478.414 186.624C479.239 186.556 479.917 186.34 480.454 185.98C480.988 185.621 481.542 184.825 482.105 183.601C482.503 182.738 482.821 182.128 483.066 181.768C483.312 181.408 483.625 181.12 483.994 180.9C484.362 180.68 484.777 180.57 485.234 180.57C485.738 180.57 486.132 180.697 486.411 180.955C486.695 181.213 486.839 181.548 486.839 181.954C486.839 182.255 486.733 182.522 486.521 182.75C486.309 182.979 486.022 183.097 485.662 183.097C485.488 183.097 485.344 183.068 485.226 183.004C485.107 182.945 484.917 182.801 484.65 182.581C484.366 182.344 484.142 182.225 483.972 182.225C483.778 182.225 483.613 182.306 483.477 182.475C483.346 182.64 483.147 183.013 482.889 183.593C482.47 184.537 482.089 185.227 481.75 185.663C481.415 186.099 481 186.45 480.522 186.709C480.971 186.882 481.31 187.162 481.538 187.555C481.767 187.945 482.105 188.859 482.55 190.294C482.91 191.463 483.193 192.17 483.409 192.424C483.621 192.678 484.006 192.835 484.548 192.89L484.447 193.211H480.645L479.189 188.554C479.019 188.025 478.871 187.695 478.74 187.56C478.609 187.428 478.431 187.361 478.202 187.361L477.245 190.697C477.025 191.463 476.911 191.962 476.911 192.187C476.911 192.606 477.283 192.843 478.02 192.89L477.927 193.211H472.152L472.254 192.89C472.77 192.835 473.126 192.767 473.317 192.691C473.511 192.61 473.698 192.441 473.875 192.174C474.057 191.912 474.256 191.404 474.472 190.654L476.572 183.33C476.788 182.581 476.894 182.077 476.894 181.81C476.894 181.298 476.424 181.031 475.493 181.014L475.594 180.693H481.407L481.305 181.014C480.734 181.12 480.319 181.34 480.065 181.683C479.807 182.018 479.527 182.742 479.21 183.847L478.414 186.62V186.624Z" fill="#13547C"/>
<path d="M493.417 189.169H489.54L488.744 190.138L487.85 191.192C487.677 191.425 487.55 191.633 487.469 191.823C487.406 191.963 487.376 192.111 487.376 192.255C487.376 192.403 487.452 192.543 487.609 192.67C487.766 192.797 488.028 192.873 488.396 192.89V193.212H484.633L484.726 192.89C485.06 192.835 485.357 192.716 485.615 192.534C485.962 192.285 486.457 191.772 487.109 190.993L496.034 180.414H496.453L496.047 190.65C496.025 191.184 496.017 191.51 496.017 191.624C496.017 192.048 496.097 192.357 496.267 192.551C496.436 192.742 496.715 192.856 497.105 192.886L497.012 193.208H491.567L491.669 192.886C492.211 192.835 492.52 192.793 492.6 192.759C492.774 192.67 492.935 192.488 493.075 192.213C493.218 191.937 493.303 191.459 493.333 190.773L493.409 189.169H493.417ZM493.417 188.415L493.663 184.334L490.179 188.415H493.417Z" fill="#13547C"/>
<path d="M513.022 180.699L512.92 181.021C512.311 181.101 511.917 181.203 511.735 181.322C511.553 181.44 511.388 181.592 511.227 181.77C511.07 181.952 510.863 182.486 510.609 183.371L508.437 190.906C508.264 191.512 508.175 191.914 508.175 192.126C508.175 192.621 508.64 192.875 509.567 192.888L509.466 193.209H503.861L504.009 192.888C504.555 192.782 504.923 192.562 505.122 192.219C505.317 191.876 505.478 191.503 505.592 191.105L506.68 187.32L506.473 187.312C506.096 187.312 505.791 187.388 505.567 187.541C505.338 187.689 505.067 187.977 504.745 188.392L501.066 193.214H497.15L497.252 192.892C497.722 192.862 498.111 192.689 498.42 192.371C498.73 192.054 499.017 191.706 499.293 191.321C500.317 189.882 501.109 188.857 501.68 188.248C502.252 187.642 503.031 187.227 504.021 186.994C502.167 186.609 501.236 185.669 501.236 184.183C501.236 183.32 501.63 182.524 502.413 181.791C503.196 181.063 504.453 180.695 506.193 180.695H513.018L513.022 180.699ZM508.344 181.563C508.001 181.465 507.688 181.415 507.404 181.415C506.443 181.415 505.685 181.745 505.122 182.401C504.563 183.062 504.28 183.807 504.28 184.636C504.28 185.123 504.398 185.53 504.627 185.86C504.86 186.19 505.122 186.406 505.419 186.503C505.715 186.605 506.198 186.66 506.866 186.681L508.344 181.563Z" fill="#13547C"/>
<path d="M329.003 200.501L329.168 199.921H346.64L344.892 206.013H344.24C344.273 205.535 344.29 205.196 344.29 204.98C344.29 203.731 343.892 202.787 343.101 202.144C342.305 201.504 340.827 201.179 338.664 201.179H336.966L334.358 210.298C335.967 210.319 337.284 210.395 338.291 210.514C339.303 210.636 340.269 210.95 341.183 211.462C342.102 211.974 342.783 212.601 343.228 213.35C343.672 214.099 343.897 214.933 343.897 215.839C343.897 217.262 343.406 218.532 342.423 219.662C341.441 220.784 340.298 221.538 338.99 221.915C337.686 222.296 336.056 222.482 334.1 222.482H323.508L323.69 221.902C324.642 221.847 325.341 221.55 325.785 221.021C326.23 220.488 326.721 219.281 327.259 217.397L330.955 204.57C331.336 203.27 331.53 202.427 331.53 202.029C331.53 201.555 331.37 201.2 331.052 200.975C330.739 200.747 330.053 200.59 328.995 200.497L329.003 200.501ZM331.243 221.064C331.734 221.169 332.195 221.229 332.631 221.229C334.566 221.229 336.048 220.577 337.081 219.277C338.114 217.977 338.63 216.542 338.63 214.971C338.63 214.32 338.448 213.706 338.088 213.147C337.728 212.58 337.258 212.207 336.687 212.016C336.115 211.83 335.209 211.733 333.965 211.733L331.247 221.064H331.243Z" fill="#13547C"/>
<path d="M364.197 199.921H375.094L374.912 200.501C374.154 200.514 373.553 200.624 373.117 200.853C372.681 201.073 372.312 201.441 372.003 201.957C371.703 202.474 371.313 203.515 370.852 205.09L367.152 218.041C366.805 219.256 366.631 220.06 366.631 220.462C366.631 221.394 367.469 221.876 369.158 221.91L368.993 222.49H358.028L358.21 221.91C359.328 221.91 360.154 221.648 360.679 221.127C361.204 220.598 361.754 219.357 362.321 217.385L365.53 206.233L353.583 219.087C353.414 219.683 353.333 220.153 353.333 220.492C353.333 221.44 354.189 221.91 355.899 221.91L355.734 222.49H344.803L344.985 221.91C346.047 221.91 346.852 221.627 347.406 221.059C347.965 220.492 348.499 219.328 348.998 217.571L352.694 204.697C353.117 203.228 353.333 202.309 353.333 201.941C353.333 201.585 353.198 201.267 352.927 200.988C352.66 200.709 351.945 200.552 350.785 200.505L350.967 199.925H361.966L361.784 200.505C360.59 200.505 359.726 200.806 359.197 201.411C358.668 202.017 358.122 203.278 357.571 205.196L354.417 216.182L366.369 203.329C366.517 202.775 366.593 202.343 366.593 202.042C366.593 201.013 365.738 200.505 364.027 200.505L364.192 199.925L364.197 199.921Z" fill="#13547C"/>
<path d="M377.421 200.501L377.586 199.921H395.058L393.31 206.013H392.658C392.691 205.535 392.708 205.196 392.708 204.98C392.708 203.731 392.31 202.787 391.523 202.144C390.727 201.504 389.25 201.179 387.086 201.179H385.389L382.781 210.298C384.389 210.319 385.706 210.395 386.714 210.514C387.725 210.636 388.691 210.95 389.601 211.462C390.52 211.974 391.201 212.601 391.646 213.35C392.09 214.099 392.315 214.933 392.315 215.839C392.315 217.262 391.824 218.532 390.841 219.662C389.859 220.784 388.716 221.538 387.408 221.915C386.104 222.296 384.474 222.482 382.518 222.482H371.926L372.108 221.902C373.06 221.847 373.759 221.55 374.203 221.021C374.648 220.488 375.139 219.281 375.677 217.397L379.373 204.57C379.754 203.27 379.948 202.427 379.948 202.029C379.948 201.555 379.788 201.2 379.47 200.975C379.157 200.747 378.471 200.59 377.412 200.497L377.421 200.501ZM379.661 221.064C380.152 221.169 380.613 221.229 381.049 221.229C382.984 221.229 384.466 220.577 385.499 219.277C386.532 217.977 387.048 216.542 387.048 214.971C387.048 214.32 386.866 213.706 386.506 213.147C386.146 212.58 385.676 212.207 385.109 212.016C384.538 211.83 383.632 211.733 382.387 211.733L379.669 221.064H379.661Z" fill="#13547C"/>
<path d="M420.631 199.921L420.465 200.501C419.077 200.548 418.128 200.933 417.616 201.665C417.108 202.398 416.613 203.587 416.13 205.243L412.434 218.109C412.121 219.188 411.964 219.946 411.964 220.39C411.964 221.305 412.811 221.809 414.505 221.91L414.323 222.49H403.391L403.573 221.91C404.378 221.91 405.017 221.783 405.479 221.538C405.94 221.288 406.313 220.886 406.588 220.335C406.863 219.785 407.244 218.638 407.735 216.898L412.273 201.187H405.17L402.998 209.019C402.117 212.237 401.313 214.866 400.58 216.915C399.844 218.964 398.993 220.45 398.027 221.373C397.058 222.296 396.012 222.761 394.89 222.761C394.175 222.761 393.57 222.533 393.07 222.08C392.566 221.618 392.316 221.064 392.316 220.395C392.316 219.81 392.515 219.294 392.918 218.858C393.311 218.422 393.815 218.202 394.425 218.202C395.081 218.202 395.648 218.566 396.122 219.298C396.436 219.794 396.715 220.043 396.969 220.043C397.651 220.043 398.265 219.387 398.815 218.075C399.37 216.767 400.267 213.964 401.512 209.671C402.756 205.378 403.383 202.821 403.383 202.008C403.383 201.009 402.579 200.51 400.978 200.51H400.36L400.542 199.93H420.618L420.631 199.921Z" fill="#13547C"/>
<path d="M436.116 199.921H447.014L446.831 200.501C446.074 200.514 445.472 200.624 445.036 200.853C444.6 201.073 444.232 201.441 443.923 201.957C443.618 202.474 443.233 203.515 442.771 205.09L439.071 218.041C438.724 219.256 438.551 220.06 438.551 220.462C438.551 221.394 439.389 221.876 441.082 221.91L440.917 222.49H429.952L430.134 221.91C431.252 221.91 432.077 221.648 432.602 221.127C433.127 220.598 433.678 219.357 434.245 217.385L437.454 206.233L425.507 219.087C425.338 219.683 425.257 220.153 425.257 220.492C425.257 221.44 426.112 221.91 427.823 221.91L427.658 222.49H416.727L416.909 221.91C417.971 221.91 418.776 221.627 419.33 221.059C419.889 220.492 420.422 219.328 420.922 217.571L424.618 204.697C425.041 203.228 425.257 202.309 425.257 201.941C425.257 201.585 425.122 201.267 424.851 200.988C424.584 200.709 423.869 200.552 422.709 200.505L422.891 199.925H433.889L433.707 200.505C432.514 200.505 431.65 200.806 431.121 201.411C430.592 202.017 430.045 203.278 429.495 205.196L426.341 216.182L438.292 203.329C438.441 202.775 438.517 202.343 438.517 202.042C438.517 201.013 437.662 200.505 435.951 200.505L436.116 199.925V199.921Z" fill="#13547C"/>
<path d="M454.134 222.995C452.305 222.995 450.827 222.626 449.701 221.881C448.575 221.136 447.732 220.124 447.165 218.842C446.598 217.555 446.318 216.306 446.318 215.086C446.318 212.631 447.025 210.15 448.444 207.656C449.862 205.159 451.771 203.16 454.172 201.662C456.576 200.159 458.951 199.409 461.292 199.409C462.664 199.409 463.964 199.757 465.2 200.442C466.432 201.128 467.393 202.081 468.079 203.313C468.765 204.545 469.108 205.781 469.108 207.034C469.108 209.837 468.21 212.644 466.411 215.463C464.616 218.283 462.596 220.323 460.357 221.585C458.659 222.525 456.589 222.999 454.134 222.999V222.995ZM460.763 200.739C459.878 200.739 459.129 200.9 458.507 201.217C457.889 201.53 457.245 202.064 456.576 202.805C455.903 203.55 455.222 204.608 454.531 205.988C453.833 207.373 453.185 209.248 452.58 211.619C451.97 213.994 451.665 215.975 451.665 217.559C451.665 218.913 451.962 219.934 452.55 220.632C453.143 221.322 453.905 221.67 454.828 221.67C456.06 221.67 457.101 221.267 457.965 220.454C459.671 218.842 461.064 216.483 462.143 213.376C463.223 210.26 463.761 207.496 463.761 205.065C463.761 203.546 463.477 202.445 462.897 201.759C462.321 201.077 461.61 200.739 460.763 200.739Z" fill="#13547C"/>
<path d="M474.731 199.922H492.995L491.28 205.98H490.696C490.717 205.658 490.73 205.375 490.73 205.129C490.73 203.978 490.374 203.08 489.663 202.441C488.956 201.806 487.75 201.442 486.06 201.353L481.166 218.384C480.887 219.333 480.743 220.035 480.743 220.488C480.743 220.908 480.921 221.251 481.264 221.496C481.611 221.746 482.314 221.881 483.372 221.902L483.224 222.482H471.992L472.2 221.902C473.347 221.902 474.181 221.687 474.706 221.255C475.231 220.823 475.709 219.858 476.145 218.355L481.039 201.344C479.333 201.399 477.902 201.776 476.755 202.479C475.608 203.177 474.558 204.337 473.601 205.972H472.949L474.731 199.913V199.922Z" fill="#13547C"/>
<path d="M503.053 201.182L500.551 209.929H501.326C503.367 209.929 504.853 209.662 505.793 209.133C506.728 208.604 507.524 207.664 508.172 206.322H508.756L506.207 215.069H505.623C505.725 214.484 505.771 214.006 505.771 213.646C505.771 213.032 505.594 212.541 505.234 212.147C504.874 211.762 504.404 211.483 503.828 211.318C503.451 211.212 502.677 211.152 501.487 211.152H500.196L498.024 218.726C497.829 219.395 497.74 219.891 497.74 220.212C497.74 220.466 497.859 220.674 498.104 220.826C498.464 221.046 499.137 221.161 500.124 221.161C502.029 221.161 503.824 220.758 505.509 219.954C507.19 219.15 508.701 217.93 510.039 216.296H510.725L508.362 222.49H489.176L489.383 221.91C490.463 221.91 491.25 221.694 491.746 221.262C492.241 220.83 492.69 219.882 493.092 218.413L497.279 203.854C497.512 203.041 497.626 202.402 497.626 201.936C497.626 201.513 497.474 201.187 497.165 200.962C496.855 200.734 496.148 200.581 495.035 200.505L495.171 199.925H513.476L511.99 205.573H511.406C511.36 204.468 511.19 203.684 510.881 203.231C510.407 202.524 509.781 201.999 508.997 201.674C508.214 201.352 506.948 201.187 505.187 201.187H503.041L503.053 201.182Z" fill="#13547C"/>
<path d="M523.086 210.606C524.572 210.487 525.8 210.094 526.765 209.442C527.731 208.79 528.726 207.359 529.742 205.149C530.457 203.595 531.033 202.49 531.477 201.842C531.922 201.195 532.481 200.674 533.15 200.276C533.819 199.878 534.564 199.679 535.389 199.679C536.295 199.679 537.006 199.912 537.514 200.377C538.027 200.843 538.285 201.444 538.285 202.181C538.285 202.727 538.09 203.201 537.709 203.616C537.328 204.031 536.807 204.239 536.164 204.239C535.851 204.239 535.592 204.183 535.381 204.073C535.165 203.968 534.822 203.709 534.344 203.311C533.831 202.888 533.425 202.672 533.12 202.672C532.764 202.672 532.468 202.82 532.231 203.121C531.99 203.417 531.638 204.09 531.168 205.14C530.411 206.842 529.725 208.083 529.111 208.874C528.505 209.662 527.765 210.293 526.897 210.758C527.71 211.071 528.319 211.575 528.73 212.282C529.14 212.985 529.75 214.632 530.55 217.223C531.194 219.327 531.71 220.601 532.1 221.063C532.481 221.524 533.175 221.799 534.157 221.901L533.975 222.481H527.121L524.496 214.082C524.196 213.129 523.925 212.532 523.692 212.291C523.459 212.054 523.133 211.935 522.722 211.935L520.999 217.947C520.601 219.331 520.394 220.229 520.394 220.635C520.394 221.397 521.063 221.816 522.392 221.905L522.227 222.485H511.812L511.995 221.905C512.926 221.804 513.565 221.685 513.912 221.55C514.259 221.41 514.598 221.101 514.916 220.618C515.242 220.14 515.602 219.23 515.991 217.879L519.776 204.675C520.165 203.324 520.36 202.41 520.36 201.935C520.36 201.013 519.513 200.534 517.828 200.5L518.01 199.92H528.493L528.311 200.5C527.278 200.687 526.537 201.089 526.08 201.703C525.618 202.308 525.11 203.616 524.539 205.606L523.099 210.61L523.086 210.606Z" fill="#13547C"/>
<path d="M550.138 215.2H543.148L541.709 216.948L540.1 218.849C539.787 219.268 539.558 219.645 539.414 219.984C539.3 220.238 539.249 220.5 539.249 220.763C539.249 221.029 539.385 221.279 539.673 221.512C539.956 221.745 540.43 221.876 541.091 221.91V222.49H534.309L534.478 221.91C535.079 221.808 535.613 221.597 536.082 221.271C536.705 220.822 537.602 219.89 538.779 218.493L554.871 199.421H555.625L554.888 217.884C554.854 218.849 554.837 219.433 554.837 219.636C554.837 220.403 554.985 220.957 555.29 221.309C555.591 221.656 556.103 221.859 556.802 221.914L556.636 222.494H546.819L547.001 221.914C547.979 221.825 548.538 221.745 548.682 221.681C548.995 221.52 549.283 221.194 549.537 220.695C549.795 220.199 549.947 219.332 550.007 218.104L550.142 215.212L550.138 215.2ZM550.138 213.841L550.582 206.479L544.3 213.841H550.134H550.138Z" fill="#13547C"/>
</svg>
