<svg width="148" height="250" viewBox="0 0 148 250" fill="none" xmlns="http://www.w3.org/2000/svg">
<path fill-rule="evenodd" clip-rule="evenodd" d="M73.4064 250C85.5005 239.922 98.0624 232.978 109.741 229.032C122.429 224.62 134.933 223.528 147.154 224.826V219.423C123.401 217.519 100.862 223.705 81.5041 237.292L73.6079 243.333C52.5942 225.459 27.7623 217.235 0.499895 219.425L0.501948 224.824C12.8643 223.526 25.3597 224.62 38.0545 229.032C46.8216 231.976 55.6211 236.538 64.5918 242.929L73.4062 249.616V250.001L73.4064 250ZM55.4086 221.281V219.933H54.0186C53.4265 219.933 53.0511 219.82 53.0104 219.55C52.8623 219.251 52.8602 219.009 52.8602 218.709L52.8623 214.588L55.1878 211.419L59.448 218.628L59.6733 219.004C59.6733 219.14 59.7354 219.219 59.7354 219.425C59.7354 219.55 59.6733 219.676 59.5982 219.727C59.5487 219.816 59.3729 219.865 59.3322 219.865C59.2872 219.933 59.2121 219.933 59.1412 219.933H57.4508V221.281H65.4371V219.933H65.0337C64.5232 219.933 64.0127 219.727 63.6329 219.469C63.1375 219.14 62.7664 218.709 62.4318 218.104L57.1139 208.981L60.5675 204.355L60.9022 204.077C60.9194 203.894 61.0974 203.82 61.1382 203.705C61.4707 203.461 61.8075 203.18 62.1851 202.991C62.6333 202.732 63.1375 202.66 63.7253 202.66H64.1092V201.292H57.1954V202.66H58.5726L58.8022 202.732C58.9587 202.783 59.0831 202.785 59.1411 202.838C59.287 202.989 59.287 203.117 59.287 203.282C59.287 203.461 59.287 203.501 59.2119 203.705C59.1431 203.818 59.0831 204.036 58.8944 204.278L53.0103 211.902H52.8621V203.894C52.8621 203.567 52.9352 203.282 53.0103 202.991C53.0982 202.783 53.4263 202.66 54.0162 202.66H55.4084V201.292H47.6024V202.66H49.0397C49.5544 202.66 49.9277 202.785 50.02 202.991C50.1187 203.259 50.2003 203.569 50.2003 203.894V218.709C50.2003 219.004 50.1187 219.253 50.02 219.55C49.9277 219.816 49.5524 219.933 49.0397 219.933H47.6024V221.281H55.4084H55.4086ZM90.0333 221.258V219.933H88.5702C87.9954 219.933 87.6756 219.82 87.504 219.55C87.4998 219.251 87.4183 219.009 87.4183 218.709V212.872H90.0612C92.0197 212.872 93.517 212.492 94.4759 211.766C95.4348 211.039 96.1276 210.234 96.5138 209.45C96.6145 209.049 96.769 208.66 96.8077 208.257C96.812 207.881 96.8677 207.598 96.8677 207.271C96.8677 205.064 96.1276 203.637 94.5402 202.838C93.06 202.108 91.2195 201.723 89.0164 201.723L82.212 201.719V203.042H83.6234C84.1748 203.042 84.5137 203.18 84.6059 203.46C84.7519 203.705 84.7496 203.992 84.7496 204.293L84.7519 218.709C84.7519 219.004 84.6918 219.253 84.6059 219.55C84.516 219.816 84.1726 219.932 83.6234 219.932H82.212V221.258H90.0331L90.0333 221.258ZM44.1812 215.863V214.461H42.7846C42.2333 214.461 41.8858 214.321 41.7592 214.064C41.6434 213.822 41.6434 213.497 41.6434 213.195V197.976C41.6434 197.622 41.6906 197.38 41.8343 197.235C41.8878 197.053 42.0659 196.982 42.3942 196.982C42.5593 196.982 42.6387 196.982 42.7525 197.053C42.8447 197.053 43.0055 197.053 43.1343 197.099C43.4454 197.233 43.7757 197.38 43.9945 197.624C44.3013 197.851 44.548 198.093 44.7904 198.425C44.9899 198.75 45.2064 199.094 45.4596 199.614C45.7277 200.052 45.8521 200.683 45.998 201.294C46.0387 201.921 46.1074 202.66 46.1074 203.501H47.3709V195.799H33.2967V203.501H34.4358C34.4358 202.515 34.5603 201.676 34.734 200.899C34.8284 200.209 35.0965 199.567 35.369 199.019C35.9375 198.044 36.6689 197.38 37.321 197.099L37.7393 196.982H38.1362C38.3915 196.982 38.6596 197.053 38.7583 197.178C38.9321 197.286 39.0007 197.499 39.0007 197.979L39.0029 213.195C39.0029 213.497 38.9321 213.824 38.7583 214.064C38.6897 214.319 38.3186 214.463 37.7373 214.463L36.3686 214.461V215.863H44.1812ZM106.439 214.795V213.49H105.053C104.412 213.49 104.067 213.314 103.944 213.104C103.848 212.872 103.846 212.543 103.846 212.239L103.848 205.162H111.403V212.239C111.403 212.543 111.345 212.813 111.188 213.104C111.163 213.314 110.766 213.49 110.12 213.49H108.767V214.795H116.583V213.49H115.223C114.638 213.49 114.26 213.314 114.189 213.104C114.11 212.808 114.093 212.543 114.093 212.239V197.851C114.093 197.496 114.11 197.235 114.189 196.982C114.296 196.698 114.635 196.566 115.223 196.566L116.583 196.564V195.268H108.767V196.564H110.124C110.768 196.564 111.16 196.698 111.188 196.982C111.347 197.233 111.403 197.499 111.403 197.851V203.818H103.848V197.851C103.848 197.496 103.846 197.235 103.944 196.982C104.067 196.698 104.412 196.566 104.961 196.566L106.439 196.564V195.268H98.5409V196.564H99.9952C100.559 196.564 100.896 196.698 101.04 196.982C101.124 197.233 101.149 197.499 101.149 197.851L101.154 212.239C101.154 212.543 101.121 212.813 100.961 213.104C100.898 213.314 100.555 213.49 99.9952 213.49H98.5409V214.795H106.439ZM87.4183 211.466V203.99C87.4183 203.705 87.4183 203.501 87.504 203.38C87.6799 203.259 87.7465 203.18 87.8195 203.18C87.8944 203.117 87.8944 203.042 87.9931 203.042H89.351C91.1359 203.042 92.2556 203.501 92.912 204.357C93.5577 205.202 93.8001 206.239 93.8001 207.271C93.8023 208.516 93.6114 209.376 93.1201 209.977C92.6482 210.564 92.1506 210.874 91.5735 211.137C91.3846 211.237 91.1852 211.279 91.0372 211.364C90.8633 211.419 90.6553 211.422 90.5051 211.422C90.2584 211.466 90.0333 211.468 89.675 211.468L87.4183 211.466V211.466ZM24.3772 211.237V209.85H22.9529C22.3779 209.85 22.0689 209.65 22.0111 209.45C21.8674 209.178 21.7795 208.896 21.7795 208.518L21.7815 201.543H22.6525C23.6865 201.543 24.3322 201.87 24.5917 202.518C24.7806 202.921 24.9027 203.282 24.9735 203.769C25.068 204.276 25.128 204.739 25.128 205.427L26.2477 205.423V196.258H25.1323C25.1323 196.84 25.0637 197.424 24.9735 197.979C24.8534 198.423 24.7354 198.864 24.5917 199.145C24.2528 199.812 23.6843 200.151 22.6504 200.151L21.7815 200.149V193.856C21.7815 193.45 21.8674 193.24 22.0111 192.938C22.0689 192.622 22.4445 192.554 22.9529 192.554H25.748C25.8638 192.554 26.0462 192.622 26.1384 192.622C26.4002 192.707 26.7155 192.84 27.0501 193.027C27.4898 193.335 27.9811 193.926 28.4316 194.737C28.824 195.498 29.1116 196.785 29.3261 198.338H30.4223V191.067H16.5518V192.554H17.989C18.5469 192.554 18.9502 192.622 19.0273 192.938C19.1431 193.136 19.1431 193.45 19.1431 193.856V208.516C19.1431 208.866 19.0788 209.181 19.0273 209.45C18.873 209.65 18.5469 209.85 17.987 209.85H16.5518V211.237H24.3772ZM127.534 208.516V207.122H126.187C125.61 207.122 125.194 206.98 125.112 206.719C125.108 206.47 125.02 206.239 125.02 205.865L125.022 191.037C125.022 190.691 125.106 190.466 125.112 190.343C125.29 190.162 125.464 190.073 125.801 190.073C125.925 190.073 125.996 190.073 126.078 190.09C126.221 190.162 126.367 190.164 126.511 190.245C126.816 190.343 127.105 190.478 127.406 190.691C127.682 190.895 127.905 191.175 128.113 191.456C128.418 191.764 128.59 192.161 128.785 192.622C129.042 193.089 129.195 193.656 129.31 194.244C129.418 194.907 129.454 195.651 129.454 196.451H130.651V188.922H116.639V196.451H117.802C117.802 195.491 117.881 194.595 118.087 193.926C118.218 193.24 118.433 192.622 118.711 192.084C119.312 191.067 119.958 190.478 120.661 190.245L121.103 190.073H121.513C121.807 190.073 121.978 190.09 122.159 190.245C122.298 190.364 122.296 190.638 122.296 191.039L122.298 205.865C122.298 206.235 122.296 206.473 122.159 206.719C122.097 206.98 121.708 207.122 121.101 207.122H119.797V208.516H127.534ZM7.97762 207.076V205.653H6.56621C5.98694 205.653 5.62664 205.633 5.58148 205.34C5.48293 205.064 5.39705 204.739 5.39705 204.425L5.39928 198.48H8.06128C10.0906 198.48 11.5321 198.093 12.4933 197.379C13.4457 196.651 14.085 195.876 14.5118 195C14.6106 194.593 14.7135 194.206 14.8058 193.856C14.8593 193.429 14.8593 193.091 14.8593 192.747C14.8593 190.478 14.085 189.038 12.5726 188.197C11.0538 187.403 9.21333 187.008 7.00589 187.008H0.156538V188.427H1.57222C2.18144 188.427 2.44541 188.531 2.59117 188.826C2.68133 189.038 2.73488 189.404 2.73488 189.724V204.423C2.73488 204.739 2.73488 205.066 2.59117 205.34C2.44969 205.629 2.18144 205.655 1.64955 205.655L0.156538 205.652V207.076H7.97745L7.97762 207.076ZM140.094 206.717L141.458 206.676H142.177C142.415 206.615 142.713 206.615 142.992 206.534C144.223 206.288 145.317 205.723 146.351 204.945C147.345 204.166 147.829 202.838 147.829 201.075C147.829 200.738 147.744 200.396 147.744 200.054C147.641 199.661 147.57 199.28 147.454 198.951C147.081 197.976 146.351 197.178 145.363 196.377C144.35 195.57 142.784 195.166 140.637 195.166L137.925 195.164V189.741C137.925 189.412 137.975 189.18 138.039 188.924C138.168 188.626 138.517 188.531 139.101 188.531L140.444 188.526C141.602 188.526 142.657 188.826 143.545 189.306C144.459 189.741 145.045 191.232 145.219 193.724H146.394V187.203H132.64V188.526H134.122C134.695 188.526 134.997 188.628 135.047 188.924C135.152 189.18 135.152 189.414 135.152 189.741V204.166C135.152 204.471 135.152 204.739 135.047 205.009C134.999 205.202 134.615 205.427 134.118 205.427L132.64 205.423V206.716H140.094V206.717ZM139.101 205.423C138.519 205.423 138.166 205.202 138.039 205.009C137.979 204.739 137.923 204.472 137.923 204.17L137.925 196.564H140.684C140.858 196.564 141.064 196.566 141.293 196.653C141.583 196.698 141.739 196.785 141.935 196.84C142.657 197.053 143.279 197.499 143.949 198.093C144.541 198.75 144.788 199.733 144.788 201.075C144.79 202.293 144.539 203.18 143.874 203.82C143.245 204.472 142.563 204.945 141.935 205.162C141.602 205.202 141.34 205.277 141.293 205.277C141.216 205.34 141.167 205.34 141.064 205.34C140.864 205.34 140.78 205.34 140.572 205.428L139.101 205.423V205.423ZM5.39928 197.097V189.402C5.39928 189.119 5.48293 188.924 5.52365 188.826C5.62664 188.59 5.73819 188.531 5.78318 188.531C5.84118 188.437 5.91628 188.437 5.98488 188.427H7.40279C9.17894 188.427 10.2795 188.856 10.8757 189.725C11.5321 190.636 11.8841 191.709 11.8841 192.747C11.8841 194.039 11.603 194.829 11.1053 195.498C10.6441 196.082 10.1421 196.519 9.54574 196.698C9.40203 196.84 9.21333 196.874 9.0159 196.983C8.83353 197.053 8.69838 197.053 8.48401 197.053C8.22004 197.053 7.97762 197.099 7.72887 197.099L5.39928 197.097V197.097ZM73.921 195.651C103.451 179.357 127.491 174.737 147.703 178.27L147.705 85.4412C125.801 81.3652 102.49 87.1744 82.2096 98.8586L73.921 104.128L65.5636 98.8565C45.3693 87.1744 22.0689 81.3672 0.0792099 85.4434V178.365C20.3722 174.812 44.4041 179.357 73.921 195.651ZM115.886 171.384C106.164 171.195 91.7063 166.895 76.0147 159.23L74.2556 158.374L72.5181 159.23C56.348 167.102 41.6088 171.411 31.8249 171.36C26.4428 171.36 22.6504 169.984 21.0929 167.102C17.9074 161.36 24.4588 150.976 36.9669 139.94L40.6244 136.862L36.9712 133.748C24.4608 122.71 17.9074 112.395 21.0929 106.667C25.5184 98.5998 47.3773 102.238 72.5161 114.428L74.2558 115.347L76.0191 114.428C101.124 102.236 123.077 98.6016 127.406 106.667C130.581 112.391 124.098 122.712 111.594 133.748L107.898 136.862L111.594 139.94C124.098 150.976 130.581 161.363 127.492 167.102C125.835 170.12 121.712 171.492 115.886 171.384H115.886ZM34.0452 167.204C34.5987 167.216 35.1714 167.21 35.7721 167.176C43.295 166.985 54.5399 163.616 67.1081 157.837L70.2315 156.354L65.0832 153.491C57.7747 149.33 51.0368 144.918 45.1312 140.437L43.5331 139.154L41.39 140.893C29.9759 150.5 23.8622 159.421 26.3978 164.015C27.4896 166.05 30.1689 167.131 34.045 167.204H34.0452ZM114.543 167.204C118.355 167.127 121.026 166.05 122.158 164.015C124.733 159.419 118.527 150.502 107.138 140.893L105.053 139.154L103.369 140.434C97.4744 144.916 90.6895 149.33 83.3938 153.491L78.2862 156.354L81.4504 157.837C93.952 163.614 105.227 166.987 112.846 167.176C113.436 167.21 114.001 167.216 114.543 167.204H114.543ZM74.2558 154.262L81.6073 150.36C88.2508 146.632 94.3322 142.677 99.7186 138.71L102.151 136.862L99.7207 135.027C94.3364 131.061 88.2486 127.14 81.603 123.313L74.2558 119.464L66.8573 123.308C60.2567 127.14 54.1368 131.061 48.7675 135.031L46.3907 136.862L48.7718 138.71C54.1368 142.675 60.2546 146.632 66.8552 150.36L74.2558 154.262ZM43.5333 134.538L45.1313 133.285C51.0391 128.837 57.7726 124.375 65.0834 120.139L70.2317 117.382L67.1125 115.885C46.6866 106.486 29.7167 103.604 26.3981 109.702C23.809 114.307 29.9762 123.124 41.3903 132.835L43.5335 134.538L43.5333 134.538ZM105.053 134.538L107.179 132.832C118.527 123.121 124.733 114.309 122.159 109.702C118.795 103.602 101.831 106.488 81.4485 115.887L78.2866 117.382L83.3942 120.137C90.6899 124.373 97.4727 128.839 103.368 133.287L105.054 134.538L105.053 134.538ZM74.0649 97.1808V96.9322L82.6625 91.9239C103.625 80.4711 124.934 74.8806 147.829 79.3262V72.9116C125.469 68.1729 103.846 72.8223 82.7461 85.061L73.9212 90.6536L65.0834 85.0588C43.9966 72.8223 22.3738 68.1749 0 72.9137V79.324C22.8284 74.8806 44.1767 80.4711 65.0834 91.9259L73.726 96.9322V97.1149L73.9212 97.0788L74.0649 97.1808ZM74.8499 80.8598L82.8878 76.2082C91.8671 71.5353 100.96 68.2899 110.12 66.4588L113.859 65.8748L113.666 61.9707C112.701 50.9472 110.219 40.2504 106.351 30.9877L106.214 30.7815C98.44 33.8592 90.5049 35.6966 82.2098 36.6971L74.8498 37.3067V80.8598H74.8499ZM71.7674 80.1907V37.3067L69.1997 37.1707C58.5084 36.3933 50.0199 33.5831 41.609 30.7815L41.5125 30.9854C37.5246 40.2504 35.0963 50.9472 34.1439 61.9729L33.9101 65.8748L37.6663 66.4588C46.8945 68.2899 55.9879 71.5354 64.9651 76.2124L71.7674 80.1907ZM0.589883 66.3273C9.99191 64.6067 19.2569 64.184 28.4466 65.0486L31.9924 65.5434L32.162 62.6166C33.0608 50.9472 35.6007 39.6474 39.657 29.7706L39.6612 29.626L36.111 27.2472C33.2064 25.0827 30.4671 22.6402 27.8523 19.7601L26.0998 17.5405L24.2528 19.1377C18.6819 24.3077 13.819 30.3504 9.94692 37.3087C4.68279 46.5227 1.64972 56.423 0.589883 66.3273ZM147.154 66.3273C146.156 56.4209 143.102 46.5227 137.923 37.3087C133.972 30.3504 129.092 24.312 123.579 19.1377L121.71 17.5405L119.887 19.7601C117.392 22.6404 114.561 25.0829 111.669 27.2492L108.106 29.626L108.207 29.7684C112.24 39.645 114.705 50.9472 115.575 62.6186L115.803 65.5434L119.312 65.0082C128.508 64.184 137.848 64.6067 147.154 66.3273H147.154ZM74.8499 34.3181L77.2654 34.2373C85.7043 33.7191 100.162 31.0322 104.91 28.2477L105.053 28.1732L103.848 25.565C102.887 23.8189 101.913 22.1834 100.96 20.6117C93.8022 9.37141 84.9921 3.53861 76.2057 2.8738L74.8499 2.96943V34.3179V34.3181ZM71.7674 34.1906V2.87397H71.6537C62.7686 3.53673 54.0164 9.37363 46.8926 20.5142C45.8543 22.1836 44.8826 23.8191 43.9945 25.5694L42.7846 28.1734L42.8447 28.2478C49.22 30.4929 57.1955 32.7975 65.5593 33.8043L71.7674 34.1908V34.1906ZM40.9269 26.9392L42.2805 24.0249C43.1836 22.1834 44.2518 20.3717 45.2793 18.7084C51.642 8.44107 59.2872 2.25158 67.207 0.20598L68.2581 0H68.153C54.9219 1.00047 42.1583 5.60748 31.1904 13.4664L28.1443 15.7922L29.3263 17.1516C31.9926 20.2505 34.8778 22.9204 38.0546 25.1208L40.9271 26.9391L40.9269 26.9392ZM106.827 26.9392L109.745 25.121C112.853 22.9184 115.803 20.2526 118.433 17.1538L119.632 15.7924L116.583 13.4643C111.105 9.53701 105.163 6.42524 98.9462 4.16117L80.6075 0.210428L92.1439 6.3681C95.8401 9.44805 99.3386 13.5644 102.49 18.7086C103.625 20.3718 104.607 22.1836 105.549 24.0251L106.827 26.9394L106.827 26.9392ZM80.5389 0.195544L79.6465 0.00017108H79.5907L80.5389 0.195544Z" fill="#F8F8F8"/>
</svg>
