<svg width="240" height="40" viewBox="0 0 240 40" fill="none" xmlns="http://www.w3.org/2000/svg">
<path d="M0 20C0 8.95431 8.95431 0 20 0H220C231.046 0 240 8.95431 240 20C240 31.0457 231.046 40 220 40H20C8.9543 40 0 31.0457 0 20Z" fill="white"/>
<path d="M75.8076 10C70.9512 10 67 13.9512 67 18.8076C67 23.6642 70.9512 27.6152 75.8076 27.6152C80.6642 27.6152 84.6152 23.6642 84.6152 18.8076C84.6152 13.9512 80.6642 10 75.8076 10ZM75.8076 25.9892C71.8477 25.9892 68.626 22.7675 68.626 18.8076C68.626 14.8477 71.8477 11.626 75.8076 11.626C79.7675 11.626 82.9891 14.8477 82.9891 18.8076C82.9891 22.7675 79.7675 25.9892 75.8076 25.9892Z" fill="black"/>
<path d="M86.762 28.6124L82.1007 23.9511C81.7831 23.6335 81.2687 23.6335 80.9511 23.9511C80.6335 24.2684 80.6335 24.7834 80.9511 25.1007L85.6124 29.762C85.7711 29.9208 85.979 30.0002 86.1872 30.0002C86.395 30.0002 86.6031 29.9208 86.762 29.762C87.0796 29.4446 87.0796 28.9297 86.762 28.6124Z" fill="black"/>
</svg>
