<svg width="14" height="14" viewBox="0 0 13 13" fill="none" xmlns="http://www.w3.org/2000/svg">
<path d="M5.72488 0C2.56827 0 0 2.56827 0 5.72488C0 8.88167 2.56827 11.4498 5.72488 11.4498C8.88167 11.4498 11.4498 8.88167 11.4498 5.72488C11.4498 2.56827 8.88167 0 5.72488 0ZM5.72488 10.3929C3.15098 10.3929 1.0569 8.29881 1.0569 5.7249C1.0569 3.151 3.15098 1.0569 5.72488 1.0569C8.29878 1.0569 10.3929 3.15098 10.3929 5.72488C10.3929 8.29878 8.29878 10.3929 5.72488 10.3929Z" fill="black"/>
<path d="M12.8459 12.0981L9.81614 9.06829C9.60969 8.86184 9.27535 8.86184 9.0689 9.06829C8.86245 9.27456 8.86245 9.60926 9.0689 9.81553L12.0987 12.8453C12.2019 12.9485 12.337 13.0001 12.4723 13.0001C12.6074 13.0001 12.7427 12.9485 12.8459 12.8453C13.0524 12.639 13.0524 12.3043 12.8459 12.0981Z" fill="black"/>
</svg>
