<svg width="34" height="35" viewBox="0 0 34 35" fill="none" xmlns="http://www.w3.org/2000/svg">
<path d="M30.9165 5.25H15.1665V6.41667H30.9165V5.25Z" fill="black"/>
<path d="M25.0832 7.5835H15.1665V8.75016H25.0832V7.5835Z" fill="black"/>
<path d="M25.0832 9.9165H15.1665V11.0832H25.0832V9.9165Z" fill="black"/>
<path d="M30.9168 2.9165H19.8335V4.08317H30.9168V2.9165Z" fill="black"/>
<path d="M18.6667 2.9165H17.5V4.08317H18.6667V2.9165Z" fill="black"/>
<path d="M17.5002 23.3335H16.3335V24.5002H17.5002V23.3335Z" fill="black"/>
<path d="M9.16229 3.91224L8.33746 3.0874L7.17079 4.25407C6.94307 4.48186 6.94307 4.85111 7.17079 5.0789L8.33746 6.24557L9.16229 5.42074L8.40804 4.66649L9.16229 3.91224Z" fill="black"/>
<path d="M13.8289 4.25407L12.6622 3.0874L11.8374 3.91224L12.5917 4.66649L11.8374 5.42074L12.6622 6.24557L13.8289 5.0789C14.0566 4.85111 14.0566 4.48186 13.8289 4.25407Z" fill="black"/>
<path d="M10.5305 2.73151L9.36279 6.23145L10.4689 6.60051L11.6367 3.10057L10.5305 2.73151Z" fill="black"/>
<path d="M29.7502 18.0833V13.4167H28.5835V18.0833H27.4168V12.25H26.2502V18.0833H25.0835V15.1667H23.9168V18.0833H22.7502V14.5833H21.5835V18.0833H20.4168V15.75H19.2502V18.0833H18.0835V19.25H30.9168V18.0833H29.7502Z" fill="black"/>
<path d="M30.3333 0H3.5C1.56778 0.00189583 0.00189583 1.56778 0 3.5V14.9485V14.9537V21.5833V23.3333C0.00189583 25.2656 1.56778 26.8314 3.5 26.8333H10.7228L8.3895 31.5H5.25C4.28349 31.5 3.5 32.2835 3.5 33.25C3.5 34.2165 4.28349 35 5.25 35H28.5833C29.5498 35 30.3333 34.2165 30.3333 33.25C30.3333 32.2835 29.5498 31.5 28.5833 31.5H25.4438L23.1105 26.8333H30.3333C32.2656 26.8314 33.8314 25.2656 33.8333 23.3333V3.5C33.8314 1.56778 32.2656 0.00189583 30.3333 0ZM1.16667 8.2075L2.49258 9.786C2.60342 9.91805 2.76704 9.99425 2.93942 9.99425H4.725C4.89738 9.99425 5.061 9.91805 5.17183 9.786L6.49833 8.2075L7.80733 8.63275L7.952 10.6878C7.96396 10.8597 8.05131 11.0175 8.19058 11.1189L9.6355 12.1689C9.77528 12.2698 9.95232 12.3042 10.1197 12.2628L12.1222 11.7653L12.9319 12.8788L11.8405 14.6288C11.7501 14.7755 11.7292 14.9547 11.7833 15.1182L12.3357 16.8163C12.3889 16.9801 12.5116 17.1121 12.6712 17.1768L14.5833 17.9521V19.3287L12.67 20.104C12.5101 20.1685 12.3872 20.3008 12.3346 20.4651L12.1596 21H8.799C10.1062 18.263 8.94717 14.9844 6.21017 13.6772C4.60257 12.9094 2.72234 12.969 1.16667 13.8372V8.2075ZM1.16667 15.225C3.05346 13.753 5.77631 14.0893 7.24821 15.9762C8.38469 17.4329 8.47241 19.4501 7.46667 21H1.16667V15.225ZM28.5833 32.6667C28.9055 32.6667 29.1667 32.9279 29.1667 33.25C29.1667 33.5721 28.9055 33.8333 28.5833 33.8333H5.25C4.92785 33.8333 4.66667 33.5721 4.66667 33.25C4.66667 32.9279 4.92785 32.6667 5.25 32.6667H28.5833ZM24.1395 31.5H9.69383L12.0272 26.8333H21.8062L24.1395 31.5ZM32.6667 23.3333C32.6667 24.622 31.622 25.6667 30.3333 25.6667H3.5C2.21134 25.6667 1.16667 24.622 1.16667 23.3333V22.1667H7.77117H7.77642H32.6667V23.3333ZM32.6667 21H13.5654L15.386 20.2621C15.6059 20.1728 15.7499 19.9593 15.75 19.7219V17.5583C15.7501 17.3208 15.6061 17.1069 15.386 17.0176L13.3583 16.1974L12.9745 15.0162L14.1307 13.1612C14.2561 12.9596 14.2468 12.7022 14.1073 12.5102L12.8357 10.7602C12.696 10.5679 12.4538 10.4795 12.2232 10.5367L10.1022 11.0617L9.1 10.3337L8.94658 8.15792C8.92988 7.92072 8.77085 7.71735 8.54467 7.644L6.48842 6.9755C6.26216 6.90346 6.01482 6.97455 5.86133 7.15575L4.45725 8.827H3.213L1.80833 7.15575C1.65477 6.97433 1.40707 6.90317 1.18067 6.9755L1.16667 6.98075V3.5C1.16667 2.21134 2.21134 1.16667 3.5 1.16667H30.3333C31.622 1.16667 32.6667 2.21134 32.6667 3.5V21Z" fill="black"/>
</svg>
