<svg width="31" height="35" viewBox="0 0 31 35" fill="none" xmlns="http://www.w3.org/2000/svg">
<path d="M12.2602 23.2699L12.4255 23.1047C12.7181 23.2542 13.0225 23.3804 13.3361 23.4823V23.7154C13.3361 24.294 13.8068 24.7648 14.3855 24.7648H16.1758C16.7544 24.7648 17.2252 24.294 17.2252 23.7154V23.4821C17.5377 23.3805 17.8419 23.2542 18.1355 23.1044L18.3011 23.2699C18.7079 23.6768 19.3722 23.6776 19.7837 23.2699L21.0509 22.0027C21.4577 21.5959 21.4584 20.9316 21.0509 20.5201L20.8856 20.3548C21.0351 20.0622 21.1613 19.7578 21.2632 19.4441H21.4963C22.0739 19.4441 22.5438 18.9734 22.5438 18.3948V16.6044C22.5438 16.0258 22.0739 15.555 21.4963 15.555H21.263C21.1614 15.2426 21.0351 14.9382 20.8853 14.6447L21.0509 14.479C21.4577 14.0722 21.4584 13.4079 21.0506 12.9962L19.7837 11.7312C19.5856 11.5331 19.3222 11.4241 19.0418 11.4241C19.0409 11.4241 19.0401 11.4241 19.0392 11.4241C18.7588 11.4248 18.4961 11.5345 18.3019 11.7305L18.1363 11.8953C17.8425 11.7452 17.5379 11.6188 17.2252 11.517V11.2838C17.2252 10.7062 16.7545 10.2363 16.1758 10.2363H14.3855C13.8069 10.2363 13.3361 10.7062 13.3361 11.2838V11.5169C13.0222 11.6188 12.7175 11.7452 12.4246 11.8949L12.2618 11.7329C12.0645 11.5337 11.8006 11.4241 11.5188 11.4241C11.237 11.4241 10.9732 11.5337 10.7779 11.7309L9.50863 12.9981C9.10292 13.4078 9.10367 14.0721 9.51034 14.479L9.67598 14.6446C9.5262 14.9382 9.39988 15.2425 9.29822 15.555H9.06498C8.48741 15.555 8.01758 16.0257 8.01758 16.6044V18.3947C8.01758 18.9734 8.48748 19.4441 9.06498 19.4441H9.29809C9.39994 19.7577 9.5262 20.0621 9.6757 20.3548L9.50863 20.5218C9.10292 20.9315 9.10367 21.5958 9.51034 22.0027L10.7775 23.2699C11.1843 23.6768 11.8487 23.6776 12.2602 23.2699ZM10.2354 21.2451L10.6733 20.8072C10.8393 20.6413 10.8713 20.3839 10.7513 20.1824C10.4963 19.7544 10.304 19.2909 10.1798 18.8046C10.1218 18.5776 9.91736 18.4188 9.68309 18.4188H9.06505C9.05459 18.4188 9.04297 18.4089 9.04297 18.3948V16.6044C9.04297 16.5915 9.05514 16.5804 9.06505 16.5804H9.68309C9.91742 16.5804 10.1219 16.4216 10.1798 16.1945C10.3032 15.7114 10.4956 15.2476 10.7518 14.816C10.8713 14.6145 10.839 14.3576 10.6734 14.1919L10.2355 13.754C10.2284 13.7469 10.228 13.7289 10.2352 13.7216L11.5043 12.4545C11.511 12.4476 11.5244 12.4452 11.536 12.4569L11.9739 12.8929C12.14 13.0582 12.3969 13.0899 12.598 12.97C13.026 12.715 13.4895 12.5227 13.9757 12.3985C14.2027 12.3406 14.3615 12.1361 14.3615 11.9018V11.2838C14.3615 11.2729 14.3736 11.2617 14.3855 11.2617H16.1759C16.1878 11.2617 16.1999 11.2729 16.1999 11.2838V11.9018C16.1999 12.1361 16.3587 12.3406 16.5857 12.3985C17.0687 12.5219 17.5325 12.7144 17.9642 12.9705C18.1653 13.0899 18.4218 13.0579 18.5876 12.8929L19.028 12.4545C19.0294 12.453 19.033 12.4493 19.0418 12.4493H19.0418C19.052 12.4493 19.057 12.4543 19.0591 12.4564L20.3243 13.7196C20.3336 13.7289 20.3331 13.7469 20.326 13.7539L19.8881 14.1918C19.7224 14.3575 19.6902 14.6144 19.8097 14.8159C20.0659 15.2476 20.2582 15.7113 20.3817 16.1945C20.4397 16.4215 20.6441 16.5803 20.8784 16.5803H21.4964C21.5064 16.5803 21.5186 16.5914 21.5186 16.6044V18.3947C21.5186 18.4089 21.5069 18.4187 21.4964 18.4187H20.8784C20.644 18.4187 20.4396 18.5775 20.3817 18.8046C20.2575 19.2908 20.0652 19.7544 19.8102 20.1823C19.6901 20.3839 19.7222 20.6413 19.8881 20.8072L20.3243 21.2433C20.3336 21.2527 20.3331 21.2706 20.326 21.2776L19.0606 22.5431C19.0511 22.5526 19.0334 22.5519 19.0263 22.5448L18.5884 22.1069C18.4226 21.9412 18.1657 21.9089 17.9643 22.0285C17.5326 22.2847 17.0688 22.4771 16.5858 22.6005C16.3588 22.6585 16.2 22.8629 16.2 23.0972V23.7153C16.2 23.7268 16.1874 23.7394 16.1759 23.7394H14.3856C14.3741 23.7394 14.3615 23.7268 14.3615 23.7153V23.0972C14.3615 22.8629 14.2027 22.6584 13.9757 22.6005C13.4896 22.4764 13.0261 22.2841 12.5981 22.029C12.5166 21.9804 12.4259 21.9568 12.3358 21.9568C12.2032 21.9568 12.072 22.0081 11.9731 22.1069L11.537 22.5431C11.5274 22.5526 11.5099 22.552 11.5027 22.5449L10.2354 21.2778C10.2284 21.2707 10.2279 21.2528 10.2354 21.2451Z" fill="black"/>
<path d="M12.4624 18.2751L14.1694 19.802C14.2637 19.8864 14.3855 19.9326 14.5112 19.9326C14.5231 19.9326 14.535 19.9322 14.5469 19.9313C14.685 19.9217 14.8134 19.8566 14.9028 19.7508L18.1462 15.9124C18.329 15.6961 18.3018 15.3727 18.0855 15.1899C17.8693 15.0072 17.5457 15.0343 17.363 15.2506L14.4599 18.6862L13.1459 17.5109C12.9349 17.3221 12.6107 17.3403 12.4221 17.5513C12.2333 17.7623 12.2513 18.0864 12.4624 18.2751Z" fill="black"/>
<path d="M8.37062 26.7095C5.45187 24.5069 3.77857 21.1514 3.77857 17.4997C3.77857 11.8905 7.82887 7.10825 13.2915 6.14411V7.39707C13.2915 7.40021 13.2915 7.40343 13.2916 7.40664C13.3015 7.93389 13.5584 8.38131 13.979 8.60348C14.3897 8.82045 14.8793 8.78969 15.2885 8.52144C15.296 8.51645 15.3035 8.51133 15.3107 8.50599L19.4614 5.45908C19.8818 5.19767 20.1223 4.8029 20.1223 4.3725C20.1222 3.94198 19.8816 3.54713 19.461 3.28573L15.3105 0.240791C15.3033 0.235459 15.2959 0.2304 15.2884 0.22541C14.8793 -0.0429011 14.3897 -0.0735261 13.9789 0.143447C13.5583 0.365615 13.3014 0.813028 13.2915 1.34028C13.2915 1.34343 13.2915 1.34664 13.2915 1.34979V2.31167C10.1603 2.72326 7.28172 4.06926 4.94164 6.22135C4.73321 6.41303 4.71967 6.73733 4.91135 6.94576C5.10303 7.15412 5.42719 7.16772 5.63576 6.97604C7.92601 4.86982 10.7685 3.59102 13.8558 3.27807C14.1177 3.25155 14.3169 3.03109 14.3169 2.76804V1.35519C14.3206 1.20657 14.3718 1.09556 14.4578 1.05003C14.5323 1.01072 14.6263 1.0207 14.7172 1.0771L18.8721 4.12518C18.8846 4.13434 18.8974 4.14288 18.9107 4.15088C19.0256 4.22006 19.0969 4.3049 19.0969 4.37244C19.0969 4.43991 19.0255 4.52481 18.9107 4.59399C18.8972 4.60212 18.8841 4.61081 18.8715 4.6201L14.7172 7.66975C14.6261 7.72615 14.5322 7.73606 14.4579 7.69676C14.3718 7.6513 14.3205 7.54021 14.3169 7.3916V5.54856C14.3169 5.40152 14.2537 5.26159 14.1435 5.16424C14.0334 5.06697 13.8868 5.02144 13.7407 5.0399C7.47682 5.82234 2.75325 11.1789 2.75325 17.4996C2.75325 19.5074 3.2131 21.4259 4.12009 23.2019C4.9847 24.8949 6.24703 26.3954 7.77069 27.5412C7.78225 27.5498 7.79414 27.558 7.80631 27.5656C8.26028 27.8506 8.50645 28.237 8.48143 28.6257C8.46338 28.9058 8.30048 29.1499 8.05623 29.2625C7.7078 29.4232 7.23407 29.3104 6.75638 28.9529C3.26334 26.3403 1.17476 22.3486 1.02532 18.0004V16.9986C1.12841 13.9793 2.16235 11.1225 4.01564 8.73637C4.18934 8.51276 4.14887 8.19072 3.92527 8.01702C3.70173 7.84339 3.37955 7.88372 3.20592 8.10746C1.21755 10.6675 0.109033 13.7331 0.000273418 16.9728C6.83396e-05 16.9785 0 16.9842 0 16.99V18.0091C0 18.0149 6.83396e-05 18.0207 0.000273418 18.0264C0.157842 22.6906 2.39648 26.9724 6.14223 29.774C6.6593 30.1608 7.20454 30.3597 7.71628 30.3597C7.985 30.3597 8.24449 30.3049 8.48573 30.1935C9.07219 29.9231 9.46259 29.3474 9.5047 28.6913C9.55406 27.9218 9.14103 27.2005 8.37062 26.7095Z" fill="black"/>
<path d="M29.0208 10.6598C28.0045 8.62647 26.517 6.81173 24.7187 5.41097C24.0008 4.8129 23.1832 4.62593 22.4745 4.89828C21.8585 5.13501 21.4187 5.68954 21.3265 6.34545C21.2257 7.0635 21.5479 7.76192 22.2122 8.26286C25.1537 10.4627 26.8408 13.8294 26.8408 17.4996C26.8408 23.1105 22.7904 27.893 17.3278 28.8555V27.6022C17.3278 27.5991 17.3278 27.5959 17.3277 27.5927C17.3179 27.0671 17.0615 26.6205 16.6418 26.3981C16.2313 26.1807 15.7417 26.2102 15.3319 26.4772C15.324 26.4824 15.3163 26.4878 15.3086 26.4933L11.158 29.5402C10.7376 29.8016 10.4971 30.1964 10.4971 30.6269C10.4971 31.0573 10.7376 31.452 11.158 31.7134L15.3086 34.7603C15.3161 34.7659 15.324 34.7713 15.3319 34.7765C15.5597 34.925 15.8122 35 16.0621 35C16.2616 35 16.4595 34.9521 16.6418 34.8555C17.0615 34.6331 17.318 34.1865 17.3277 33.6609C17.3278 33.6578 17.3278 33.6546 17.3278 33.6514V32.6876C20.3455 32.2911 23.1419 31.0192 25.441 28.9924C25.6533 28.8052 25.6738 28.4812 25.4865 28.2688C25.2994 28.0564 24.9754 28.036 24.7629 28.2233C22.509 30.2103 19.7428 31.4199 16.7635 31.7211C16.5017 31.7475 16.3024 31.968 16.3024 32.2311V33.6458C16.2988 33.7934 16.2476 33.904 16.1617 33.9495C16.087 33.9891 15.9926 33.9796 15.9016 33.9236L11.7478 30.8744C11.7351 30.8651 11.7221 30.8564 11.7087 30.8483C11.5938 30.7792 11.5225 30.6943 11.5225 30.6268C11.5225 30.5593 11.5939 30.4744 11.7087 30.4052C11.7221 30.3971 11.7353 30.3884 11.7478 30.3791L15.9015 27.33C15.9927 27.274 16.087 27.2645 16.1617 27.304C16.2477 27.3496 16.2989 27.4602 16.3024 27.6078V29.4507C16.3024 29.5977 16.3655 29.7376 16.4757 29.8349C16.5859 29.9322 16.7322 29.9776 16.8785 29.9594C23.1425 29.1789 27.866 23.8224 27.866 17.4995C27.866 15.4872 27.4043 13.5646 26.4934 11.7854C25.6245 10.0881 24.3564 8.58607 22.8279 7.44289C22.4662 7.17021 22.2935 6.83107 22.3417 6.48805C22.3821 6.20087 22.5739 5.9584 22.8422 5.85524C23.2004 5.71764 23.6356 5.84102 24.0675 6.20299C24.0722 6.20695 24.0771 6.21085 24.0819 6.21461C27.5911 8.94468 29.6037 13.0579 29.6037 17.4995C29.6037 20.8041 28.4507 24.0258 26.3569 26.5712C26.177 26.7898 26.2084 27.1129 26.4271 27.2928C26.6458 27.4726 26.9688 27.4412 27.1487 27.2226C29.3931 24.4941 30.6291 21.0411 30.6291 17.4995C30.6291 15.0959 30.088 12.7947 29.0208 10.6598Z" fill="black"/>
</svg>
