<svg width="36" height="35" viewBox="0 0 36 35" fill="none" xmlns="http://www.w3.org/2000/svg">
<path fill-rule="evenodd" clip-rule="evenodd" d="M13.5425 1.91471C13.7114 1.26668 13.7573 0.600298 14.7798 0C26.3195 1.73664 33.2128 8.50881 35.9206 19.0755C35.0761 23.3051 32.5519 27.1419 28.4784 30.6115C22.0201 35.3313 14.8184 36.4658 6.65101 32.9264C9.27249 33.356 12.1381 33.457 13.7371 32.6511C16.8047 30.8649 18.0383 28.6307 17.9741 25.1648C17.919 22.1853 16.4522 20.221 14.2713 19.8245C12.5218 19.685 11.446 23.6429 10.0343 23.5989C7.59459 23.5236 6.42704 21.5685 6.3224 20.0999C6.03052 19.5234 8.88331 18.7249 10.3886 18.1062C11.8756 17.416 12.9037 16.2172 11.9546 15.0093C10.8549 13.9592 9.23027 14.1795 7.63682 15.1433C6.39216 15.8611 5.92221 16.6688 5.77902 17.7354C5.72578 17.9942 2.32593 17.2104 2.26718 16.9589C2.04505 16.4247 1.9294 15.9437 1.9808 15.3618C1.26118 15.2571 0.769189 14.8404 0 14.4512C0.536046 11.9931 1.66872 10.1041 4.34344 8.50147C4.02952 6.71526 5.08142 4.99147 7.52116 3.4898C9.57356 2.73714 11.5837 2.19375 13.5425 1.91655V1.91471ZM6.72077 8.51432C8.25547 7.30454 9.75163 8.04436 7.66619 9.52399C5.9222 10.7613 5.42655 9.53317 6.72077 8.51432Z" fill="#5285C6"/>
</svg>
