<svg width="57" height="35" viewBox="0 0 57 35" fill="none" xmlns="http://www.w3.org/2000/svg">
<path fill-rule="evenodd" clip-rule="evenodd" d="M31.2866 1.57202C30.8379 3.86204 30.3892 6.15206 29.9405 8.44208C22.3061 8.74619 20.257 14.0798 20.0588 18.339C19.7912 24.0898 24.3154 28.8669 30.5438 29.2702C31.6035 28.598 32.8136 28.2117 34.1437 28.0533C37.1855 28.0558 40.5494 29.1014 43.3641 29.3837C45.6354 29.6115 47.7353 29.6659 49.4821 29.6717C51.4581 29.6784 52.991 29.6235 53.9831 29.3969C54.6456 30.3264 55.3081 31.2559 55.9706 32.1855C56.0749 32.6371 56.1793 33.0888 56.2837 33.5404C48.5609 33.5379 40.838 33.5353 33.1152 33.5328C31.9187 33.6686 31.0735 34.2413 30.3774 34.9993C28.8876 34.9996 27.3978 34.9998 25.908 35C25.3192 34.2897 24.6871 33.6366 23.5951 33.5927C15.7301 33.5933 7.86504 33.5939 0 33.5946C0.103497 33.1359 0.206994 32.6773 0.31049 32.2186C0.982267 31.2714 1.65409 30.324 2.32587 29.3768C4.70796 29.3902 7.0901 29.4037 9.47219 29.4172C6.46107 27.3853 3.66971 24.8342 1.25353 21.3962C3.17679 21.6226 5.1001 21.8491 7.02336 22.0756C5.14646 19.2579 4.04299 16.148 3.38297 12.8706C5.0891 13.4883 6.79522 14.1061 8.5013 14.7238C8.01714 10.9588 8.2706 7.56255 9.40887 4.6088C10.8133 5.76816 12.2178 6.92757 13.6222 8.08693C14.903 4.51282 16.9265 1.95163 19.3971 0C20.2439 1.75049 21.0906 3.50094 21.9373 5.25139C25.0246 3.00421 28.1453 1.92626 31.2866 1.57202Z" fill="#5285C6"/>
<path d="M34.2964 17.148C34.259 15.6591 33.879 14.5253 33.1502 13.7528C32.4213 12.9741 31.5367 12.5879 30.4901 12.5879C29.375 12.5879 28.453 12.9991 27.7241 13.8151C26.9953 14.6312 26.6402 15.7463 26.6527 17.1479H34.2964V17.148Z" fill="#5285C6"/>
<path d="M33.8188 23.1697H39.1252C38.4711 25.0448 37.6261 27.2088 36.2096 28.1894C34.9757 28.078 33.8703 27.9628 32.7683 28.312C31.9497 28.5714 31.0993 28.9505 30.5438 29.27C27.2872 29.0185 24.9941 27.8365 23.0098 25.958C21.3857 24.4206 20.0488 21.6849 20.0488 18.9875C20.0488 15.773 20.9325 12.9137 22.8257 11.2068C24.5119 9.29619 27.6062 8.43994 30.1728 8.43994C33.051 8.43994 35.3265 9.61459 36.9943 11.5224C38.6594 13.4272 39.455 16.3504 39.3803 20.2875H26.5597C26.5971 21.8075 27.0808 23.0298 27.7264 23.9925C29.1525 26.1191 31.4767 25.8875 32.4852 25.0808C33.0322 24.6433 33.5385 24.1415 33.8188 23.1697Z" stroke="#5285C6" stroke-width="1.05833" stroke-miterlimit="22.9256"/>
</svg>
