<svg width="45" height="35" viewBox="0 0 45 35" fill="none" xmlns="http://www.w3.org/2000/svg">
<path d="M42.5022 2.03059H41.2663V1.24354C41.2663 0.859043 41.0173 0.518819 40.6505 0.402346C38.3098 -0.340086 35.7634 -0.045497 33.639 1.2071C31.5145 -0.0451565 28.9678 -0.339745 26.6271 0.402346C26.2606 0.518819 26.0117 0.859043 26.0117 1.24354V2.03059H24.6429C23.4649 2.03059 22.5066 2.98894 22.5066 4.16729V7.49393H3.56027C3.07292 7.49393 2.6782 7.88899 2.6782 8.37633V29.2182H0.882063C0.395055 29.2182 0 29.6133 0 30.1006V34.1179C0 34.6049 0.395055 35 0.882063 35H40.7813C41.2686 35 41.6637 34.6049 41.6637 34.1179V30.1006C41.6637 29.6133 41.2686 29.2182 40.7813 29.2182H38.9855V16.7539H43.7565C44.2435 16.7539 44.6385 16.3588 44.6385 15.8718V13.6006C44.6385 12.4679 42.8741 12.4662 42.8741 13.6006V14.9894H24.271V4.16729C24.271 3.96193 24.4379 3.79505 24.6429 3.79505H26.0117V12.7901C26.0117 13.5601 26.8498 13.8553 27.4485 13.5083C29.3485 12.6562 31.4178 12.4621 33.4326 12.9471C33.5661 12.9791 33.7118 12.9791 33.8453 12.9471C35.8601 12.4621 37.9294 12.6562 39.8294 13.5083C40.4281 13.8553 41.2663 13.5601 41.2663 12.7901V3.79505H42.5022C42.7072 3.79505 42.8741 3.96193 42.8741 4.16729V6.60914C42.8741 7.74186 44.6385 7.74356 44.6385 6.60914V4.16729C44.6385 2.98928 43.6802 2.03059 42.5022 2.03059ZM4.44267 9.2584H22.5066V11.1359H7.29456C6.80721 11.1359 6.41216 11.531 6.41216 12.018V29.2182H4.44267V9.2584ZM39.8992 30.9827V33.2355H1.76447V30.9827H39.8992ZM37.221 29.2182H35.3741V16.7539H37.221V29.2182ZM33.6097 16.7539V29.2182H8.17662V12.9004H22.5066V15.8718C22.5066 16.3588 22.9016 16.7539 23.3886 16.7539H33.6097ZM27.7761 11.4884V1.92024C29.4667 1.55277 31.2462 1.83919 32.7569 2.73453V11.0252C31.0783 10.793 29.388 10.9503 27.7761 11.4884ZM39.5018 11.4911C38.3718 11.1175 37.1866 10.9285 36.0018 10.9285C35.507 10.9285 35.0121 10.9612 34.521 11.0276V2.73453C36.0318 1.83919 37.8112 1.55311 39.5018 1.92024V11.4911Z" fill="#5285C6"/>
<path d="M11.0338 17.7938H18.548C19.6807 17.7938 19.6824 16.0293 18.548 16.0293H11.0338C9.90105 16.0293 9.89935 17.7938 11.0338 17.7938Z" fill="#5285C6"/>
<path d="M11.0338 19.1172C9.90105 19.1172 9.89935 20.8817 11.0338 20.8817H23.3881C24.5212 20.8817 24.5229 19.1172 23.3881 19.1172H11.0338Z" fill="#5285C6"/>
<path d="M11.0338 22.2051C9.90105 22.2051 9.89935 23.9695 11.0338 23.9695H24.2705C25.4032 23.9695 25.4049 22.2051 24.2705 22.2051H11.0338Z" fill="#5285C6"/>
<path d="M20.6207 25.293H11.0338C9.90105 25.293 9.89935 27.0574 11.0338 27.0574H20.6207C21.7534 27.0574 21.7551 25.293 20.6207 25.293Z" fill="#5285C6"/>
<path d="M24.2707 25.2935C23.7916 25.2935 23.3887 25.695 23.3887 26.1748C23.3883 26.6544 23.7912 27.0579 24.2707 27.0579C24.7366 27.0579 25.1307 26.6779 25.1511 26.2133C25.1732 25.7195 24.7659 25.2935 24.2707 25.2935Z" fill="#5285C6"/>
<path d="M43.7574 9.21143C43.2779 9.21143 42.875 9.61465 42.875 10.0938C42.875 10.573 43.2782 10.9759 43.7574 10.9759C44.223 10.9759 44.617 10.5965 44.6378 10.1323C44.6596 9.63883 44.2522 9.21143 43.7574 9.21143Z" fill="#5285C6"/>
</svg>
