<svg width="45" height="35" viewBox="0 0 45 35" fill="none" xmlns="http://www.w3.org/2000/svg">
<path d="M41.6387 10.5733C41.4574 9.21034 41.4318 6.86276 42.6978 6.07448C42.7204 6.06003 42.7373 6.03916 42.7571 6.02123C43.7921 5.69018 44.5084 5.22559 43.9461 4.60042L28.678 0L3.95553 3.4372C3.95553 3.4372 1.12449 3.84185 1.37739 8.24021C1.51468 10.6341 2.2655 11.8098 2.92211 12.3884L0.893399 12.9997C0.330322 13.6249 1.04648 14.0896 2.08164 14.4201C2.10131 14.4386 2.1179 14.4593 2.14092 14.4738C3.4061 15.2627 3.38175 17.6101 3.19976 18.9733C-1.34539 20.2639 0.286165 20.6845 0.286165 20.6845L1.28319 20.9258C0.581887 21.5595 -0.114599 22.7612 0.0158667 25.0404C0.268903 29.438 2.59427 29.7415 2.59427 29.7415L18.7726 35L43.1917 29.0853C43.1917 29.0853 44.8238 28.664 40.2774 27.3733C40.0947 26.0122 40.0692 23.6651 41.3374 22.8742C41.3606 22.8601 41.3776 22.8389 41.3965 22.8212C42.4317 22.4901 43.1473 22.026 42.5849 21.4008L41.5235 21.0803C42.2314 20.6535 43.2946 19.5379 43.4612 16.6401C43.5762 14.6468 43.0562 13.4794 42.4543 12.7922L44.5522 12.2845C44.5523 12.2853 46.1844 11.8641 41.6387 10.5733ZM21.2135 10.517L25.3199 9.67306L39.1972 6.82128L41.2647 6.39603C40.6041 7.60515 40.6318 9.25985 40.7411 10.3234C40.7651 10.564 40.7926 10.7837 40.8194 10.9507L38.5564 11.5134L21.0409 15.8707L21.2135 10.517ZM3.57417 14.7967L5.64141 15.2219L18.9686 17.9616L20.1329 18.2L23.6244 18.9177L23.7966 24.2714L5.79449 19.7927L4.01976 19.3516C4.04585 19.1843 4.07342 18.9649 4.09844 18.7236C4.20709 17.6609 4.23533 16.0058 3.57417 14.7967ZM2.77103 8.02852C2.74601 6.85862 2.95449 6.01253 3.37586 5.58246C3.64402 5.30788 3.96048 5.25074 4.17752 5.25074C4.2922 5.25074 4.37476 5.26667 4.38038 5.26667L15.0327 8.73946L20.3472 10.4722L20.1729 15.8633L5.2634 11.6833L4.47659 11.4629C4.44769 11.4548 4.40848 11.4491 4.37824 11.4478C4.31682 11.4434 2.84276 11.3077 2.77103 8.02852ZM18.8111 32.6643L3.1152 28.2638C3.08616 28.2554 3.04735 28.2498 3.01711 28.2483C2.95462 28.2442 1.47989 28.1086 1.40857 24.8302C1.38315 23.6589 1.5927 22.8136 2.01326 22.3831C2.28209 22.1085 2.59869 22.0514 2.81533 22.0514C2.93027 22.0514 3.01256 22.0668 3.01858 22.0668C3.01858 22.0668 3.01925 22.0668 3.01858 22.0668L18.9844 27.2731L18.8111 32.6643ZM39.3785 27.1236C39.4033 27.365 39.4308 27.5843 39.4576 27.7516L19.6787 32.672L19.8516 27.3182L24.0802 26.4488L24.7047 26.5999L27.0453 25.8392L37.8346 23.6221L39.9029 23.1965C39.2416 24.4055 39.269 26.0609 39.3785 27.1236ZM40.468 19.8476C40.432 19.8484 40.396 19.8533 40.3621 19.864L38.8704 20.2816L24.6667 24.2643L24.493 18.8732L29.1531 17.3533L40.437 13.6733C40.4384 13.6727 41.0305 13.5411 41.4652 13.9831C41.8859 14.4132 42.0946 15.2593 42.07 16.4292C41.9964 19.7073 40.5217 19.8435 40.468 19.8476Z" fill="black"/>
</svg>
