<svg width="30" height="37" viewBox="0 0 30 37" fill="none" xmlns="http://www.w3.org/2000/svg">
<path fill-rule="evenodd" clip-rule="evenodd" d="M16.0533 1.00012C26.262 0.963506 29.3569 9.25513 29.5086 13.1346C29.7108 16.3437 28.921 19.0881 27.3622 21.4716C26.3048 22.9179 25.7477 24.6309 25.5149 26.5175C25.5297 27.942 25.6657 28.935 25.8558 29.7266C21.7801 31.818 17.7045 33.9086 13.628 36C12.9236 34.4883 12.1172 33.0403 11.1931 31.6663C9.12258 31.6663 7.05207 31.6663 4.98156 31.6663C4.0871 30.7553 3.75669 29.547 3.90839 28.0859C3.79331 27.5584 3.61721 27.0449 3.30946 26.5585C3.02177 25.6457 2.80993 24.6283 2.7829 23.6336C1.97126 23.4767 1.61121 23.2274 1.12998 22.5761C0.981777 22.0696 0.937315 21.4419 1.11952 20.8526C1.66962 19.3758 2.23454 17.9094 3.00434 16.5703C2.50916 15.3472 2.05844 14.0169 2.08547 12.4633C2.1186 8.39467 6.52289 1.03412 16.0525 1.00012H16.0533ZM16.4866 6.19339C20.7941 6.19339 24.2866 9.68579 24.2866 13.9933C24.2866 18.3009 20.7941 21.7933 16.4866 21.7933C15.5773 21.7933 14.7038 21.6372 13.8922 21.3513C13.3421 21.1568 10.3126 22.6467 9.82699 22.3407C9.34314 22.0356 11.4023 19.9355 10.9987 19.5353C9.57155 18.1221 8.68756 16.1606 8.68756 13.9933C8.68756 9.68579 12.18 6.19339 16.4875 6.19339H16.4866Z" fill="#5285C6" stroke="#5285C6" stroke-width="0.199931" stroke-miterlimit="22.9256"/>
<path fill-rule="evenodd" clip-rule="evenodd" d="M16.4866 6.19287C20.7941 6.19287 24.2865 9.68527 24.2865 13.9928C24.2865 18.3003 20.7941 21.7927 16.4866 21.7927C15.5773 21.7927 14.7037 21.6367 13.8921 21.3507C13.342 21.1563 10.3125 22.6462 9.82693 22.3402C9.34309 22.0351 11.4023 19.9349 10.9986 19.5348C9.5715 18.1216 8.6875 16.1601 8.6875 13.9928C8.6875 9.68527 12.1799 6.19287 16.4874 6.19287H16.4866Z" fill="#FEFEFE"/>
<path d="M15.7766 11.1664C16.597 11.1664 17.2621 10.5013 17.2621 9.68085C17.2621 8.86041 16.597 8.19531 15.7766 8.19531C14.9561 8.19531 14.291 8.86041 14.291 9.68085C14.291 10.5013 14.9561 11.1664 15.7766 11.1664Z" fill="#5285C6"/>
<path fill-rule="evenodd" clip-rule="evenodd" d="M14.7757 12.4769C15.6353 12.4769 16.1688 12.4769 17.0293 12.4769C17.2499 12.4926 17.6831 12.8152 17.6553 13.0881C17.6553 14.4742 17.6553 15.5892 17.6553 16.9754C17.9647 16.9859 18.2742 16.9963 18.5837 17.0059C18.9882 16.9937 19.228 17.4148 19.3579 17.706C19.3579 18.3188 19.3579 18.6789 19.3579 19.2918C17.6396 19.2918 15.984 19.2918 14.2657 19.2918C13.9763 19.2342 13.7705 18.9701 13.7775 18.8637C13.7775 18.2517 13.7775 18.2221 13.7775 17.6101C14.0887 17.4313 14.6258 17.1219 15.3781 17.026C15.3781 16.2605 15.3781 15.496 15.3781 14.7305C14.9344 14.7087 14.5273 14.503 14.1027 14.1926C14.1027 13.7873 14.1027 13.578 14.1027 13.1726C14.2047 12.8387 14.427 12.6042 14.7766 12.4761L14.7757 12.4769Z" fill="#5285C6"/>
</svg>
