<svg width="25" height="25" viewBox="0 0 25 25" fill="none" xmlns="http://www.w3.org/2000/svg">
<path d="M12.5 25C19.4053 25 25 19.4053 25 12.5C25 5.59468 19.4053 0 12.5 0C5.59468 0 0 5.59468 0 12.5C0 19.4053 5.59468 25 12.5 25ZM5.71961 12.2297L17.7721 7.58223C18.332 7.38007 18.8204 7.71852 18.6387 8.56465L18.6398 8.56351L16.5875 18.231C16.4354 18.917 16.0288 19.0839 15.4586 18.7602L12.333 16.4569L10.8259 17.9095C10.659 18.0765 10.5181 18.2173 10.1956 18.2173L10.417 15.0361L16.2093 9.80374C16.4615 9.58227 16.1537 9.45734 15.8209 9.67768L8.66346 14.1843L5.57764 13.2223C4.90755 13.0088 4.89279 12.5522 5.71961 12.2297V12.2297Z" fill="#393185"/>
</svg>
