<svg width="17" height="17" viewBox="0 0 18 18" fill="none" xmlns="http://www.w3.org/2000/svg">
<path d="M17.4849 2.46097C17.2201 2.19572 16.7904 2.19526 16.5256 2.45985L8.38722 10.5768L5.4509 7.38766C5.19718 7.11225 4.7682 7.09439 4.49233 7.34808C4.21667 7.6018 4.19902 8.03099 4.45274 8.30665L7.86733 12.015C7.99238 12.1509 8.16739 12.2298 8.35192 12.2336C8.35688 12.2338 8.36166 12.2338 8.36641 12.2338C8.54574 12.2338 8.71825 12.1626 8.84534 12.036L17.4835 3.42042C17.749 3.15587 17.7495 2.72623 17.4849 2.46097Z" fill="#F86C22"/>
<path d="M17.3216 8.32159C16.9469 8.32159 16.6432 8.62527 16.6432 9C16.6432 13.2146 13.2146 16.6432 9 16.6432C4.78561 16.6432 1.35679 13.2146 1.35679 9C1.35679 4.78561 4.78561 1.35679 9 1.35679C9.3747 1.35679 9.67841 1.05311 9.67841 0.67841C9.67841 0.30368 9.3747 0 9 0C4.03734 0 0 4.03734 0 9C0 13.9624 4.03734 18 9 18C13.9624 18 18 13.9624 18 9C18 8.6253 17.6963 8.32159 17.3216 8.32159Z" fill="#F86C22"/>
</svg>
